<?xml version="1.0" encoding="utf-8"?>
<!-- Generator: Adobe Illustrator 22.1.0, SVG Export Plug-In . SVG Version: 6.00 Build 0)  -->
<svg version="1.1" id="Layer_1" xmlns="http://www.w3.org/2000/svg" xmlns:xlink="http://www.w3.org/1999/xlink" x="0px" y="0px"
	 viewBox="0 0 440.6 119.5" style="enable-background:new 0 0 440.6 119.5;" xml:space="preserve">
<style type="text/css">
	.st0{fill:#FFFFFF;}
	.st1{fill:#E0AB08;}
	.st2{fill:#D78021;}
	.st3{fill:#D78D8E;}
	.st4{fill:#B4C580;}
</style>
<g>
	<path class="st0" d="M10.5,76.4c0-5.8-0.1-11.5,0-17.3c0.1-5.9,3.4-9.5,8.7-9.6c5.8-0.1,9.4,3.2,9.4,9.4
		c0.1,10.8,0.1,21.7,0.1,32.5c0,6.4,4.4,10.6,11.5,10.9c7.6,0.3,13-3.7,13.2-10.3c0.2-10.7,0.1-21.3,0.1-32c0-7.3,2.6-10.3,8.7-10.4
		c6.1-0.1,9.2,3.4,9.3,10.6c0,9.8-0.4,19.6,0.1,29.4c0.9,15.7-9.3,25.3-22.3,28.9c-16.3,4.5-34.8-4.8-38-20
		C9.8,91.5,10.5,83.7,10.5,76.4C10.5,76.2,10.7,76.4,10.5,76.4z"/>
	<path class="st0" d="M114.4,117.1c-15.4,0.2-27.8-8.4-32.3-21.3c-4.7-13.6-0.3-28.1,11.3-37c10.6-8.1,26.3-8.4,37.3-0.8
		c0.7,0.5,1.4,1,2.1,1.6c2.4,2.2,4,4.7,1.8,7.8c-2.3,3.2-5.4,3-8.3,0.9c-5.7-4.1-11.7-6-18.7-4.2c-8.6,2.3-14,7.8-15.9,16.3
		c-1.9,8.7,1.8,17.3,9.3,22.3c6.5,4.4,16.1,4.5,22.8,0.1c0.7-0.5,1.4-1,2.1-1.5c3-2.3,6-2.3,8.3,0.7c2.5,3.1,1,6-1.7,8.2
		C126.8,115,120.1,117.3,114.4,117.1z"/>
	<path class="st0" d="M154.3,60.1c10.4-7.6,21.2-9.6,32.6-5.2c1.9,0.7,3.7,3.2,4.2,5.2c0.3,1.4-1.4,4-2.9,4.9
		c-1.3,0.8-3.9,0.6-5.5,0c-14.1-5.8-30.3,6.5-28.8,21.8c0.7,7.6,0.1,15.4,0,23.1c-0.1,3.7-0.8,7.3-5.6,7.2c-4.8-0.1-5.4-3.5-5.4-7.3
		c0-16.4,0-32.9,0-49.3c0-3.6,0.5-7,4.7-7.5C152.2,52.2,153.6,55.5,154.3,60.1z"/>
	<path class="st0" d="M208.9,90.5c2.8,13.5,18.9,20,30.9,12.7c3.6-2.2,7.1-5.5,10.9-0.6c2.3,3,0,7-5.4,10.3
		c-14.7,8.7-35.1,3.7-43.9-10.8c-9.4-15.5-4.9-35,10.2-44.6c15-9.5,35-5.3,44.2,9.8c2.7,4.5,4.1,10,5,15.2c1,5.8-1.3,7.9-7.4,8
		c-13.1,0.1-26.3,0-39.4,0C212.4,90.5,210.7,90.5,208.9,90.5z M248.9,79c-2.2-9.2-10.4-15.5-20-15.5c-9.5,0-17.8,6.2-19.9,15.5
		C222.3,79,235.6,79,248.9,79z"/>
	<g>
		<path class="st1" d="M316.5,69l-16,16l-16-16C293.3,60.2,307.6,60.2,316.5,69z"/>
		<path class="st2" d="M316.5,100.9l-16-16l16-16C325.3,77.8,325.3,92.1,316.5,100.9z"/>
		<path class="st3" d="M316.5,100.9C316.5,100.9,316.5,100.9,316.5,100.9c-8.8,8.8-23.1,8.8-32,0l16-16L316.5,100.9z"/>
		<path class="st4" d="M300.5,85l-16,16c-8.8-8.8-8.8-23.1,0-31.9c0,0,0,0,0,0L300.5,85z"/>
		<circle cx="300.5" cy="85" r="12"/>
	</g>
	<path class="st0" d="M321.3,109.7c-9.4,7.3-19.5,9.3-30.4,6.1c-15.7-4.7-25.1-20.3-22.3-36.8c2.6-15.6,16.8-26.7,33.5-26.3
		c15.5,0.4,28.9,12.7,30.2,28.6c0.8,9.4,0.5,18.9,0.5,28.3c0,3.5-0.5,6.8-4.9,7.4C324.5,117.4,322.5,115.3,321.3,109.7z M279.2,84.8
		c0,12.3,9.4,21.7,21.6,21.6c11.3-0.1,20.9-9.9,20.9-21.3c0-11.8-9.7-21.8-21.1-21.6C288.5,63.6,279.2,72.8,279.2,84.8z"/>
	<path class="st0" d="M343.3,64.2c-0.1-0.1-0.1-0.2-0.2-0.2c-1.1-0.7-2.9-0.6-4.2-1.3c-1.3-0.8-2.4-1.8-3.2-3.1
		c-0.3-0.5-0.6-1.1-0.6-1.7c0-0.8,0.4-1.4,0.8-2.1c0.7-1,1.4-2,2.5-2.5c1.2-0.5,2.6-0.4,3.7-1.1c0.8-0.5,1.3-1.5,1.4-2.5
		c0.4-2.7-0.1-5.7-0.1-8.4c0-3.1,0-6.1,0-9.2c0-3.7,1.8-6.3,5.5-6.3c3.8,0,5.3,2.7,5.3,6.4c-0.1,6.5,0,12.9,0,20.3
		c2.7,0,5.1-0.1,7.4,0c3.6,0.1,6.1,1.8,6.1,5.7c0,3.7-2.6,5-5.9,5.2c-7.5,0.5-7.5,0.6-7.5,8.2c0,7.3-0.1,14.7,0.1,22
		c0.2,8.3,3.4,11.6,11.6,12.5c3.5,0.4,6.2,1.7,6.2,5.6c-0.1,4.1-2.9,5.2-6.4,5.2c-13.2,0.3-21.9-7.9-22.2-21.1
		c-0.2-7.2-0.2-14.3-0.1-21.5C343.6,72.5,344.4,65.7,343.3,64.2z"/>
	<path class="st0" d="M388,90.9c4.3,15.2,22,19.2,32.8,11.4c1.8-1.3,4.5-2,6.6-1.8c1.3,0.2,3.4,2.7,3.3,4.1
		c-0.2,2.1-1.4,4.9-3.1,6.1c-10.7,7.7-22.3,8.8-34.1,3C380,107,373.1,91.5,376.8,77c3.9-15.1,17.2-24.8,33.7-24.3
		c13.9,0.4,26.7,11.8,29.5,26.2c1.8,9.2-0.3,11.7-9.7,11.7c-13.7,0-27.3,0-41,0C389,90.6,388.7,90.8,388,90.9z M428.3,79
		c-2.6-9.5-11-15.8-20.7-15.5c-9.3,0.3-17.3,6.6-19.4,15.5C401.6,79,414.9,79,428.3,79z"/>
	<path class="st0" d="M42.6,22.7c9.5,7.9,26.8,8.4,38.9,1.1c0.9,8.3-7.3,16.9-17.1,18C53.4,43,43.8,34.6,42.6,22.7z"/>
	<path class="st0" d="M82,18.1c-13.5-7.4-29.9-7-39.2,0.9c1-11.6,9.3-19.2,20.5-19C73,0.2,81.4,8.1,82,18.1z"/>
	<path class="st0" d="M0,16.2C3.6,4.8,10.6-0.3,20.8,0.1c8.8,0.3,15.7,6.3,17.8,15.3C26.7,3.1,11.5,3.2,0,16.2z"/>
	<path class="st0" d="M0.5,26.3c11.9,12.2,28.1,12.1,37.9-0.1C37.8,34.1,30,41,20.9,41.8C11.3,42.6,2.9,36.2,0.5,26.3z"/>
</g>
</svg>
