<?xml version="1.0" encoding="utf-8"?>
<!-- Generator: Adobe Illustrator 22.1.0, SVG Export Plug-In . SVG Version: 6.00 Build 0)  -->
<svg version="1.1" id="Layer_1" xmlns="http://www.w3.org/2000/svg" xmlns:xlink="http://www.w3.org/1999/xlink" x="0px" y="0px"
	 viewBox="0 0 353.1 314.6" style="enable-background:new 0 0 353.1 314.6;" xml:space="preserve">
<style type="text/css">
	.st0{fill:#F2F2F2;}
	.st1{fill:#333333;}
	.st2{fill:#D78021;}
	.st3{fill:#B4C580;}
	.st4{fill:#D78D8E;}
	.st5{fill:#E0AB08;}
	.st6{fill:#030708;}
	.st7{fill:#DFDFDF;}
	.st8{fill:#606060;}
	.st9{opacity:0.2;clip-path:url(#SVGID_8_);fill:url(#SVGID_9_);}
	.st10{fill:#FFFFFF;}
	.st11{clip-path:url(#SVGID_11_);}
	.st12{clip-path:url(#SVGID_15_);}
	.st13{clip-path:url(#SVGID_19_);}
	.st14{opacity:0.38;}
	.st15{clip-path:url(#SVGID_23_);}
	.st16{clip-path:url(#SVGID_27_);}
	.st17{clip-path:url(#SVGID_31_);}
	.st18{clip-path:url(#SVGID_35_);}
	.st19{clip-path:url(#SVGID_39_);}
	.st20{opacity:0.72;}
	.st21{opacity:0.2;clip-path:url(#SVGID_45_);fill:url(#SVGID_46_);}
	.st22{opacity:0.4;clip-path:url(#SVGID_48_);fill:url(#SVGID_49_);}
	.st23{clip-path:url(#SVGID_55_);}
	.st24{clip-path:url(#SVGID_65_);}
	.st25{clip-path:url(#SVGID_69_);}
	.st26{clip-path:url(#SVGID_71_);}
	.st27{clip-path:url(#SVGID_75_);}
	.st28{clip-path:url(#SVGID_77_);}
	.st29{clip-path:url(#SVGID_79_);}
	.st30{clip-path:url(#SVGID_85_);}
	.st31{clip-path:url(#SVGID_89_);}
	.st32{clip-path:url(#SVGID_91_);}
	.st33{opacity:0.15;}
	.st34{fill:none;stroke:#35495D;stroke-width:2.8788;stroke-linecap:round;stroke-linejoin:round;stroke-dasharray:5.7576,20.1517;}
	.st35{fill:none;stroke:#35495D;stroke-width:2.8788;stroke-linecap:round;stroke-linejoin:round;}
	.st36{fill:none;stroke:#35495D;stroke-width:4.798;stroke-linecap:round;stroke-linejoin:round;stroke-dasharray:0,11.1315;}
	.st37{fill:none;stroke:#35495D;stroke-width:4.798;stroke-linecap:round;stroke-linejoin:round;stroke-dasharray:0,12.6668;}
	.st38{fill:none;stroke:#35495D;stroke-width:1.9192;stroke-linecap:round;stroke-linejoin:round;}
	.st39{fill:none;stroke:#35495D;stroke-width:1.4394;stroke-linecap:round;stroke-linejoin:round;}
	.st40{fill:#4D4D4D;}
</style>
<g class="st33">
	<g>
		<g>
			<g>
				<polyline class="st34" points="104.3,62.6 116.7,75.1 129.2,87.6 				"/>
				<polyline class="st34" points="104.3,87.6 116.7,75.1 129.2,62.6 				"/>
			</g>
			<g>
				<polyline class="st35" points="52.1,110.5 61.4,119.8 70.7,129.1 				"/>
				<polyline class="st35" points="52.1,129.1 61.4,119.8 70.7,110.5 				"/>
			</g>
			<g>
				<polyline class="st35" points="237.2,78.6 246.5,87.9 255.8,97.1 				"/>
				<polyline class="st35" points="237.2,97.1 246.5,87.9 255.8,78.6 				"/>
			</g>
			<g>
				<polyline class="st35" points="140.8,4.5 150.1,13.7 159.3,23 				"/>
				<polyline class="st35" points="140.8,23 150.1,13.7 159.3,4.5 				"/>
			</g>
			<path class="st35" d="M64.8,41.9c-8.3,0-15-7-15-15.7c0-8.7,6.7-15.7,15-15.7c8.3,0,15,7,15,15.7C79.8,34.8,73.1,41.9,64.8,41.9z
				"/>
			<path class="st36" d="M224.4,33.9c-8.7,0-15.7-7.1-15.7-15.7c0-8.7,7-15.7,15.7-15.7c8.7,0,15.7,7,15.7,15.7
				C240.1,26.8,233,33.9,224.4,33.9z"/>
			
				<ellipse transform="matrix(0.2068 -0.9784 0.9784 0.2068 75.643 235.1938)" class="st35" cx="182.9" cy="70.9" rx="8.8" ry="8.8"/>
			<path class="st37" d="M11.2,94c-4.9,0-8.8-4-8.8-8.8c0-4.9,3.9-8.8,8.8-8.8c4.9,0,8.8,3.9,8.8,8.8C20,90,16.1,94,11.2,94z"/>
			
				<ellipse transform="matrix(0.2084 -0.978 0.978 0.2084 116.3003 385.3758)" class="st35" cx="296.2" cy="120.8" rx="8.8" ry="8.8"/>
			<g>
				<polyline class="st34" points="287.8,22.4 300.3,34.8 312.8,47.3 				"/>
				<polyline class="st34" points="287.8,47.3 300.3,34.8 312.8,22.4 				"/>
			</g>
			<path class="st37" d="M341.9,88.5c-4.9,0-8.8-4-8.8-8.8c0-4.9,3.9-8.8,8.8-8.8c4.9,0,8.8,3.9,8.8,8.8
				C350.7,84.6,346.8,88.5,341.9,88.5z"/>
		</g>
		<g>
			<line class="st38" x1="174.7" y1="139.3" x2="174.7" y2="119"/>
			<line class="st39" x1="191.9" y1="141.2" x2="194.1" y2="131.3"/>
			<line class="st38" x1="208.2" y1="146.7" x2="216.7" y2="128.4"/>
			<line class="st39" x1="222.9" y1="155.7" x2="229.1" y2="147.7"/>
			<line class="st38" x1="235.4" y1="167.7" x2="250.9" y2="154.7"/>
			<line class="st39" x1="244.9" y1="182.1" x2="253.9" y2="177.4"/>
			<line class="st39" x1="157.6" y1="141.2" x2="155.4" y2="131.3"/>
			<line class="st38" x1="141.2" y1="146.7" x2="132.7" y2="128.4"/>
			<line class="st39" x1="126.5" y1="155.7" x2="120.4" y2="147.7"/>
			<line class="st38" x1="114.1" y1="167.7" x2="98.6" y2="154.7"/>
			<line class="st39" x1="104.5" y1="182.1" x2="95.5" y2="177.4"/>
		</g>
		<path id="_x33__9_" class="st40" d="M148,213c1,0,1.9-0.8,1.9-1.9c0-12.7,10.3-23,23-23c12.7,0,23,10.3,23,23c0,1,0.8,1.9,1.9,1.9
			s1.9-0.8,1.9-1.9c0-14.7-12-26.7-26.7-26.7c-14.7,0-26.7,12-26.7,26.7C146.1,212.1,147,213,148,213z M223.4,259.5
			c-0.1,0,0,0-0.1,0c-1.9,0-3.5,0.6-4.9,1.5c-0.2-6.5-4.6-11.4-10.3-11.4c-2.6,0-4.9,1-6.7,2.8c-0.8-6.2-5.6-10.8-11.4-10.8
			c-2.9,0-4.9,1.2-7.7,3.2v-32.2c0-7.4-4.3-12.6-10.3-12.6c-6,0-10.3,5.3-10.3,12.6v49.9l-2.1-3.7c-2.2-3.6-6-5.7-10.3-5.7
			c-2.2,0-4.3,0.6-6.1,1.7c-2.4,1.5-4.3,4.3-5,7.7c-0.9,3.8-0.3,7.6,1.5,10.6l18.7,28.8c0.4,0.6,0.7,1,1.1,1.6
			c3.1,5.1,7,11.3,13.3,11.3h52.1c7.8,0,7.3-5.9,7.3-9.7v-34.7C232.2,264,228.6,259.5,223.4,259.5z M228.4,304.9
			c0,5.5-0.5,5.9-3.6,5.9h-52.1c-4.2,0-7.4-4.9-10.1-9.5c-0.4-0.6-0.7-1.1-1.1-1.7l-18.7-28.7c-1.3-2-1.7-4.9-1-7.7
			c0.6-2.4,1.8-4.4,3.4-5.3c1.2-0.8,2.7-1.1,4.2-1.1c3,0,5.6,1.5,7.2,3.9l5.7,9.4c0.4,0.7,1.1,1.1,1.9,0.8c0.8-0.2,1.2-1,1.2-1.8
			v-56.6c0-4.3,2.1-8.9,6.6-8.9c4.5,0,6.6,4.5,6.6,8.9v41.6c0,1,1,1.9,2.1,1.9s2-0.8,2-1.9c0-4.9,3.2-8.9,7.4-8.9
			c4.3,0,7.4,3.8,7.4,8.9v7.4c0,1,1,1.9,2.1,1.9c1,0,2-0.8,2-1.9c0-4.6,2.7-8.2,6.4-8.2c3.8,0,6.4,3.4,6.4,8.2v7.3
			c0,1,1,1.9,2.1,1.9s2-0.8,2-1.9c0-5.1,3.7-5.6,5.3-5.6c0,0-0.1,0-0.1,0c3,0.1,4.8,2.9,4.8,6.9V304.9z"/>
	</g>
</g>
</svg>
