<?xml version="1.0" encoding="utf-8"?>
<!-- Generator: Adobe Illustrator 22.1.0, SVG Export Plug-In . SVG Version: 6.00 Build 0)  -->
<svg version="1.1" id="Layer_1" xmlns="http://www.w3.org/2000/svg" xmlns:xlink="http://www.w3.org/1999/xlink" x="0px" y="0px"
	 viewBox="0 0 68.3 67" style="enable-background:new 0 0 68.3 67;" xml:space="preserve">
<style type="text/css">
	.st0{fill:#F2F2F2;}
	.st1{fill:#333333;}
	.st2{fill:#D78021;}
	.st3{fill:#B4C580;}
	.st4{fill:#D78D8E;}
	.st5{fill:#E0AB08;}
	.st6{fill:#030708;}
	.st7{fill:#DFDFDF;}
	.st8{fill:#606060;}
	.st9{opacity:0.2;clip-path:url(#SVGID_8_);fill:url(#SVGID_9_);}
	.st10{fill:#FFFFFF;}
	.st11{clip-path:url(#SVGID_11_);}
	.st12{clip-path:url(#SVGID_15_);}
	.st13{clip-path:url(#SVGID_19_);}
	.st14{opacity:0.38;}
	.st15{clip-path:url(#SVGID_23_);}
	.st16{clip-path:url(#SVGID_27_);}
	.st17{clip-path:url(#SVGID_31_);}
	.st18{clip-path:url(#SVGID_35_);}
	.st19{clip-path:url(#SVGID_39_);}
	.st20{opacity:0.72;}
	.st21{opacity:0.2;clip-path:url(#SVGID_45_);fill:url(#SVGID_46_);}
	.st22{opacity:0.4;clip-path:url(#SVGID_48_);fill:url(#SVGID_49_);}
	.st23{clip-path:url(#SVGID_55_);}
	.st24{clip-path:url(#SVGID_65_);}
	.st25{clip-path:url(#SVGID_69_);}
	.st26{clip-path:url(#SVGID_71_);}
	.st27{clip-path:url(#SVGID_75_);}
	.st28{clip-path:url(#SVGID_77_);}
	.st29{clip-path:url(#SVGID_79_);}
	.st30{clip-path:url(#SVGID_85_);}
	.st31{clip-path:url(#SVGID_89_);}
	.st32{clip-path:url(#SVGID_91_);}
</style>
<g>
	<g>
		<g>
			<path class="st8" d="M25.7,47.2c-2.6-1.1-4.7-3-6.8-4.8c-0.6-0.5-1.1-1-1.6-1.5c-1.7-1.5-2.9-3.4-4-5.3c-0.1-0.1-0.2-0.3-0.3-0.4
				c-0.6-1.4-1-2.9-1.2-4.4c0.1-1.2-0.3-2.3-0.2-3.5c0.1-0.7-0.1-1.4-0.1-2c0.2-0.9,0.3-1.8,0.4-2.7c0-0.2,0.1-0.3,0.1-0.5
				c0.2-0.5,0.2-1.1,0.3-1.6c0-0.2,0.1-0.3,0.1-0.5c0.5-0.9,0.7-2,1.2-2.9c0.2-0.2,0.4-0.2,0.7-0.2c0.4,0.2,0.8,0.3,1.2,0.5
				c0.3,0.3,0.5,0.7,0.8,1.1c0.7-0.1-0.7,1.6,0.7,0.8c0.6-0.5,0.7-1.5,1.6-1.6c0.4-0.1,0.7,0,0.9,0.3c0.6,0.3,0.4,1.6,1.5,1.2
				c0.1-0.1,0.2-0.2,0.3-0.4c0.2-0.1,0.4-0.2,0.7-0.2c0.2,0,0.3,0,0.5,0.1c0.2,0.1,0.3,0.2,0.4,0.3c-0.1,0.1-0.1,0.2-0.1,0.3
				c-0.5,2.8-0.8,5.6-0.4,8.5c1.3,5.2,4.7,8.4,9.8,9.8c1.3,0.3,2.6,0.5,3.9,0.7c0.5,0.4,1,0.1,1.3,0.2c-0.1,0-0.5,0.1-0.7-0.2
				c3.9-0.7,7.3-2.1,9.8-5.4c0.5-0.6,0.9-1.4,1.9-1.3c0.3-0.1,0.7-0.6,0.8-0.2c0.3,1.5,1.6,0.9,2.4,1.3c0.3-0.1,0.7-0.2,1-0.3
				c1.3,0.8,2.3,2,3.3,3c0.9,0.8,2.3,1.9,1.6,3.7c-2.7,3.1-5.8,5.7-9.1,8.1c-0.7,0.6-1.4,0.9-2.1,0l0,0c-0.6-0.2-1,0.3-1.5,0.3
				c-0.1,0-0.2,0-0.3,0.1c-0.4,0.3-0.9,0.1-1.3,0.1c-0.6,0.1-1.2,0-1.8,0c-0.7,0-1.1,0.5-1.6,0.8c-0.2,0.1-0.4,0.3-0.6,0.4
				c-0.3,0.1-0.6,0.2-0.9,0.2c-0.8,0.1-1.5,0.5-2.2,1c-1.1,0-2.1,0-3.2,0c-0.3-0.3,0-1-0.8-1c-1.3,0-2.6-0.6-3.7-1.3
				C27.7,46.8,26.7,46.8,25.7,47.2z"/>
			<path class="st8" d="M41.6,1c5.9,0.8,10.7,3.6,14.5,8c1,1.2,1.3,2.6,1.4,4.1c0.2,1.6-0.9,2.4-2.6,2.2c-1.2-0.1-2,0.1-2.9,1.1
				c-1.9,2-3.8,1.9-5.8-0.1C43.6,14,40.4,12.8,37,12c-0.4-0.1-0.8-0.2-1.2-0.3c0.5-0.4,1-0.2,1.2-0.2c-0.2,0-0.7-0.2-1.2,0.2
				c-2.8,0.2-5.4,0.9-8,2.1c-0.3,0.2-0.5,0-0.6-0.3c-0.1-0.4,0.1-0.7,0.3-0.9c0-0.3,1-0.2,0.2-0.7c-0.3,0-0.6,0-0.8-0.2
				c-0.2-0.2-0.4-0.5-0.3-0.8c0.2-0.6,1.1-0.8,1.1-1.7c0.2-0.3,0.5-0.4,0.8-0.6c0.6-0.3,1.1-0.6,1.7-0.8c0.2,0,0.3-0.1,0.5-0.1
				c0.6,0,1-0.3,1.5-0.5C32.8,7,33.4,6.9,34,6.7c0.4-0.1,0.9,0,1.2-0.3c-0.6-0.1-1.2,0-1.7,0.3c-0.5,0.2-0.9,0.4-1.4,0.3
				C31,5.6,31,5.2,32.3,4.2c0.2-0.1,0.5-0.3,0.7-0.3c1.6-0.3,3.3,0.1,5-0.3c0.3-0.1,0.6-0.2,0.9-0.1c1,0.2,0.9-0.4,0.8-1
				c0.4-0.3,0.9-0.5,0.9-1.1C40.8,1,41.1,0.8,41.6,1z"/>
			<path class="st8" d="M28.5,8.8c-0.2,0.1-0.4,0.3-0.7,0.4c-0.4,1-1.5,1.4-2,2.2c-0.5,0.5-1.1,0.9-1.8,1.1c-0.7,0-1.4,0.1-1.9,0.7
				c-0.3,0.3-0.6,0.6-0.9,1c-0.6,0.7-1.3,1.3-1.8,2c-0.2,0.2-0.5,0.2-0.7,0.4c-1.2,0.9-1.3,0.8-1.5-0.8c0.1-0.3,0.2-0.6,0.4-0.9
				c0.3-0.4,0.5-0.9,0.8-1.4c0.3-0.6,0.7-1,1.1-1.5c0.4-0.4,0.9-0.6,1.2-1.1l0,0c0.4-0.7,1.3-0.9,1.8-1.6C23,9,23.5,8.6,23.9,8.1
				c0.8-0.2,1.5-0.5,2.1-0.9c0.5-0.2,1-0.5,1.5-0.8c0.6-0.2,1.1-0.5,1.7-0.2c0.2,0.2,0.2,0.5,0.2,0.7c-0.1,0.3-0.4,0.6-0.7,0.8
				c-0.6,0.4-1.2,0.4-1.8,0.8c0.4-0.1,0.8-0.4,1.2-0.3C28.5,8.3,28.6,8.5,28.5,8.8z"/>
			<path class="st8" d="M8,62.3c0,0.6,0.1,1.2,0,1.7c-0.1,1.2,0.2,1.9,1.6,1.7c0.4-0.1,0.9,0.1,0.9,0.5c0,0.5-0.6,0.4-1,0.5
				c-2.5,0.2-2.7,0.1-2.7-2.4c0-1.6,0-3.2,0-4.7c0-0.4,0-0.8,0.5-0.8C7.8,58.8,8,59.3,8,59.7C8,60.6,8,61.5,8,62.3
				C8,62.3,8,62.3,8,62.3z"/>
			<path class="st8" d="M65.5,66.2c0,0.6-0.2,0.8-0.7,0.4c-0.2-0.2-0.3-0.6-0.3-1c-0.2-2.3-0.9-2.8-3.2-2.3
				c-0.6,0.1-0.8,0.4-0.8,0.9c0,0.6,0,1.2,0,1.8c0,0.4-0.1,0.7-0.6,0.7c-0.4,0-0.6-0.3-0.6-0.7c0-2.2,0-4.3,0-6.5
				c0-0.4,0.2-0.7,0.6-0.7c0.5,0,0.5,0.4,0.5,0.8c0,0.9,0.1,1.7,0.1,2.6c-0.1,0.1-0.3,0.2-0.5,0.1C60.1,62.2,60,62,60,61.8
				c0-0.6,0-1.2,0-1.5c0-0.4,0.1-0.3,0.1-0.2c-0.2,0.5,0,1.1-0.1,1.7c0,0.7,0.1,1.2,1,0.9c1,0,2.1,0,3.1,0c1,0.1,1,0.8,1,1.5
				C65.2,64.8,64.9,65.6,65.5,66.2z"/>
			<path class="st8" d="M23.5,66.8c-4.5,0-3.7,0.5-3.8-3.8c0-0.2,0-0.3,0-0.5c0-3.8,0-3.8,3.8-3.7c0.1,0.1,0.1,0.2,0.1,0.3
				c0,0.1-0.1,0.1-0.1,0.1c-0.6,0.4-1.2,0.3-1.9,0.3c-0.6,0-1.1,0.1-1.1,0.8c0,0.5,0,1.1,0,1.6c0,0.5-0.1,0.9-0.3,1.4
				c0,0.8,0,1.5,0.1,2.3c0.1,0.2,0.3-0.2,0.1,0c-0.3-0.8-0.2-1.5,0-2.3c0.2-0.1,0.4-0.1,0.5,0.1c0,2.3,0,2.3,2.7,2.4
				C23.9,66.2,23.9,66.5,23.5,66.8z"/>
			<path class="st8" d="M68.3,62.9c0,1,0,2,0,3c0,0.3,0,0.8-0.4,0.8c-0.3,0-0.5-0.3-0.5-0.6c0-2.2,0-4.4,0-6.6
				c0-0.3,0.2-0.6,0.6-0.5c0.4,0.1,0.4,0.4,0.4,0.7C68.3,60.7,68.3,61.8,68.3,62.9z"/>
			<path class="st8" d="M25.7,47.2c0.8-0.8,1.8-0.6,2.6-0.3c1.8,0.7,3.6,1.4,5.7,1.4c0,0.7-1,0.6-0.9,1.3c-1.7-0.2-3.3-0.4-4.4-2
				C28,46.7,26.7,47.4,25.7,47.2z"/>
			<path class="st8" d="M3.9,66.5c-1,0.6-2,0.3-3.1,0.3c-0.7,0-0.8-0.5-0.8-1.1c0-2,0-4,0-5.9c0-1.2,1.2-1.4,3.2-0.7
				c-2.5,0.3-2.6,2.1-2.3,4c0.1,0.7-0.5,1.6,0.5,2.1c0.9,0.2,1.8,0,2.6,0.5C4.1,66,4.1,66.3,3.9,66.5z"/>
			<path class="st8" d="M56.8,62.9c1.4,0.5,1.4,1.8,0.9,2.7c-0.7,1.3-2,1.7-3.5,1c-0.4-0.7-0.4-0.7,0.1-0.9c0.5,0.3,1,0.4,1.5,0.2
				c0.5-0.2,1.2-0.4,1.2-1.1c0-0.6-0.4-0.9-0.9-1.2c-0.4-0.3-1-0.1-1.1-0.7C55.5,61.9,56.2,62.8,56.8,62.9z"/>
			<path class="st8" d="M1.1,65.4c-0.1,0.3-0.5,1-0.6,0.3c-0.2-1.9-0.3-3.9,0-5.7c0.2-1.4,1.8-0.6,2.7-0.8c0.1,0.1,0.1,0.2,0.1,0.3
				c-0.4,0.7-1.4,0.2-1.7,1c-0.4,1.5,1,1.3,1.6,1.9c-0.1,0.9-1,0.7-1.6,0.9c-0.2,0.1-0.4,0-0.6,0.2c0.1,0.1,0.3,0.1,0.3,0.3
				C1.5,64.3,1.6,64.9,1.1,65.4z"/>
			<path class="st8" d="M13,66.2c-1.1-0.7-1.2-1.8-1.2-2.9c0-1.2,0-2.3,0-3.5c0-0.3,0-0.8,0.5-0.8c0.5,0,0.5,0.5,0.5,0.8
				c0,1,0,2,0,3c0,1.1,0.1,2.2,0.9,3.1C13.7,66.4,13.5,66.4,13,66.2z"/>
			<path class="st8" d="M17,64.4c0-1.5,0-3,0-4.5c0-0.5,0-1,0.7-1c0.5,0.1,0.6,0.6,0.5,1c-0.2,1.7,0.6,3.6-0.6,5.2
				c-0.1-0.1-0.2-0.3-0.2-0.5c0.1-1.4,0-2.8,0.1-4.1C17.1,61.6,18.1,63.1,17,64.4z"/>
			<path class="st8" d="M46.1,65.9c-1.7-2-0.7-4.3-0.9-6.5c0-0.3,0.3-0.5,0.6-0.5c0.4,0,0.6,0.4,0.6,0.7c0,0.9,0,1.9,0,2.8
				c0,1,0,2.1,0.4,3.1C46.4,65.2,46.2,65.5,46.1,65.9z"/>
			<path class="st8" d="M15.5,13.7c0.1-0.2,0.2-0.4,0.3-0.6c0.2-0.2,0.3-0.5,0.7-0.5c0.4,0.2,0.7,0.5,1,0.9c0.1,0.1,0.2,0.3,0.2,0.4
				c0,0.3-0.1,0.6-0.2,0.9c-0.1,0.4-0.3,0.7-0.7,0.9c-0.5,0.2-0.9,0.5-1.2,1c-0.1,0.1-0.2,0.2-0.4,0.3c-0.4,0-0.6-0.2-0.8-0.5
				c-0.1-0.2-0.1-0.5,0-0.8C14.9,15,15,14.3,15.5,13.7z"/>
			<path class="st8" d="M65.5,66.2c-1-0.2-0.6-0.9-0.7-1.5c-0.1-0.6,0.3-1.5-0.7-1.7c-0.2-0.4,0.2-0.5,0.3-0.7l-0.1,0
				c0.5-0.6,0.2-1.4,0.3-2.1c0.1-0.6,0.1-1,0.9-0.7C65.5,61.7,65.5,63.9,65.5,66.2z"/>
			<path class="st8" d="M13.8,35.3c1.2,1.8,2.4,3.7,3.6,5.5c-0.5-0.1-1.9-1.1-2.2-1.5c-0.3-0.9-1.4-1.4-1.7-2.4
				C13.3,36.3,12.8,35.6,13.8,35.3z"/>
			<path class="st8" d="M23.5,59.1c0-0.1,0-0.2,0-0.3c1.2,0.3,0.8,0.8,0.1,1.1c-0.5,0.2-1.1,0.2-1.7,0.2c-0.6,0-0.8,0.4-0.8,0.9
				c0,0.5,0.2,0.9,0.8,0.9c0.6,0,1.2,0,1.7,0.2c0.7,0.3,1.2,0.8-0.1,1.1c-0.1-0.1-0.3-0.3-0.4-0.4c-0.1-0.1-0.2-0.1-0.4-0.2
				c-0.4-0.1-0.9,0-1.3,0.1c-0.2,0-0.3-0.1-0.5-0.1c-0.2-0.2-0.4-0.4-0.4-0.6c-0.1-0.7-0.1-1.4,0-2.1c0.1-0.3,0.3-0.6,0.7-0.6
				c0.6,0.1,1.2,0.2,1.8,0.1C23.2,59.4,23.4,59.3,23.5,59.1z"/>
			<path class="st8" d="M43.6,65.8c-1.7,1.8-3.3,1.6-4.5-0.3c0.2-0.2,0.2-0.5,0.4-0.7c0.9,0.7,1.8,1.6,3.1,1
				C42.9,65.5,43.2,65.5,43.6,65.8z"/>
			<path class="st8" d="M39.8,59.5c1.3-1.1,2.8-0.9,3.6,0.4c0.2,0.3,0.5,0.7,0.1,1.1c-0.4,0.3-0.6-0.1-0.8-0.4
				c-0.5-0.9-1.3-1-2.3-0.7C40.1,60,40,59.7,39.8,59.5z"/>
			<path class="st8" d="M33,0.3c1-0.3,2-0.4,2.9,0.1c0.5,0.1,0.9-0.1,1.4-0.1c0.5,0,0.9,0.1,1.4,0.1c0.2,0.2,0.2,0.4,0,0.6
				C37,1,35.2,1,33.5,1C33.1,0.8,32.8,0.7,33,0.3z"/>
			<path class="st8" d="M50.7,59.4c0-0.2,0-0.5,0.3-0.5c0.5,0,0.5,0.4,0.5,0.8c0,1.6,0,3.2-0.1,4.7c-0.6,0.7-0.9,0.4-0.8-0.3
				C50.6,62.5,50.4,61,50.7,59.4z"/>
			<path class="st8" d="M30.3,59.5c0.1-0.1,0.2-0.1,0.3-0.1c0.8-0.3,1.5-0.1,2.1-0.2c-0.5-0.2-1.3,0.2-2-0.2
				c1.2-0.9,2.4-0.5,3.6,0.1c0.3,0.1,0.6,0.5,0.4,0.9c-0.2,0.4-0.6,0.4-0.9,0.2c-1.2-0.8-2.3-0.2-3.5,0C30.1,60,30.1,59.8,30.3,59.5
				z"/>
			<path class="st8" d="M54.2,59.1c1.7-0.6,3-0.2,3.5,1.1c0.1,0.3,0.2,0.6,0,0.8c-0.4,0.3-0.7,0.1-0.9-0.2c-0.7-1.1-1.5-1.3-2.6-0.5
				C53.9,59.8,53.9,59.4,54.2,59.1z"/>
			<path class="st8" d="M33.8,66.5c-1.6,0.9-3,0.6-4.3-0.6c0.1-0.4,0.6-0.2,0.8-0.4c1,0.2,2.1,0.6,3.2,0.3
				C33.7,65.9,34,66.1,33.8,66.5z"/>
			<path class="st8" d="M22.5,27.5c-0.6-2.9-0.5-5.7,0.4-8.5c0.1,1.3,0.4,2.5-0.2,3.9C22.1,24.2,22.5,25.9,22.5,27.5z"/>
			<path class="st8" d="M43.6,49.6c-1.5,1-3.3,1-5.1,1.2c1.3-1.3,3.1-1,4.6-1.5C43.3,49.2,43.5,49.3,43.6,49.6z"/>
			<path class="st8" d="M10.9,28.5c-0.3-1.5-0.4-3.1-0.4-4.6c0-0.6-0.2-1.3,0.7-1.5c0.7,0.7,0.4,1.6,0.4,2.4c0,0.8,0,1.6,0,2.4
				c0,0.4,0,0.8-0.2,1.2C11.3,28.6,11.1,28.6,10.9,28.5z"/>
			<path class="st8" d="M39.8,59.5c0.2,0.1,0.4,0.2,0.6,0.3c-0.5,0.7-0.5,1.4,0.1,2.1c0.2,0.6,0.2,1-0.6,0.7
				C38.5,61.3,38.4,60.7,39.8,59.5z"/>
			<path class="st8" d="M50.7,65.8c-1.1,1.3-2.4,1.5-3.9,0.7c-0.1-0.4,0.1-0.5,0.4-0.7c1.1,0.2,2.1-0.1,3.1-0.5
				C50.5,65.4,50.7,65.6,50.7,65.8z"/>
			<path class="st8" d="M23,18.7c-0.1,0-0.3,0-0.4-0.1c-0.6-0.7-0.2-1.3,0.3-1.9c0.7-0.7,1-1.7,2-2.1c0.5,0,0.9,0.2,0.5,0.8
				C24.5,16.5,23.6,17.4,23,18.7z"/>
			<path class="st8" d="M54.2,59.1c0,0.4,0,0.8,0,1.1c0,0.4,0,0.9,0,1.3c0.1,0.4-0.1,0.6-0.5,0.4C52.4,61.3,52.5,60.2,54.2,59.1z"/>
			<path class="st8" d="M29.6,60.9c-0.5,1.3-0.4,2.6,0,3.9c-0.4-0.1-0.6,0-0.7,0.4c-1.1-1.6-1.1-3.1,0-4.7
				C29,60.8,29.1,61.1,29.6,60.9z"/>
			<path class="st8" d="M3.9,66.5c0-0.2,0-0.5,0-0.7c-0.1-0.7-0.1-1.5,0-2.3c0-0.2,0.1-0.3,0.2-0.5c0.1,0,0.1-0.1,0.2-0.1
				C6,64,5.8,65.4,3.9,66.5z"/>
			<path class="st8" d="M13,66.2c0.2-0.1,0.5-0.2,0.7-0.3c0.8,0,1.6,0,2.4,0c0.3-0.2,0.6-0.2,0.8,0C15.9,67.3,14.8,67.4,13,66.2z"/>
			<path class="st8" d="M13.8,35.3c-0.6,1.1,0,1.8,0.7,2.6c0.3,0.4,1,0.7,0.7,1.4c-1.6-1.2-2.5-2.8-2.9-4.7c0.1-0.1,0.2-0.2,0.4-0.2
				c0.4,0.2,0.4,0.6,0.8,0.8C13.6,35.1,13.7,35.1,13.8,35.3z"/>
			<path class="st8" d="M34.5,1.8c1.5,0.1,3.1-0.4,4.6,0.3c-0.6,0.7-1.4,0.1-2.2,0.2c0.5,0.1,1-0.1,0.8,0.6
				c-0.4,0.3-0.9,0.3-1.3,0.4c-0.5,0-1,0-1.4-0.2C34.5,2.7,34.1,2.4,34.5,1.8z"/>
			<path class="st8" d="M11.3,25c0-0.9,0-1.7,0-2.6l0-0.1c-0.1-0.2-0.1-0.4,0-0.5c0.4-0.2,0.7-0.2,1.1,0.1c-0.1,1.1-0.2,2.1-0.3,3.2
				C11.8,25.2,11.5,25.2,11.3,25z"/>
			<path class="st8" d="M34,51c1.2-0.5,2.5-0.6,4.3-0.6C36.6,51.4,35.4,51.6,34,51z"/>
			<path class="st8" d="M50.7,65.8c-0.1-0.2-0.3-0.3-0.4-0.5c0.1-2,0.3-3.9,0.4-5.9c0,1.5,0.1,2.9,0.1,4.4c0,0.5,0,0.9,0.6,0.6
				C51.5,65,51.2,65.5,50.7,65.8z"/>
			<path class="st8" d="M28.5,3.5c0.9-0.7,2.1-0.7,3.2-1.2c0.1,0.1,0.1,0.1,0.2,0.2c0.1,0.2,0.1,0.5,0,0.7c-0.1,0.2-0.3,0.4-0.5,0.6
				c-0.3,0.3-0.7,0.4-1.1,0.4c-0.4,0-0.8,0-1.2-0.1C28.7,4,28.6,3.8,28.5,3.5z"/>
			<path class="st8" d="M64.4,62.2c-0.1,0.2-0.2,0.5-0.3,0.7c-1.2,0-2.4,0-3.6,0c-0.2-0.2-0.5-0.3-0.3-0.7c0.1,0,0.3,0,0.4-0.1
				C61.9,62.2,63.1,62.2,64.4,62.2z"/>
			<path class="st8" d="M37.7,2.8c-0.2-0.4-0.7-0.2-1.2-0.7c1,0,1.9,0,2.7,0c0.4,0,0.8,0.1,1.1-0.4c0.2-0.2,0.5-0.2,0.7,0
				c0,0.8-0.6,0.7-1.1,0.8c-0.4,0.3-0.6,0.9-1.2,0.9c-0.2,0-0.4-0.1-0.6-0.2C37.8,3.1,37.7,2.9,37.7,2.8z"/>
			<path class="st8" d="M39.9,62.6c0.5,0,0.6-0.3,0.6-0.7c0.8,0.3,1.7,0.4,2.3,1.1c-0.2,0.2-0.4,0.5-0.6,0.8
				C41.4,63.4,40.5,63.3,39.9,62.6z"/>
			<path class="st8" d="M3.5,59.5c1.6,0.4,1.9,1.4,0.7,2.8c-0.2-0.3-0.1-0.5,0-0.8C4.1,61.7,4,62,3.7,62.1c-0.2,0-0.3-0.1-0.4-0.3
				c-0.3-0.6-0.3-1.2-0.1-1.9C3.3,59.8,3.4,59.6,3.5,59.5z"/>
			<path class="st8" d="M12.3,21.8c-0.3,0-0.7,0-1,0c-0.3-0.5,0.1-0.9,0.1-1.3c-0.1-0.4,0.1-0.8,0.1-1.1c0-0.2,0.1-0.5,0.2-0.7
				c0.1-0.1,0.2-0.3,0.3-0.3c0.2,0.2,0.4,0.5,0.6,0.7c0.4,0.3,0.3,0.7,0.1,1.1l0,0C12.2,20.6,12.8,21.3,12.3,21.8L12.3,21.8z"/>
			<path class="st8" d="M36.3,49.6c0.3-1.1,1.2-1.3,2.1-1.4c0.4,0.3,0.7,0.5,0.3,1C37.9,49.5,37.1,49.8,36.3,49.6z"/>
			<path class="st8" d="M51.8,32.4c-1,0-2.3,0.6-2.6-1.1c0,0-0.4,0-0.6,0c0-0.8,0.9-0.9,1-0.5C50,31.8,51.2,31.7,51.8,32.4z"/>
			<path class="st8" d="M23.3,62.6c0.4,0.1,0.3,0.4,0.2,0.7c-0.9,0-1.8,0.1-2.7,0.1c-0.2,0-0.3,0-0.5-0.1c-0.1,0.2-0.2,0.2-0.3,0
				c0-0.4,0-0.9,0-1.3c0.4-0.2,0.5,0.2,0.7,0.3c0.1,0.1,0.3,0.2,0.4,0.3C21.9,62.9,22.6,62.5,23.3,62.6z"/>
			<path class="st8" d="M17,64.4c0.6-0.7,0.2-1.6,0.3-2.4c0.1-0.8-0.1-1.6,0.3-2.6c0,2,0,3.7,0,5.4c-0.2,0.1-0.4,0.1-0.6-0.1
				C16.9,64.6,17,64.5,17,64.4z"/>
			<path class="st8" d="M12,18.3c0,0.1-0.1,0.2-0.1,0.3c-0.2,0.3-0.4,0.2-0.7,0.1c-0.2-1.2,0.7-2.2,1-3.2c0.5,0.4,0,1,0.4,1.5
				C12.4,17.3,12.2,17.8,12,18.3z"/>
			<path class="st8" d="M34.5,1.8c0.1,0.3,0.2,0.7,0.3,1c0.3,0.3,0.2,0.6-0.1,0.9c-0.4,0.2-0.8,0.2-1.2,0.3
				c-0.1-0.1-0.2-0.2-0.3-0.4c-0.1-0.2-0.1-0.5,0-0.7c0.1-0.3,0-0.6-0.1-0.8C33.5,1.6,34,1.8,34.5,1.8z"/>
			<path class="st8" d="M38.7,49.2c-0.1-0.3-0.2-0.7-0.3-1c0.3,0,0.7,0,1,0c0.6,0.2,0.9-0.4,1.3-0.5c0.5,0.1,0.8,0.3,0.4,0.8
				C40.5,49.1,39.6,49.1,38.7,49.2z"/>
			<path class="st8" d="M41.6,46.8c0.6,0.1,1.2,0.4,1.8,0c0.3,0.3,0.3,0.7,0,1c-0.4,0.1-0.7,0.2-1.1,0.3
				C42,47.8,40.3,48.1,41.6,46.8z"/>
			<path class="st8" d="M53.7,62c0.2-0.1,0.3-0.3,0.5-0.4c0.9,0.5,1.7,0.9,2.6,1.4c-0.6,0.1-1.3-0.5-1.9,0
				C54.6,62.6,53.8,62.7,53.7,62z"/>
			<path class="st8" d="M54.3,65.8c-0.5,0.2-0.1,0.6-0.1,0.9c-0.2-0.1-0.4-0.2-0.6-0.4c-0.3-0.4-0.7-0.7-0.7-1.3
				c0-0.3,0.3-0.4,0.5-0.3C54,64.7,54,65.3,54.3,65.8z"/>
			<path class="st8" d="M20.4,7.7c0,0.9-0.5,1.3-1.2,1.6c0,0-0.4-0.3-0.3-0.5C19,7.8,19.8,8,20.4,7.7z"/>
			<path class="st8" d="M28.5,3.5c0.1,0.1,0.2,0.3,0.3,0.4c0.1,0.6-0.4,0.7-0.8,0.9C27.7,5,27.2,5,26.8,4.7c-0.1-0.1-0.2-0.3,0-0.5
				C27.3,3.8,27.9,3.5,28.5,3.5z"/>
			<path class="st8" d="M42.2,63.8c-0.3-0.7,0.1-0.8,0.6-0.8c0.3,0.4,0.6,0.9,0.8,1.3c0.1,0.7-0.3,0.6-0.7,0.4
				C42.9,64.3,42.4,64.1,42.2,63.8z"/>
			<path class="st8" d="M41.6,46.8c-0.7,0.9,0.6,0.9,0.7,1.4c-0.4,0.1-0.7,0.2-1.1,0.2c0-0.5-0.3-0.6-0.7-0.6
				c-0.2,0.2-0.5,0.2-0.7,0C40.3,47.5,40.8,46.8,41.6,46.8z"/>
			<path class="st8" d="M65.5,59.5c-0.9,0.1-0.6,0.8-0.7,1.3c-0.1,0.5,0.2,1.2-0.5,1.5c0.1-0.9,0.1-1.8,0.2-2.7
				c0-0.3,0.1-0.7,0.6-0.7C65.5,58.9,65.6,59.2,65.5,59.5z"/>
			<path class="st8" d="M27.5,6.7c-0.4,0.3-0.8,0.7-1.4,0.6c-0.1,0-0.2-0.1-0.2-0.3c0.3-0.4,0.6-0.7,0.9-1.1
				c0.1-0.1,0.3-0.2,0.4-0.2c0.2,0,0.3,0.1,0.4,0.3C27.7,6.3,27.7,6.5,27.5,6.7z"/>
			<path class="st8" d="M33,0.3c0.1,0.2,0.3,0.5,0.4,0.7c-0.8,0-1.6,0.4-2.4-0.5C31.8,0.4,32.4,0.3,33,0.3z"/>
			<path class="st8" d="M46.5,48.2c-0.5,0.5-1.1,0.8-1.8,1c-0.2-0.2-0.6,0-0.7-0.4c0.6-0.5,1.2-0.8,1.9-1
				C46,48.1,46.3,47.9,46.5,48.2z"/>
			<path class="st8" d="M3.5,61.9c0.1,0,0.3,0,0.4,0c0.2,0.1,0.2,0.3,0.1,0.5C4,62.6,4.2,62.8,4.3,63l-0.1,0
				c-0.9,0.6-1.8,0.7-2.8-0.1c0.4-0.6,1.4,0.1,1.7-0.8C3.2,62,3.3,61.9,3.5,61.9z"/>
			<path class="st8" d="M18,10.9c0.1,0.5,0.2,0.9,0.4,1.4c-0.1,0-0.1,0.1-0.2,0.1c-0.5,0.1-0.9,0.1-1.3-0.1
				c-0.2-0.2-0.4-0.4-0.3-0.8c0.1-0.1,0.2-0.2,0.3-0.3C17.2,11,17.5,10.7,18,10.9z"/>
			<path class="st8" d="M19.8,12.3c-0.1,0.7-0.8,0.9-1.1,1.4c-0.2,0.2-0.5,0.2-0.7,0.1c-0.3-0.8,0.4-1,0.7-1.5
				c0.1-0.1,0.2-0.2,0.4-0.3C19.4,11.8,19.7,12,19.8,12.3z"/>
			<path class="st8" d="M27.1,6c-0.1,0-0.2,0-0.4,0c0-0.3-0.1-0.6-0.3-0.8c-0.1-0.4,0.1-0.7,0.4-0.8c0.4,0.1,0.9,0.1,1.3,0.2
				c0.7,0,0.4,0.4,0.2,0.6C28.1,5.7,27.5,5.6,27.1,6z"/>
			<path class="st8" d="M11.6,33.5c-0.3-0.7-0.2-1.5-0.6-2.2c0.2-0.2,0.5-0.2,0.7-0.2c0.8,0.4,0.5,1.2,0.7,1.9
				C12.3,33.4,12,33.5,11.6,33.5z"/>
			<path class="st8" d="M12.7,20.1c0-0.4-0.1-0.8-0.1-1.1c0.4-0.8,0.4-1.8,1.1-2.4c0.1,0.1,0.1,0.1,0.1,0.2c0,0.1,0,0.1,0,0.1
				C13.4,18,13.1,19,12.7,20.1z"/>
			<path class="st8" d="M25.3,15.4c0-0.4-0.2-0.7-0.7-0.6c-0.1-0.1-0.1-0.3,0-0.5c0.2-0.3,0.4-0.5,0.7-0.6c0.2,0,0.5,0,0.7,0
				c0.4,0.1,0.7,0.2,1,0.6C26.5,14.7,25.9,15.1,25.3,15.4z"/>
			<path class="st8" d="M25.9,7.1c0.1,0.1,0.1,0.2,0.2,0.3c-0.5,0.7-1.2,1.1-2.1,0.8C24.4,7.4,25.1,7.2,25.9,7.1z"/>
			<path class="st8" d="M29.6,60.9c-0.5,0.3-0.7,0.1-0.7-0.4c0.3-0.5,0.6-1.2,1.4-1c0,0.2,0,0.4,0,0.7C30,60.4,29.8,60.6,29.6,60.9z
				"/>
			<path class="st8" d="M22.5,9.5c-0.1,1-1,1.2-1.8,1.6C20.9,10,21.7,9.7,22.5,9.5z"/>
			<path class="st8" d="M46.5,46.8c0.7,0.2,1.4,0.4,2.1,0c-0.3,0.6-0.7,1-1.4,1.1c-0.2-0.2-0.6-0.1-0.7-0.4
				C46.5,47.2,46.5,47,46.5,46.8z"/>
			<path class="st8" d="M15.5,13.7c0.1,0.8-0.3,1.5-0.7,2.2c-0.3-0.2-0.4-0.4-0.4-0.7C14.7,14.5,14.5,13.7,15.5,13.7z"/>
			<path class="st8" d="M10.9,28.5c0.1,0,0.2,0,0.4,0c1.1,0.1,1.1,0.2,0.5,1.7c-0.2,0.1-0.3,0.1-0.5,0
				C11.2,29.6,10.8,29.1,10.9,28.5z"/>
			<path class="st8" d="M14.5,15.1c0.3,0.2,0.3,0.4,0.4,0.7c0,0.2,0,0.4,0,0.7c0,0.2-0.2,0.3-0.4,0.4c-0.2,0-0.4,0-0.6,0
				c0-0.1-0.1-0.2-0.1-0.4C14,16.1,14.2,15.6,14.5,15.1z"/>
			<path class="st8" d="M26.9,4.4c-0.1,0.3-0.3,0.5-0.4,0.8c-0.4,0-0.7,0-1.1,0c-0.2,0-0.3-0.1-0.3-0.3c0.5-0.5,1.1-0.6,1.7-0.7
				C26.8,4.3,26.9,4.3,26.9,4.4z"/>
			<path class="st8" d="M40.9,1.7c-0.2,0-0.5,0-0.7,0c-0.1-0.1-0.3-0.3-0.4-0.4c-0.2-0.2-0.2-0.4,0-0.6c0.6,0.1,1.3-0.3,1.8,0.3
				C41.2,1.1,40.8,1.2,40.9,1.7z"/>
			<path class="st8" d="M43,64.8c0.3,0,0.6-0.1,0.7-0.4c0.4,0.5,0.1,1-0.1,1.4c-0.3,0-0.7,0-1,0C42.5,65.4,42.7,65.1,43,64.8z"/>
			<path class="st8" d="M27.1,14.4c-0.4,0-0.8,0-1-0.3c0.1-0.9,0.7-1,1.4-0.8c0.2,0.2,0.3,0.3,0.5,0.5C27.6,14,27.3,14.2,27.1,14.4z
				"/>
			<path class="st8" d="M28.9,65.2c0-0.5,0.3-0.6,0.7-0.4c0.2,0.2,0.5,0.5,0.7,0.7c-0.1,0.4-0.5,0.3-0.8,0.4
				C29.3,65.6,29.1,65.4,28.9,65.2z"/>
			<path class="st8" d="M33,51.2c-0.5,0.4-0.9,0.1-1.1-0.3c0-0.1,0.1-0.4,0.2-0.4C32.4,50.5,32.9,50.6,33,51.2z"/>
			<ellipse class="st8" cx="23.1" cy="24.1" rx="0.1" ry="1.7"/>
			<path class="st8" d="M33.1,2.1c0.3,0,0.7,0,0.8,0.2c0.2,0.3-0.2,0.5-0.4,0.6c-0.3,0-0.6,0-0.9,0c-0.3,0-0.6-0.1-0.9-0.3
				c0-0.1,0-0.2,0-0.2C32.1,2,32.6,2.2,33.1,2.1z"/>
			<path class="st8" d="M3.5,59.5c0,0.1,0,0.3,0,0.4c-0.8,0.5-1.6,0.6-2.4,0.4c0.4-1.4,1.5-0.5,2.2-0.8C3.4,59.4,3.5,59.4,3.5,59.5z
				"/>
			<path class="st8" d="M30.7,59.2c0.8,0,1.6,0,2.4,0c0,0.1,0,0.2,0,0.3c-0.8,0-1.7,0-2.5,0C30.6,59.3,30.6,59.2,30.7,59.2z"/>
			<path class="st8" d="M33.8,66.5c-0.1-0.2-0.3-0.5-0.4-0.7c0.4,0,0.7-0.9,1.1-0.3C34.9,66.1,34.4,66.4,33.8,66.5z"/>
			<path class="st8" d="M19.8,12.3c-0.3-0.1-0.5-0.2-0.8-0.3c0.6-0.3,1.2-0.6,1.7-0.9C20.7,11.7,20.3,12,19.8,12.3z"/>
			<path class="st8" d="M16.6,11.6c0.1,0.2,0.2,0.5,0.4,0.7c0.1,0.3,0,0.4-0.3,0.4c-0.2,0.1-0.5,0.2-0.7,0.4
				C15.8,12.4,15.9,11.9,16.6,11.6z"/>
			<path class="st8" d="M39.8,0.7c0,0.2,0,0.4,0,0.6c-0.4,0.2-0.7-0.1-1-0.3c0-0.2,0-0.4,0-0.6C39.1,0.4,39.6,0.2,39.8,0.7z"/>
			<path class="st8" d="M24.8,18.2c0.1,0.4,0,0.6-0.3,0.7c-0.3,0.1-0.5,0-0.5-0.3c0-0.3,0.1-0.6,0.4-0.7
				C24.5,17.8,24.7,18.1,24.8,18.2z"/>
			<path class="st8" d="M12,19.4c-0.1,0.3-0.2,0.7-0.3,1c-0.1,0.2-0.3,0.2-0.4,0.1c-0.4-0.3-0.3-0.7-0.3-1.1
				C11.3,19.1,11.6,19.1,12,19.4z"/>
			<path class="st8" d="M11.6,33.5c0.1-0.3,0.4-0.4,0.7-0.4c0.4,0.4,0.5,0.9,0.4,1.4c-0.1,0-0.3,0-0.4,0
				C11.9,34.2,11.7,33.9,11.6,33.5z"/>
			<path class="st8" d="M43.3,47.9c0-0.3,0-0.7,0-1c0.5,0.1,0.9,0.2,1.4,0.3C44.4,47.7,43.9,47.8,43.3,47.9z"/>
			<path class="st8" d="M3.9,62.4c0-0.2,0-0.3-0.1-0.5c0.2-0.5,0.4-1,0-1.8c1,0.9,0.4,1.5,0.3,2.2C4.1,62.3,4,62.3,3.9,62.4z"/>
			<path class="st8" d="M16.9,64.8c0.2,0,0.4,0,0.6,0.1c0,0.1,0,0.2,0,0.2c-0.3,0.2-0.2,0.7-0.6,0.8c-0.3,0-0.5,0-0.8,0
				C16.4,65.5,16.7,65.1,16.9,64.8z"/>
			<path class="st8" d="M47.2,65.8c-0.1,0.2-0.2,0.4-0.4,0.7c-0.4,0-0.6-0.3-0.7-0.6c0-0.5,0.3-0.7,0.7-0.4
				C46.9,65.6,47.1,65.7,47.2,65.8z"/>
			<path class="st8" d="M37.3,0.3c-0.4,0.5-0.9,0.5-1.4,0.1C36.4,0.2,36.8-0.3,37.3,0.3z"/>
			<path class="st8" d="M24.3,6c-0.4,0.1-0.7,0.2-1.2,0.3c0-0.6,0.5-0.8,0.8-1C24.6,5.3,24.6,5.6,24.3,6z"/>
			<path class="st8" d="M24.3,6c0-0.3-0.1-0.5-0.3-0.7c0.2-0.6,0.8,0.1,1.1-0.4c0.1,0.1,0.2,0.2,0.3,0.3C25.1,5.7,24.7,5.8,24.3,6z"
				/>
			<path class="st8" d="M12.6,16.9c-0.5-0.4-0.2-1-0.4-1.5c0-0.1,0-0.2,0-0.3c0.2-0.2,0.5-0.2,0.7,0C12.9,15.7,12.8,16.3,12.6,16.9z
				"/>
			<path class="st8" d="M11.2,20.5c0.1,0,0.3,0,0.4-0.1c0.1,0.5-0.1,1-0.3,1.4c0,0.2,0,0.3,0,0.5C10.6,21.7,10.9,21.1,11.2,20.5z"/>
			<path class="st8" d="M18,10.9c-0.4,0.1-0.7,0.2-1.1,0.4c0-0.4,0.1-0.7,0.4-0.8C17.7,10.3,17.8,10.6,18,10.9z"/>
			<path class="st8" d="M14.5,11.7c-0.3,0-0.3-0.2-0.2-0.3c0.1-0.2,0.3-0.2,0.5-0.4c0.1,0.1,0.2,0.3,0.2,0.3
				C14.8,11.5,14.6,11.6,14.5,11.7z"/>
			<path class="st8" d="M18.7,12.3c0.3,0.8-0.4,1-0.8,1.4c-0.1,0.1-0.1,0.2-0.3,0.1l-0.1-0.1c-0.4-0.8,0.5-0.9,0.8-1.3l0,0
				C18.4,12.3,18.6,12.3,18.7,12.3z"/>
			<path class="st8" d="M39.4,64.8c0.1,0.3,0.2,0.5,0.3,0.8c-0.2,0-0.4-0.1-0.6-0.1C38.7,65,38.6,64.6,39.4,64.8z"/>
			<path class="st8" d="M43.9,48.9c0.2,0.1,0.5,0.2,0.7,0.4c-0.4,0.1-0.7,0.2-1.1,0.4c-0.2-0.1-0.3-0.2-0.5-0.3
				C43.3,48.9,43.6,49,43.9,48.9z"/>
			<path class="st8" d="M12,19.4c-0.3,0-0.7,0-1-0.1c0-0.3,0.1-0.6,0.4-0.7c0.2,0,0.4,0,0.7,0C12,18.9,12,19.1,12,19.4z"/>
			<path class="st8" d="M46.5,47.5c0.3,0.1,0.6,0,0.7,0.4c-0.2,0.1-0.5,0.2-0.7,0.3c-0.2-0.1-0.5-0.2-0.7-0.3
				C46,47.8,46.2,47.6,46.5,47.5z"/>
			<path class="st8" d="M11.3,30.2c0.1,0,0.2,0.1,0.3,0.1c0.1,0.1,0.2,0.2,0.3,0.4c0,0.2,0,0.5-0.3,0.6c-0.2,0-0.4,0-0.6,0
				C10.9,30.9,10.8,30.5,11.3,30.2z"/>
			<path class="st8" d="M36.9,38c0.4,0,0.8,0.1,1.6,0.2c-1.1,0.2-1.7,0.4-2.2-0.2C36.5,38,36.7,38,36.9,38z"/>
			<path class="st8" d="M19,7.2c-0.2,0.2-0.4,0.4-0.5,0.3c-0.2-0.1-0.3-0.3-0.4-0.5c0,0,0.2-0.3,0.3-0.3C18.6,6.9,18.7,7,19,7.2z"/>
			<path class="st8" d="M23.5,66.8c0-0.3,0-0.6,0-1c0.4-0.1,0.7,0.1,0.7,0.5C24.2,66.7,23.9,66.9,23.5,66.8z"/>
			<path class="st8" d="M13,15.1c-0.2,0-0.5,0-0.7,0c0-0.3,0.1-0.8,0.5-0.8C13.2,14.4,13,14.9,13,15.1z"/>
			<path class="st8" d="M30.3,50.7c-0.4-0.2-0.5-0.5-0.4-0.8c0,0,0.2,0,0.3,0.1C30.2,50.1,30.2,50.4,30.3,50.7z"/>
			<path class="st8" d="M45,47.1c0.5-0.2,0.9-0.8,1.5-0.3C46,47,45.6,47.3,45,47.1z"/>
			<path class="st8" d="M11.6,31.3c0-0.2,0.1-0.4,0.1-0.7c0.2-0.2,0.4-0.2,0.6,0c0.4,1.5,0.8,3,1.2,4.6c-0.5,0-0.8-0.2-0.8-0.7
				c-0.2-0.4-0.5-0.9-0.4-1.4C11.9,32.6,12.2,31.7,11.6,31.3z"/>
			<path class="st8" d="M21.5,19c-0.2,0.8-0.4,1.5-1.2,0.4c-0.3-0.5-0.6-1-0.9-1.5c0.3-0.4,0.5-0.8,0.7-1.2c0.1-0.2,0.3-0.3,0.6-0.4
				c0.2,0,0.3,0,0.4,0.1c0.2,0.3,0.1,0.7,0.1,1.1C21.2,17.8,21,18,21,18.2C21,18.6,21.2,18.8,21.5,19z"/>
			<path class="st8" d="M12.3,30.6c-0.2,0-0.4,0-0.6,0c0-0.1-0.1-0.2-0.1-0.3c-0.2-0.6,1.1-1.5-0.3-1.9c0-0.4,0-0.7,0.1-1.1
				c0.2-0.2,0-0.9,0.7-0.7C12,28.1,12.7,29.3,12.3,30.6z"/>
			<path class="st8" d="M12,26.8c-0.2,0.2-0.5,0.4-0.7,0.7c0-0.8,0-1.6,0-2.4c0.2,0,0.5,0,0.7,0C12,25.6,12,26.2,12,26.8z"/>
			<path class="st8" d="M20.4,16.9c-0.2,0.5-0.3,1.1-1,1.1c-0.1-0.3-0.4-0.3-0.7-0.3c0-0.1-0.1-0.1-0.1-0.2c0-0.4,0.3-0.7,0.7-0.9
				c0.1-0.1,0.3-0.1,0.5-0.2C20,16.3,20.3,16.5,20.4,16.9z"/>
			<path class="st8" d="M17.3,19.4c-0.4,0.4-0.8,0.7-1.4,0.8c0.1-0.7,0.2-1.3,0.3-1.9c-0.1-0.1-0.1-0.2-0.1-0.3
				c0-0.1,0.1-0.1,0.1-0.1c0.7,0,0.7,0.8,1.1,1.1C17.4,19.1,17.4,19.3,17.3,19.4z"/>
			<path class="st8" d="M16.2,18c0,0.1,0,0.2,0,0.3c-0.7,0-0.8-0.4-0.8-0.9c-0.1-0.2-0.1-0.4,0-0.6c0-0.1,0-0.2,0-0.3
				c0.4-0.2,0.6,0,0.8,0.3c0.1,0.2,0.2,0.5,0.1,0.7C16.4,17.7,16.3,17.9,16.2,18z"/>
			<path class="st8" d="M17.3,19.4c0-0.1,0-0.3,0-0.4c-0.2-1.1,0-1.8,1.4-1.4l0.1,0.1C17.9,18,18,19,17.3,19.4z"/>
			<path class="st8" d="M21.5,19c-1.1,0.4-0.9-0.4-1-1c0.7-0.3,1.1-0.1,1,0.7C21.5,18.8,21.5,18.9,21.5,19z"/>
			<path class="st8" d="M15.5,16.8c0,0.2,0,0.4,0,0.6c-0.4,0-1,0.3-1-0.5c0.1-0.1,0.2-0.2,0.4-0.4C15,16.6,15.3,16.7,15.5,16.8z"/>
			<path class="st8" d="M23.2,16.8c-0.4,0.5-0.8,1.1-0.7,1.8c-0.1,0-0.2,0-0.3,0c-0.1-0.1-0.2-0.3-0.3-0.4c-0.1-0.4-0.1-0.9,0.1-1.3
				c0.1-0.1,0.3-0.2,0.4-0.3C22.7,16.6,23,16.6,23.2,16.8z"/>
			<path class="st8" d="M22.2,18.3c0,0.1,0,0.2,0,0.3c-0.2,0-0.5,0-0.7,0c-0.2-0.4-0.5-0.7-1-0.7c0.1-0.3,0.4-0.4,0.7-0.4
				C21.8,17.3,21.9,18,22.2,18.3z"/>
			<path class="st8" d="M39.7,47.8c0.2,0,0.5,0,0.7,0c0,0.2,0.1,0.6,0.1,0.6c-0.4,0.2-0.8,0.1-1.1-0.3C39.5,48.1,39.6,48,39.7,47.8z
				"/>
			<path class="st8" d="M12.3,21.8c0.1-0.6-0.3-1.3,0.4-1.7C12.6,20.7,12.9,21.3,12.3,21.8z"/>
			<path class="st8" d="M28.6,7.4C28.8,7.3,29,7.1,29.2,7c0.4-0.3,1-0.6,0-0.9c-0.2-0.1-0.4-0.3-0.4-0.6C29,4.9,29.6,4.8,30,4.5
				c0.8-0.3,1.6-0.7,2.4,0c-0.9,0.6-0.6,1.4-0.3,2.2c0,0.5-0.4,0.7-0.8,0.9c-0.5,0.2-1,0-1.4,0.3c-0.2,0.1-0.5,0.2-0.7,0.1
				C28.9,8,28.5,7.9,28.6,7.4z"/>
			<path class="st8" d="M33.5,3.9c0.4-0.1,0.7-0.2,1.1-0.4c0.6,0.2,1.1-0.2,1.7-0.3c0.5-0.3,1.2-0.1,1.7-0.3
				c0.2,0.1,0.3,0.2,0.5,0.3c0.2,0.2,0.2,0.5-0.1,0.6c-1.8,0.7-3.7,0.3-5.6,0.4C32.7,3.6,33,3.6,33.5,3.9z"/>
			<path class="st8" d="M33.5,3.9c-0.3,0-0.6,0.1-0.7,0.4c-0.1,0.1-0.2,0.2-0.4,0.3C31.5,4.5,30.8,4.9,30,5c-0.3-0.5,0-0.8,0.3-1.2
				c0.3-0.1,0.7-0.3,1-0.4c0.7-0.3,1.4-0.6,2.1,0.1C33.4,3.7,33.4,3.8,33.5,3.9z"/>
			<path class="st8" d="M27.4,13.3c-0.5,0.1-1,0.4-1.4,0.8c-0.2,0-0.5,0-0.7-0.1C25,13.7,25,13.4,25.1,13c0.1-0.4,0.4-0.7,0.8-0.8
				c0.4,0,0.9,0,1.3-0.1c0.3,0.1,0.6,0.2,0.7,0.6C27.7,12.9,27.6,13.1,27.4,13.3z"/>
			<path class="st8" d="M38.3,3.8c0-0.2,0.1-0.4,0.1-0.6c0.6,0,0.7-0.8,1.4-0.7c0,0.8,1,0.4,1.3,1.2C40.1,4,39.2,3.8,38.3,3.8z"/>
			<path class="st8" d="M31.3,7.3c0.3-0.2,0.6-0.4,0.9-0.6c0.5,0,0.9-0.1,1.3-0.4c0.3-0.3,0.7-0.2,1-0.1c0.3,0.4-0.1,0.6-0.3,0.8
				c-0.6,0.4-1.4,0.3-2.1,0.4c-0.1,0.1-0.3,0.1-0.4,0.1C31.5,7.6,31.3,7.5,31.3,7.3z"/>
			<path class="st8" d="M25.7,11.2c0.5-0.9,1.3-1.6,2.2-2c0.8,1.3-0.7,1.2-1.1,1.7c-0.2,0.3-0.4,0.4-0.7,0.5
				C25.9,11.4,25.8,11.3,25.7,11.2z"/>
			<path class="st8" d="M27.9,12.7c-0.3-0.1-0.5-0.2-0.8-0.4c-0.2-0.6,0.6-0.6,0.7-1c0.5,0.2,1,0.2,1.4,0.6
				C28.9,12.5,28.2,12.3,27.9,12.7z"/>
			<path class="st8" d="M34.2,7.1c0.1-0.2,0.2-0.4,0.4-0.7c0.6-0.4,1.2-0.4,1.7,0C35.8,7.5,34.9,7,34.2,7.1z"/>
			<path class="st8" d="M29.3,7.8c0.2,0,0.4-0.1,0.7-0.1c0.3-0.2,0.4,0,0.3,0.3c-0.5,0.4-1,0.8-1.7,0.8c-0.1-0.1-0.2-0.2-0.4-0.4
				C28.1,7.5,29,8.2,29.3,7.8z"/>
			<path class="st8" d="M27.8,11.3c0.1,0.5-0.6,0.6-0.7,1c-0.3,0.2-0.7,0.3-1,0c-0.3-0.4,0-0.6,0.3-0.8c0.3-0.1,0.5-0.1,0.7,0.1
				C27.3,11.5,27.6,11.4,27.8,11.3z"/>
			<path class="st8" d="M36.3,6.4c-0.6,0-1.2,0-1.7,0c-0.4,0-0.7,0-1.1-0.1C34.4,5.8,35.3,5.7,36.3,6.4z"/>
			<path class="st8" d="M27.1,11.6c-0.2,0-0.5,0-0.7,0.1c-0.4,0.1-0.4,0-0.4-0.4c0.2-0.1,0.5-0.2,0.7-0.3C27,11,27.1,11.3,27.1,11.6
				z"/>
			<path class="st8" d="M35.8,11.7c0.5-0.6,1.2-0.4,1.8-0.1C37.1,11.6,36.5,11.6,35.8,11.7C35.9,11.7,35.8,11.7,35.8,11.7z"/>
			<path class="st8" d="M30.2,8c-0.1-0.1-0.2-0.2-0.3-0.3c0.4-0.4,0.9-0.4,1.4-0.3c0.1,0,0.2,0,0.3,0c0.2,0.9-0.8,0.3-1,0.7
				C30.5,8.1,30.4,8,30.2,8z"/>
			<path class="st8" d="M30.6,8.1c0.2-0.4,0.9-0.1,1-0.7c0.2,0,0.3,0.1,0.5,0.1C31.9,8.3,31.2,8,30.6,8.1z"/>
			<path class="st8" d="M33,10.6c-0.2-0.1-0.3-0.2-0.4-0.3c0.1-0.1,0.2-0.3,0.3-0.3c0.1,0,0.2,0.1,0.4,0.2
				C33.2,10.3,33.2,10.4,33,10.6z"/>
			<path class="st8" d="M56.9,13.9c-0.4-0.4-0.2-0.8-0.3-1.5C57.1,13,57,13.4,56.9,13.9z"/>
			<path class="st8" d="M18.6,17.6c-1-0.1-1,0.9-1.4,1.4c-1.3,0.6-0.4-1-1-1c0-0.1,0-0.3,0-0.4c0.5-0.5,0.3-1.4,1-1.8
				c0.2,0,0.3,0,0.4,0.1c0.1,0.4-0.2,0.9,0.2,1.3c0.1-0.9,0.8-0.9,1.5-1.1c0.2,0.1,0.2,0.3,0.1,0.5C19.2,16.9,18.9,17.2,18.6,17.6z"
				/>
			<path class="st8" d="M26.1,11.3c0.1,0.1,0.2,0.2,0.4,0.4c-0.1,0.2-0.2,0.5-0.3,0.7c-0.3,0.2-0.5,0.4-0.8,0.6
				c-0.3,0.6-0.8,0.5-1.3,0.2c-0.2-0.2-0.3-0.5-0.1-0.8c0.5-0.5,1-0.9,1.7-1.1C25.8,11.2,25.9,11.3,26.1,11.3z"/>
			<path class="st8" d="M29.3,7.8c-0.4,0.2-0.7,0.4-1.1,0.6c-0.7,0.3-1.5,0.6-2.6,1.1c0.9-1.2,1.9-1.8,3-2.1
				C28.8,7.6,29,7.7,29.3,7.8z"/>
			<path class="st8" d="M19.4,16.6c0-0.2,0-0.3-0.1-0.5c0.2-1,1.1-1.4,1.8-2.1c0.2-0.2,0.4-0.2,0.7-0.1c0.3,0.4,0.1,0.8,0,1.2
				c-0.1,0.2-0.3,0.4-0.5,0.5c-0.7,0-1,0.6-1.6,0.9C19.6,16.5,19.5,16.6,19.4,16.6z"/>
			<path class="st8" d="M24,12.3c0,0.2,0,0.5,0,0.7c0,0.1-0.1,0.1-0.1,0.2c-0.4,0.3-0.8,0.5-1.3,0.3c-0.3-0.1-0.5-0.3-0.7-0.5
				C22.4,12.4,23,11.9,24,12.3z"/>
			<path class="st8" d="M28.9,5.6C29,5.8,29.1,5.9,29.2,6c0.1,0.1,0.1,0.2,0.1,0.3c0,0.1-0.1,0.1-0.1,0.1c-0.6,0.1-1.2,0.2-1.7,0.3
				c0-0.2,0-0.4,0-0.7C27.7,5.1,28.3,5.4,28.9,5.6z"/>
			<path class="st8" d="M17.6,13.8c0.1,0,0.2,0,0.3-0.1c0.3,0,0.6,0,0.8,0.1c-0.1,0.6-0.3,1.1-1,1.3c-0.4,0-0.3-0.4-0.4-0.6
				C17.5,14.2,17.6,14,17.6,13.8z"/>
			<path class="st8" d="M29.2,6.4c0-0.1,0-0.3,0-0.4c0.5,0,1.1,0.1,1.8,0.1c-0.5,0.7-1.3,0.6-1.8,0.9C29.2,6.8,29.2,6.6,29.2,6.4z"
				/>
			<path class="st8" d="M21.8,13c0.3,0,0.6,0.1,0.7,0.3c0.2,0.6-0.1,0.8-0.7,0.7c-0.2,0-0.5,0-0.7,0C21,13.5,21.6,13.3,21.8,13z"/>
			<path class="st8" d="M17.4,14.5c0.1,0.2,0.2,0.4,0.4,0.6c0.3,0.3,0,0.6-0.1,0.8c-0.1,0-0.2,0-0.4,0C17.2,16,17,16,16.9,15.9
				c-0.1-0.1-0.1-0.3,0-0.4C17.1,15.1,17.2,14.8,17.4,14.5z"/>
			<path class="st8" d="M7.1,65.8c0-0.4-0.1-0.8-0.1-1.2c0-1.6,0-3.1,0.2-4.7c0,2,0,3.9,0,5.9C7.2,65.8,7.2,65.8,7.1,65.8z"/>
			<path class="st8" d="M60.1,66c-0.4-0.8-0.2-1.4,0-2C60.1,64.6,60.1,65.2,60.1,66z"/>
			<path class="st8" d="M59.9,62c0-0.7,0-1.4,0-2.1c0.1,0,0.2,0,0.3,0c0,0.7,0,1.4,0,2.1C60.1,62.1,60,62.1,59.9,62z"/>
			<path class="st8" d="M59.9,62c0.1,0,0.2,0,0.3,0c0,0.1,0,0.2,0,0.3c0.1,0.2,0.2,0.5,0.3,0.7C59.3,63.3,60.1,62.3,59.9,62z"/>
			<path class="st8" d="M20.8,62.3c-0.2-0.1-0.5-0.2-0.7-0.3c0-0.6,0-1.2,0-1.8c0.2-0.2,0.3-0.6,0.7-0.3
				C20.8,60.6,20.8,61.5,20.8,62.3z"/>
			<path class="st8" d="M20.8,59.8c-0.2,0.1-0.4,0.2-0.7,0.3c0-0.9,0.6-1,1.3-1c0.7,0,1.4,0,2.1,0c0.1,0.2,0,0.3-0.2,0.4
				c-0.6,0.2-1.3,0.2-1.9,0C21.2,59.6,21,59.7,20.8,59.8z"/>
			<path class="st8" d="M20.1,63.3c0.1,0,0.2,0,0.3,0c0,0.8,0,1.6,0,2.4c-0.1,0-0.2,0-0.3,0C20.1,64.9,20.1,64.1,20.1,63.3z"/>
			<path class="st8" d="M4.2,63.5c-1-0.2-2-0.4-3-0.1C1.1,63.3,1,63.2,1,63.1c0.2-0.1,0.3-0.1,0.5-0.2c0.9,0,1.8,0,2.8,0.1
				C4.2,63.2,4.2,63.3,4.2,63.5z"/>
			<path class="st8" d="M45.8,63.8c-0.4-1.4-0.5-2.7,0-4.1C46.3,61.1,46.2,62.4,45.8,63.8z"/>
			<path class="st8" d="M18.3,12.3c0,0.6-0.7,0.8-0.8,1.3c-0.5-0.2-1-0.3-1-1c0.1-0.1,0.2-0.2,0.3-0.4C17.4,12,17.9,12.3,18.3,12.3z
				"/>
			<path class="st8" d="M16.9,15.5c0,0.1,0.1,0.2,0.1,0.4c-0.1,0.5,0,1.1-0.8,1c-0.2-0.1-0.5-0.2-0.7-0.3
				C15.5,15.6,16.2,15.5,16.9,15.5z"/>
			<path class="st8" d="M23.3,62.6c-0.7,0.6-1.4,0.4-2.2,0.2c0,0,0-0.1,0-0.1c0,0,0.1-0.1,0.1-0.1c0.1,0,0.1,0,0.2,0
				C22,62.4,22.7,62.4,23.3,62.6L23.3,62.6z"/>
			<path class="st8" d="M21.4,59.5c0.6,0,1.3,0,1.9,0C22.7,59.8,22,59.8,21.4,59.5z"/>
			<path class="st8" d="M23.3,62.6c-0.6,0-1.3,0-1.9,0C22,62.4,22.7,62.3,23.3,62.6z"/>
			<path class="st8" d="M56.2,59.2c-0.5,0.3-0.9,0.2-1.3,0.1C55.2,59,55.6,59.1,56.2,59.2z"/>
			<path class="st8" d="M23.2,16.8c-0.2,0-0.5,0-0.7,0c-0.3-0.4-0.1-0.8,0.1-1.2c0.5-0.7,0.9-1.5,1.9-1.4c0.1,0.1,0.1,0.1,0.2,0.2
				c0,0.1,0,0.2,0,0.3C24.2,15.5,23.7,16.1,23.2,16.8z"/>
			<path class="st8" d="M28.8,62c0,0.6,0,1.1,0,1.9C28.4,63.1,28.5,62.5,28.8,62z"/>
			<path class="st8" d="M36.3,3.6c-0.6,0.4-1.2,0.5-1.8-0.1c0.3-0.1,0.3-0.4,0.4-0.7c0.5,0,0.9,0,1.4,0C36.5,3.1,36.5,3.3,36.3,3.6z
				"/>
			<path class="st8" d="M36.3,3.6c0-0.3,0-0.5,0-0.8c0.5,0,0.9,0,1.4,0c0.1,0,0.1,0.1,0.2,0.1C37.4,3.1,36.8,3.3,36.3,3.6z"/>
			<path class="st8" d="M28.9,5.6c-0.5,0.1-1.1-0.2-1.4,0.4C27.4,6,27.2,6,27.1,6c-0.2-0.9,1.4-0.4,1.1-1.4c0.2-0.2,0.5-0.5,0.7-0.7
				c0.5,0,0.9,0,1.4,0C30.2,4.3,30.1,4.7,30,5C29.6,5.2,29.2,5.4,28.9,5.6z"/>
			<path class="st8" d="M33.5,3.6c-0.7,0-1.4,0-2.1-0.1c0.1-0.1,0.3-0.3,0.4-0.4c0.3-0.2,0.6-0.3,0.9-0.6c0.4-0.1,0.7,0,0.9,0.3
				C33.5,3.1,33.5,3.3,33.5,3.6z"/>
			<path class="st8" d="M32.6,2.5c0.1,0.8-0.5,0.5-0.9,0.6c0-0.2,0-0.3,0-0.5C32,2.6,32.3,2.6,32.6,2.5z"/>
			<path class="st8" d="M24,13c0.5-0.1,0.9-0.1,1.4-0.2c0,0.4,0,0.7,0,1.1c-0.2,0.2-0.4,0.3-0.7,0.5l0-0.1c-0.4-0.2-0.8-0.3-0.9-0.7
				C23.7,13.4,23.8,13.2,24,13L24,13z"/>
			<path class="st8" d="M22.2,18.3c-0.4-0.2-0.7-0.5-1.1-0.7c-0.3-0.4-0.2-0.7,0-1.1c0.2-0.4,0.4-0.5,0.8-0.4
				c0.2,0.2,0.5,0.5,0.3,0.9C22.2,17.4,22.2,17.9,22.2,18.3z"/>
			<path class="st8" d="M19.7,16.5c0.4-0.4,0.3-1.6,1.5-1c0.3,0.5-0.1,0.8-0.4,1c-0.1,0.1-0.2,0.2-0.4,0.3
				C20.2,16.7,19.9,16.6,19.7,16.5z"/>
			<path class="st8" d="M20.8,16.5c0.1-0.3,0.3-0.7,0.4-1c0.1-0.1,0.2-0.2,0.3-0.4c0.5-0.1,0.5,0.3,0.5,0.6c0,0.2-0.1,0.3-0.2,0.4
				c-0.2,0.1-0.5,0.2-0.7,0.4C21,16.5,20.9,16.5,20.8,16.5z"/>
			<path class="st8" d="M16.2,16.9c0.3-0.3,0.5-0.7,0.8-1c0.1,0,0.2,0,0.3,0c-0.3,0.6,0,1.5-1,1.7C16.2,17.3,16.2,17.1,16.2,16.9z"
				/>
			<path class="st8" d="M21.8,16.2c0-0.1,0-0.2,0-0.3c0.2-0.3,0-0.8,0.6-0.8c0.4,0.1,0.2,0.5,0.4,0.8c-0.1,0.3-0.2,0.7-0.4,1
				c-0.1,0.1-0.2,0.1-0.3,0.1C22.1,16.7,22,16.4,21.8,16.2z"/>
			<path class="st8" d="M22.5,15.1c-0.2,0.3-0.4,0.5-0.6,0.8c0-0.3,0-0.6-0.3-0.7c-0.1-0.4,0.1-0.7,0.3-1.1c0.2-0.2,0.5-0.5,0.7-0.7
				c0.5-0.1,1-0.2,1.4-0.3c0,0.2,0,0.5,0,0.7C23.6,14.3,23.2,14.9,22.5,15.1z"/>
			<path class="st8" d="M22.5,15.1c0.5-0.5,0.6-1.3,1.5-1.3c0.2,0.2,0.5,0.4,0.7,0.6c-0.8,0.2-1.3,0.9-1.8,1.5
				C22.6,15.7,22.6,15.4,22.5,15.1z"/>
		</g>
	</g>
</g>
</svg>
