<?xml version="1.0" encoding="utf-8"?>
<!-- Generator: Adobe Illustrator 22.1.0, SVG Export Plug-In . SVG Version: 6.00 Build 0)  -->
<svg version="1.1" id="Layer_1" xmlns="http://www.w3.org/2000/svg" xmlns:xlink="http://www.w3.org/1999/xlink" x="0px" y="0px"
	 viewBox="0 0 254 42.8" style="enable-background:new 0 0 254 42.8;" xml:space="preserve">
<style type="text/css">
	.st0{fill:#F2F2F2;}
	.st1{fill:#333333;}
	.st2{fill:#D78021;}
	.st3{fill:#B4C580;}
	.st4{fill:#D78D8E;}
	.st5{fill:#E0AB08;}
	.st6{fill:#030708;}
	.st7{fill:#DFDFDF;}
	.st8{fill:#606060;}
	.st9{opacity:0.2;clip-path:url(#SVGID_8_);fill:url(#SVGID_9_);}
	.st10{fill:#FFFFFF;}
	.st11{clip-path:url(#SVGID_11_);}
	.st12{clip-path:url(#SVGID_15_);}
	.st13{clip-path:url(#SVGID_19_);}
	.st14{opacity:0.38;}
	.st15{clip-path:url(#SVGID_23_);}
	.st16{clip-path:url(#SVGID_27_);}
	.st17{clip-path:url(#SVGID_31_);}
	.st18{clip-path:url(#SVGID_35_);}
	.st19{clip-path:url(#SVGID_39_);}
	.st20{opacity:0.72;}
	.st21{opacity:0.2;clip-path:url(#SVGID_45_);fill:url(#SVGID_46_);}
	.st22{opacity:0.4;clip-path:url(#SVGID_48_);fill:url(#SVGID_49_);}
	.st23{clip-path:url(#SVGID_55_);}
	.st24{clip-path:url(#SVGID_65_);}
	.st25{clip-path:url(#SVGID_69_);}
	.st26{clip-path:url(#SVGID_71_);}
	.st27{clip-path:url(#SVGID_75_);}
	.st28{clip-path:url(#SVGID_77_);}
	.st29{clip-path:url(#SVGID_79_);}
	.st30{clip-path:url(#SVGID_85_);}
	.st31{clip-path:url(#SVGID_89_);}
	.st32{clip-path:url(#SVGID_91_);}
</style>
<symbol  id="Logo" viewBox="-127 -21.4 254 42.8">
	<path class="st0" d="M-119,10c0-9.1-0.1-18.1,0.1-27.2c0.1-3.1-0.8-4.2-4-4.2c-3.2,0-4.1,0.9-4,4c0.2,10.1,0.1,20.2,0,30.3
		c0,3.7,0.2,7.1,4.5,8c4.1,0.9,7.4-0.4,9.7-4.2c4.9-8.1,10.1-16.1,15.1-24.1c0.7-1.1,1.6-2.2,3.4-4.8c0,10.6,0,19.5,0,28.4
		c0,2.4-1,5.1,3.6,5.1c4.2,0,4.5-1.8,4.4-5.1c-0.2-9.9-0.1-19.8,0-29.7c0-3.4-0.4-6.7-4.3-7.6c-3.8-0.9-7.1-0.1-9.4,3.6
		c-5.7,9.4-11.7,18.6-17.6,27.9C-118,10.3-118.5,10.2-119,10z"/>
	<path class="st0" d="M27.2,0c0,4.9,0,9.7,0,14.6c0,4.4,2,6.7,6.7,6.7c7.7-0.1,15.4,0,23,0c2.3,0,4.3,0.2,4.2-3.3
		c-0.1-3.7-2.5-3-4.5-3c-5.7-0.1-11.3-0.2-17,0c-5.3,0.2-4.2-3.4-4.5-6.6c-0.3-3.6,0.8-5.1,4.7-4.9c5.6,0.3,11.3,0,17,0.1
		c2.5,0.1,3.6-0.7,3.6-3.4c0-3-1.5-3.2-3.8-3.2c-5.9,0.1-11.7-0.2-17.6,0.1c-3.6,0.2-4.3-1.6-3.7-4.3c0.6-2.9-2.3-7.6,3.5-7.8
		c6.1-0.3,12.1,0,18.2-0.1c2.1,0,4.4,0.8,4.4-3c0-3.5-1.7-3.3-4.1-3.3c-7.9,0.1-15.8,0.1-23.6,0c-4.4-0.1-6.3,2-6.3,6.2
		C27.2-10.1,27.2-5,27.2,0z"/>
	<path class="st0" d="M-50.5-4.2c-0.1-18.9,2.3-17-17.3-17c-9,0-12.2,3.1-12.4,11.9C-80.3-3.9-80.1,1.5-80.3,7c-0.1,2.7,0.6,4,3.7,4
		c3.5,0.1,3.3-1.9,3.3-4.3c-0.1-5.1-0.1-10.1,0-15.2c0.1-2.6,0.2-5.6,3.2-6.6c3.7-1.2,7.6-1.3,11.3-0.2c1.9,0.6,1.2,2.8,1.2,4.3
		c0.1,6.1,0.2,12.1,0,18.2c-0.1,3.1,1.3,3.6,4,3.7c2.9,0.1,3.3-1.3,3.2-3.7C-50.6,3.5-50.5-0.4-50.5-4.2z"/>
	<path class="st0" d="M-45.6-6.1c0,0.2,0,0.4,0,0.6c0.9,5.2-3,12.5,2.3,15.2c6.1,3.1,13.9,1.8,20.8,0.3c4-0.9,6.2-4.4,6.2-8.7
		c0.1-6.5-0.1-12.9,0.1-19.4c0.1-2.8-1.1-3.3-3.5-3.3c-2.6,0-3.6,0.8-3.5,3.4c0.2,5.2,0.2,10.5,0,15.8c-0.2,6.3-8.9,10.8-14.3,7.4
		c-1.5-0.9-1-2.5-1-3.9c0-6.3-0.1-12.5,0-18.8c0.1-2.6-0.4-4-3.5-4c-3,0-3.8,0.9-3.7,3.8C-45.4-13.8-45.6-9.9-45.6-6.1z"/>
	<path class="st0" d="M97.6-6c0,0.2,0,0.4,0,0.6c0.8,5.1-2.7,12.1,1.9,14.9c6.2,3.7,14.2,2,21.3,0.6c3.7-0.7,6-4.1,6.1-8.1
		c0.1-6.7,0-13.3,0.2-20c0.1-2.9-1.2-3.2-3.6-3.2c-2.7-0.1-3.5,0.9-3.4,3.5c0.1,5.2,0.2,10.5,0,15.8c-0.2,6.2-9.2,10.8-14.3,7.4
		c-1.4-1-0.9-2.6-0.9-3.9c0-6.3-0.1-12.5,0-18.8c0.1-2.7-0.5-3.9-3.6-4c-3.1,0-3.7,1.1-3.6,3.8C97.7-13.7,97.6-9.9,97.6-6z"/>
	<path class="st0" d="M78.9,10.9c1.5-0.4,4,1.1,4.2-2.4c0.2-3-1.3-3.1-3.6-3.1c-5.2,0-7-3.4-7.1-7.9c-0.2-5-0.2-10.1,0-15.1
		c0.1-2.8-0.7-3.8-3.7-3.8c-3.4,0-3.4,1.7-3.4,4.2c0.1,5.2-0.1,10.5,0.1,15.7C65.7,7.5,69.5,11,78.9,10.9z"/>
	<path class="st0" d="M85.7-5.5c0,4,0.1,8.1,0,12.1c-0.1,3,0.5,4.4,3.9,4.4c3.5,0,3.3-1.9,3.3-4.2c0-8.1-0.1-16.2,0-24.2
		c0-2.6-0.2-4-3.5-3.9c-2.9,0.1-3.9,0.9-3.7,3.8C85.8-13.5,85.7-9.5,85.7-5.5z"/>
	<path class="st0" d="M89.3,15.3c-2.4-0.3-3.7,0.3-3.8,3.2c-0.1,3.4,2.1,2.6,4,2.8c2.1,0.2,3.3-0.1,3.3-2.8
		C92.9,15.7,91.7,14.9,89.3,15.3z"/>
	<g>
		<path class="st0" d="M5.8,10.9c-2.8,0-5.7-0.2-8.4-0.7c-3.3-0.6-6-2.4-7.6-5.4c-7.3-13,0.2-26,14.8-26.1c12.3,0,17.1,4,17.6,14.9
			C22.7,5.6,17.9,10.8,5.8,10.9z M4.8-15.8c-7.4,0.1-10.3,3.2-10.2,11C-5.2,2.8-2.2,5.6,5.6,5.4c7-0.2,9.6-3.1,9.5-10.9
			C15-12.9,12.1-15.9,4.8-15.8z"/>
	</g>
</symbol>
<use xlink:href="#Logo"  width="254" height="42.8" x="-127" y="-21.4" transform="matrix(1 0 0 -1 127 21.3917)" style="overflow:visible;"/>
</svg>
