<?xml version="1.0" encoding="utf-8"?>
<!-- Generator: Adobe Illustrator 22.1.0, SVG Export Plug-In . SVG Version: 6.00 Build 0)  -->
<svg version="1.1" id="Layer_1" xmlns="http://www.w3.org/2000/svg" xmlns:xlink="http://www.w3.org/1999/xlink" x="0px" y="0px"
	 viewBox="0 0 122.2 93" style="enable-background:new 0 0 122.2 93;" xml:space="preserve">
<style type="text/css">
	.st0{fill:#F2F2F2;}
	.st1{fill:#333333;}
	.st2{fill:#D78021;}
	.st3{fill:#B4C580;}
	.st4{fill:#D78D8E;}
	.st5{fill:#E0AB08;}
	.st6{fill:#030708;}
	.st7{fill:#DFDFDF;}
	.st8{fill:#606060;}
	.st9{opacity:0.2;clip-path:url(#SVGID_8_);fill:url(#SVGID_9_);}
	.st10{fill:#FFFFFF;}
	.st11{clip-path:url(#SVGID_11_);}
	.st12{clip-path:url(#SVGID_15_);}
	.st13{clip-path:url(#SVGID_19_);}
	.st14{opacity:0.38;}
	.st15{clip-path:url(#SVGID_23_);}
	.st16{clip-path:url(#SVGID_27_);}
	.st17{clip-path:url(#SVGID_31_);}
	.st18{clip-path:url(#SVGID_35_);}
	.st19{clip-path:url(#SVGID_39_);}
	.st20{opacity:0.72;}
	.st21{opacity:0.2;clip-path:url(#SVGID_45_);fill:url(#SVGID_46_);}
	.st22{opacity:0.4;clip-path:url(#SVGID_48_);fill:url(#SVGID_49_);}
	.st23{clip-path:url(#SVGID_55_);}
	.st24{clip-path:url(#SVGID_65_);}
	.st25{clip-path:url(#SVGID_69_);}
	.st26{clip-path:url(#SVGID_71_);}
	.st27{clip-path:url(#SVGID_75_);}
	.st28{clip-path:url(#SVGID_77_);}
	.st29{clip-path:url(#SVGID_79_);}
	.st30{clip-path:url(#SVGID_85_);}
	.st31{clip-path:url(#SVGID_89_);}
	.st32{clip-path:url(#SVGID_91_);}
</style>
<g>
	<g>
		<g id="s4WsAc_9_">
			<g>
				<path class="st8" d="M0,57.2c3.5,0,6.9,0,10.4,0c0.4,0,0.8,0,1.2,0c0,1.3,0,2.6,0,3.9c-0.1,0-0.3,0-0.5,0
					c-0.2-1-0.5-2.1-1.5-2.7c-0.5-0.4-1.4-0.5-2.3-0.5c0,0.1,0,0.3,0,0.4c0,3.2,0,6.3,0,9.5c0,0.2,0,0.4,0,0.6
					c0.1,0.9,0.4,1.2,1.4,1.3c0.2,0,0.3,0,0.5,0c0,0.2,0,0.3,0,0.5c-2.3,0-4.6,0-6.9,0c0-0.1,0-0.3,0-0.4c0.3,0,0.6-0.1,0.9-0.1
					c0.6-0.1,0.9-0.4,0.9-1c0-0.2,0-0.3,0-0.5c0-3.3,0-6.6,0-10c0-0.1,0-0.2,0-0.3c-1.9-0.2-3.2,0.8-3.6,2.6C0.6,61,0.5,61.2,0,61.2
					C0,59.9,0,58.5,0,57.2z"/>
				<path class="st8" d="M61.1,0c1,0.3,2,0.7,2.7,1.5c1.4,1.5,1.7,3.8,0.6,5.6c-1,1.8-3.2,2.7-5.2,2.2c-2-0.5-3.5-2.3-3.5-4.3
					c-0.1-2.4,1.4-4.2,3.7-4.8c0.1,0,0.2-0.1,0.3-0.1C60.2,0,60.7,0,61.1,0z"/>
				<path class="st8" d="M61.8,50.8c-5.5,0-9.5-0.7-13.2-2.5c-1.9-0.9-3.5-2.2-5-3.6c-4.1-4.1-8.3-8.1-12.4-12.1
					c-2-1.9-1.1-5.2,1.6-5.9c1.3-0.3,2.5,0,3.5,1c3.4,3.5,6.7,7,10.2,10.4c3.3,3.3,7.3,5.3,12,5.7c6.7,0.6,12.3-1.5,17-6.3
					c3.2-3.3,6.3-6.6,9.6-9.8c1.9-2,5.2-1.1,5.9,1.6c0.3,1.3,0.1,2.5-0.9,3.4c-4.6,4.4-9.1,8.8-13.7,13.2c-2.2,2-4.8,3.2-7.7,4
					C66,50.5,63.2,50.8,61.8,50.8z"/>
				<path class="st8" d="M60.7,38.7c-4,0.1-7.3-1.5-10.1-4.2c-3.6-3.5-7.2-7.1-10.7-10.7c-1.3-1.3-1.2-3.4-0.1-4.7
					c1.3-1.4,3.4-1.7,4.8-0.5c1,0.8,1.9,1.8,2.8,2.8c2.4,2.5,4.8,5,7.2,7.4c3.2,3.2,8.8,3,12-0.3c2.7-2.7,5.3-5.4,8-8
					c0.5-0.5,1-1.1,1.6-1.6c1.5-1.4,3.7-1.4,5,0c1.4,1.4,1.4,3.6,0,5c-3.6,3.6-7.2,7.3-10.9,10.9c-1.7,1.7-3.8,3-6.2,3.5
					C63,38.5,61.8,38.5,60.7,38.7z"/>
				<path class="st8" d="M73.6,12.6c0,1-0.4,1.9-1.1,2.5c-3.3,3.3-6.7,6.6-10,9.9c-1.1,1.1-2.7,1.1-3.8,0c-3.3-3.3-6.6-6.6-10-9.9
					c-1.4-1.4-1.4-3.7,0-5c1.4-1.4,3.7-1.4,5.1,0.1c1.8,1.8,3.5,3.6,5.2,5.5c1.1,1.1,1.9,1.1,3,0.1c1.8-1.9,3.7-3.8,5.5-5.6
					c2-1.9,5.3-1,5.9,1.6C73.5,12,73.5,12.3,73.6,12.6z"/>
				<path class="st8" d="M59.6,57.1c1.3,0,2.6,0,3.8,0c0,1.8,0,3.5,0,5.3c0.3-0.3,0.6-0.5,0.9-0.8c0.7-0.5,1.4-0.7,2.2-0.6
					c1.4,0.2,2.2,1.1,2.2,2.7c0,1.6,0,3.3,0,4.9c0,0.4,0.1,0.8,0.5,1c0.4,0.2,0.9,0,1-0.5c0.1-0.2,0.1-0.4,0.1-0.6
					c0-1.8,0-3.6,0-5.5c0-0.6-0.1-1.1-0.8-1.2c-0.1,0-0.1-0.3-0.2-0.5c1.3,0,2.5,0,3.8,0c0,0.2,0,0.4,0,0.5c0,2.2,0,4.5,0,6.7
					c0,0.8,0.2,1.1,0.7,1.1c0.5,0,0.8-0.4,0.8-1.1c0-3.3,0-6.6,0-9.8c0-0.5-0.1-0.9-0.7-1.1c-0.1,0-0.2-0.3-0.3-0.5
					c1.3,0,2.5,0,3.8,0c0,0.2,0,0.4,0,0.5c0,3.5,0,6.9,0,10.4c0,0.1,0,0.2,0,0.3c0,1,0,1,1,1.4c0,0.1,0,0.3,0,0.4
					c-4.4,0-8.8,0-13.2,0c0-0.1,0-0.3,0-0.4c0.9-0.4,0.9-0.4,0.9-1.3c0-1.6,0-3.1,0-4.7c0-0.2,0-0.4-0.1-0.6
					c-0.2-0.7-0.8-1.1-1.4-0.7c-0.7,0.3-1.1,0.7-1.1,1.6c0.1,1.4,0,2.9,0,4.3c0,0.9,0,1,0.9,1.3c0,0.1,0,0.3,0,0.4
					c-1.5,0-3.1,0-4.6,0c0-0.2,0-0.3,0-0.4c0.1,0,0.2-0.1,0.4-0.1c0.4-0.1,0.6-0.4,0.6-0.8c0-0.1,0-0.3,0-0.4c0-3.2,0-6.4,0-9.6
					c0-0.8,0-0.9-0.8-1.2C59.7,57.6,59.7,57.3,59.6,57.1z"/>
				<path class="st8" d="M95.4,63.3c-0.8,0.8-1.5,0.7-2.2-0.1c-0.5-0.6-0.9-0.6-1.4,0.1c-0.2,0.4-0.3,0.9-0.3,1.3c0,1.1,0,2.3,0,3.4
					c0,1.4,0.1,1.4,1.4,1.7c0,0.1,0,0.3,0,0.5c-0.5,0-0.9,0-1.4,0c-1.1,0-2.2,0-3.3,0c-0.2,0-0.5,0.1-0.4-0.4
					c-1.2,0.2-2.3,0.4-3.5,0.6c0-0.3,0-0.7,0-1.1c-0.1,0.1-0.2,0.2-0.3,0.2c-1.7,1.6-4,1.1-5.2-0.9c-1-1.8-0.7-4.8,0.6-6.4
					c0.8-1,1.9-1.4,3.2-1.1c0.4,0.1,0.7,0.3,1.1,0.5c0.2,0.1,0.3,0.3,0.6,0.5c0-0.4,0-0.7,0-1c0-0.8,0-1.6,0-2.3
					c0-1-0.1-1.1-1.1-1.2c-0.1,0-0.2,0-0.4-0.1c0-0.1,0-0.3,0-0.4c1.4,0,2.7,0,4.2,0c0,0.2,0,0.3,0,0.5c0,3.4,0,6.8,0,10.2
					c0,0.2,0,0.4,0,0.6c0,0.6,0.2,0.8,0.8,0.9c0.2,0,0.3,0.2,0.4,0.3c0.4,0,0.6-0.3,0.6-0.7c0-2.1,0-4.1,0-6.2
					c0-0.5-0.2-0.8-0.7-0.9c-0.4,0-0.4-0.2-0.3-0.5c1.2,0,2.4,0,3.6,0c0,0.4,0,0.9,0,1.4c0.3-0.3,0.6-0.6,0.8-0.9
					c0.5-0.5,1.1-0.8,1.9-0.8c0.9,0,1.5,0.7,1.5,1.6c0,0.2,0,0.3,0,0.5C95.5,63.2,95.4,63.2,95.4,63.3z M84.1,65.7
					c0-0.6-0.1-1.3,0-1.9c0.1-0.8-0.7-1.5-1.3-1.5c-0.7-0.1-1.3,0.2-1.5,1c-0.2,0.5-0.3,1.1-0.3,1.6c-0.1,1.2-0.1,2.4,0.3,3.5
					c0.3,0.8,0.8,1.1,1.4,1c0.7-0.1,1.4-0.9,1.4-1.5C84.1,67.1,84.1,66.4,84.1,65.7z"/>
				<path class="st8" d="M44.1,76c0,0.2,0,0.3,0,0.4c-0.2,0-0.3,0.1-0.5,0.1c-0.9,0.2-1.2,0.5-1.2,1.4c0,2.3,0,4.6,0,6.9
					c0,0.7,0,1.5,0,2.2c0,1.1,0.3,1.4,1.4,1.5c0.1,0,0.1,0,0.2,0c0,0.1,0,0.2,0,0.2c0,0.1,0,0.1,0,0.2c-2.2,0-4.3,0-6.6,0
					c0-0.1,0-0.3,0-0.4c0.3,0,0.6-0.1,0.8-0.1c0.5-0.1,0.9-0.4,0.9-0.9c0-1.6,0-3.2,0-4.8c-1.5,0-3,0-4.6,0c0,0.5,0,1.1,0,1.6
					c0,0.9,0,1.8,0,2.6c0,1.1,0.3,1.4,1.4,1.5c0.1,0,0.2,0,0.3,0c0,0.1,0,0.2,0,0.2c0,0.1,0,0.1,0,0.2c-2.2,0-4.3,0-6.5,0
					c0-0.2,0-0.3,0-0.5c0.2,0,0.5-0.1,0.7-0.1c0.6-0.1,0.8-0.4,0.9-1c0-0.2,0-0.3,0-0.5c0-2.9,0-5.8,0-8.7c0-1.3-0.1-1.5-1.4-1.7
					c-0.1,0-0.1,0-0.2,0c0-0.1,0-0.3,0-0.5c2.2,0,4.3,0,6.5,0c0,0.1,0,0.3,0,0.4c-0.2,0-0.5,0.1-0.7,0.1c-0.6,0.1-1,0.4-1,1.1
					c0,1.4,0,2.8,0,4.2c1.5,0,3,0,4.6,0c0-0.2,0-0.4,0-0.6c0-1.1,0-2.1,0-3.2c0-1-0.2-1.3-1.3-1.5c-0.1,0-0.3,0-0.4-0.1
					c0-0.2,0-0.3,0-0.5C39.7,76,41.9,76,44.1,76z"/>
				<path class="st8" d="M89.1,88.5c-0.5,0.4-1,0.8-1.7,0.8c-1,0.1-1.4-0.2-1.9-1.3c-0.7,0.6-1.4,1.1-2.3,1.2
					c-0.6,0.1-1.3,0.1-1.8-0.3c-0.6-0.3-0.9-0.8-1-1.4c-0.3,0.3-0.5,0.6-0.7,0.9c-0.7,0.7-1.6,0.9-2.5,0.8c-1-0.2-1.6-0.9-1.6-1.9
					c0-1.9,0-3.9,0-5.8c0-0.2,0-0.3,0-0.5c-0.3,0-0.7,0-1,0c-0.1-0.4,0-0.6,0.2-0.8c1-0.9,1.9-1.9,2.7-3c0.2-0.3,0.2-0.3,0.7-0.3
					c0,1,0,2.1,0,3.2c0.6,0,1.2,0,1.8,0c0,0.3,0,0.6,0,0.9c-0.6,0-1.2,0-1.7,0c0,0.1-0.1,0.1-0.1,0.2c0,1.9,0,3.9,0,5.8
					c0,0.4,0.1,0.8,0.6,0.9c0.5,0.1,0.7-0.2,1-0.5c0.1-0.2,0.2-0.6,0.6-0.4c0.1-1.1,0.9-1.8,1.8-2.2c1-0.4,1.9-0.8,2.9-1.1
					c0.4-0.1,0.6-0.3,0.5-0.7c-0.1-0.5,0-1-0.1-1.5c-0.1-0.5-0.4-0.9-0.9-0.9c-0.4,0-0.9,0-1.4,0.1c-0.5,0.1-0.5,0.5-0.2,0.9
					c0.4,0.5,0.5,1.1,0.2,1.5c-0.3,0.4-1,0.6-1.5,0.4c-0.6-0.2-0.9-0.6-0.9-1.3c0-0.7,0.4-1.3,1-1.7c0.7-0.4,1.4-0.6,2.2-0.7
					c1-0.1,1.9,0,2.8,0.4c0.9,0.4,1.3,1,1.4,2c0,0.3,0,0.7,0,1c0,1.4,0,2.7,0,4.1c0,0.2,0.1,0.5,0.2,0.6c0.1,0.1,0.4-0.1,0.6-0.1
					c0,0.1,0.1,0.2,0.2,0.3C89.2,88.3,89.1,88.4,89.1,88.5L89.1,88.5z M85.5,84.3c-0.7,0.2-1.2,0.4-1.7,0.8
					c-0.6,0.5-0.8,1.1-0.7,1.9c0.1,0.6,0.5,0.9,1,0.9c0.6,0,1.3-0.6,1.3-1C85.5,86,85.5,85.2,85.5,84.3z"/>
				<path class="st8" d="M41.6,61.1c0,1,0,1.9,0,2.8c-0.3,0.1-0.5,0-0.6-0.3c-0.3-0.9-0.9-1.6-1.9-1.8c-0.2,0-0.4,0-0.6,0
					c-0.5,0.1-0.8,0.3-0.9,0.8c-0.2,0.5,0,0.9,0.4,1.1c0.5,0.3,1,0.6,1.6,0.9c0.5,0.3,1,0.5,1.4,0.8c1,0.7,1.3,1.7,1.1,2.8
					c-0.3,1.1-0.9,2-2.1,2.2c-1,0.2-1.9,0-2.8-0.3c-0.4-0.2-0.8-0.2-1,0.3c-0.1,0.1-0.3,0.1-0.5,0.2c0-0.4,0-0.6,0-0.9
					c-2.1,1.3-3.1,1.1-3.6-0.3c-0.6,0.3-1.1,0.7-1.7,0.9c-0.5,0.2-1.2,0.3-1.7,0.2c-0.8-0.1-1.5-0.5-1.7-1.4
					c-0.2-0.9-0.1-1.8,0.7-2.4c0.5-0.4,1.1-0.7,1.7-1c0.8-0.3,1.6-0.6,2.4-0.9c0.2-0.1,0.3-0.2,0.3-0.4c0-0.6,0-1.2-0.1-1.7
					c-0.1-0.5-0.4-0.8-0.9-0.9c-0.6-0.1-1.2-0.2-1.7,0.3c-0.1,0.1-0.1,0.4-0.1,0.6c0,0,0.1,0.1,0.1,0.1c0.4,0.6,0.5,1.1,0.2,1.5
					c-0.3,0.4-0.9,0.6-1.5,0.4c-0.6-0.2-0.9-0.6-0.9-1.2c0-0.7,0.3-1.2,0.8-1.6c1-0.7,2.1-0.9,3.3-0.8c0.5,0,1.1,0.1,1.6,0.3
					c1.3,0.4,1.8,1.2,1.8,2.5c0,1.5,0,3,0,4.6c0,0.1,0,0.3,0,0.4c0.1,0.4,0.3,0.5,0.6,0.3c0.1-0.1,0.2-0.1,0.4-0.1
					c0-0.5,0-1.1,0-1.6c0.4-0.1,0.5-0.1,0.7,0.3c0.4,1.4,1.5,2.2,2.8,2.1c0.6-0.1,1-0.3,1.1-0.8c0.2-0.5,0-1.1-0.5-1.4
					c-0.6-0.4-1.3-0.7-1.9-1c-0.4-0.2-0.8-0.4-1.1-0.7c-0.9-0.7-1.2-1.8-0.9-2.9c0.4-1.1,1.1-1.7,2.3-1.9c0.8-0.1,1.6,0.1,2.4,0.3
					c0.3,0.1,0.6,0.1,0.8-0.2C41.2,61.2,41.4,61.2,41.6,61.1z M31.8,65.6c-0.8,0.2-1.4,0.5-1.9,1.1c-0.4,0.5-0.5,1.1-0.4,1.7
					c0.1,0.5,0.5,0.8,1,0.8c0.5,0,1.3-0.5,1.3-1C31.8,67.4,31.8,66.5,31.8,65.6z"/>
				<path class="st8" d="M63.6,80.1c0,0.4,0,0.7,0,1.1c0.1,0,0.1,0,0.1,0c1.5-1.9,4.2-1.7,5.3,0.4c0.8,1.5,0.9,4.7-0.6,6.4
					c-1.2,1.4-3.2,1.7-4.6,0.4c0,0-0.1-0.1-0.2-0.2c0,1.1,0,2.2,0,3.3c0,0.8,0.7,1,1.4,1.1c0,0.1,0,0.3,0,0.4c-1.8,0-3.5,0-5.3,0
					c-0.1-0.3-0.1-0.5,0.3-0.5c0.5-0.1,0.7-0.3,0.7-0.9c0-1,0-2,0-3c0-2.2,0-4.5,0-6.7c0-1-0.1-1.1-1-1.4c0-0.1,0-0.3,0-0.4
					C61.1,80.1,62.4,80.1,63.6,80.1z M63.7,84.7c0,0.7,0,1.4,0,2.2c0,0.2,0.1,0.4,0.2,0.6c0.4,0.5,0.9,0.8,1.5,0.7
					c0.6-0.1,1-0.6,1.1-1.1c0.2-0.6,0.3-1.3,0.3-1.9c0-1-0.1-2-0.2-2.9c-0.1-0.5-0.3-1-0.9-1.1c-0.9-0.2-1.9,0.6-1.9,1.5
					C63.7,83.3,63.7,84,63.7,84.7z"/>
				<path class="st8" d="M59.1,56.9c0,1.5,0,3,0,4.5c-0.3,0.1-0.5,0-0.6-0.3c-0.5-1-1-1.9-1.9-2.6c-0.9-0.7-1.8-1.1-3-0.9
					c-1.2,0.1-2,0.9-2.4,2c-0.6,1.6-0.7,3.3-0.6,5c0,0.7,0.1,1.4,0.3,2c0.7,2.8,3,3.8,5.6,2.5c0.7-0.3,1.2-0.9,1.8-1.3
					c0.2-0.1,0.3-0.4,0.5-0.6c0.2,0.2,0.4,0.3,0.6,0.5c-0.8,0.9-1.6,1.7-2.6,2.2c-3.4,1.7-8.8,0.1-9.6-4.7c-0.5-3.1,0.5-6.1,3.4-7.6
					c1.7-0.9,3.5-1,5.3-0.4c0.5,0.1,1,0.3,1.4,0.5c0.5,0.2,0.9,0.1,1.1-0.4C58.6,56.9,58.8,56.8,59.1,56.9z"/>
				<path class="st8" d="M107.1,69.7c0,0.2,0,0.3,0,0.5c-1.5,0-3.1,0-4.6,0c0-0.2,0-0.3,0-0.4c0.9-0.3,1-0.4,1-1.4
					c0-1.8,0-3.5,0-5.3c0-0.9,0-0.9-0.8-1.3c-0.1,0-0.2-0.3-0.3-0.5c1.3,0,2.5,0,3.8,0c0,0.4,0,0.8,0,1.2c0.4-0.3,0.6-0.6,0.9-0.9
					c0.9-0.7,2-0.8,3-0.4c0.9,0.3,1.3,1,1.3,1.9c0.1,1.5,0,3.1,0.1,4.6c0,0.2,0,0.5,0,0.7c0,0.9,0.1,1,1,1.2c0,0.1,0,0.3,0,0.4
					c-1.5,0-3,0-4.5,0c0-0.1,0-0.3,0-0.4c0.1,0,0.2-0.1,0.3-0.1c0.4-0.1,0.6-0.3,0.6-0.8c0-1.8,0-3.7,0-5.5c0-0.9-0.9-1.3-1.7-0.8
					c-0.5,0.3-0.9,0.8-0.9,1.5c0.1,1.5,0,3,0,4.5C106.2,69.4,106.2,69.4,107.1,69.7z"/>
				<path class="st8" d="M53,84.5c-0.1,2.1-0.8,3.6-2.5,4.5c-2.6,1.3-5.8-0.4-6.2-3.4c-0.2-1.6,0-3.1,1.2-4.3
					c1.2-1.3,2.6-1.6,4.3-1.2c1.6,0.4,2.6,1.6,3.1,3.1C52.9,83.6,52.9,84.1,53,84.5z M50.2,84.6C50.1,84.6,50.1,84.6,50.2,84.6
					c-0.1-0.4-0.1-0.8-0.1-1.1c-0.1-0.7-0.2-1.5-0.4-2.2c-0.1-0.5-0.5-0.7-1-0.8c-0.5,0-0.9,0.2-1.2,0.6c-0.1,0.3-0.3,0.6-0.3,0.9
					c-0.1,1.1-0.2,2.2-0.1,3.3c0,0.8,0.1,1.5,0.3,2.3c0.2,0.7,0.7,1,1.3,1c0.6,0,1.1-0.4,1.2-1.1C50,86.6,50,85.6,50.2,84.6z"/>
				<path class="st8" d="M21.4,66.9c-0.5,0.7-1,1.3-1.4,1.9c-0.4,0.6-0.2,0.8,0.5,0.9c0.1,0,0.2,0,0.3,0.1c0,0.1,0,0.3,0,0.4
					c-0.5,0-1.1,0-1.6,0c-0.5,0-1.1,0-1.6,0c0-0.2,0-0.3,0-0.5c0.7-0.1,1.1-0.5,1.5-1c0.6-0.8,1.3-1.6,1.9-2.4c-0.7-1-1.4-2.1-2-3.1
					c-0.2-0.3-0.3-0.5-0.5-0.8c-0.3-0.3-0.6-0.5-0.8-0.8c0,0-0.1,0.1-0.1,0.1c0-0.1,0-0.3,0-0.4c1.6,0,3.2,0,4.8,0
					c0,0.1,0,0.3,0,0.4c-0.1,0-0.1,0.1-0.1,0.1c-1,0.1-0.9,0.3-0.5,1c0.3,0.5,0.6,1,1,1.6c0.4-0.6,0.8-1.1,1.2-1.6
					c0.4-0.6,0.3-0.9-0.5-1c-0.1,0-0.2,0-0.3,0c0-0.2,0-0.3,0-0.5c1.1,0,2.1,0,3.2,0c0,0.1,0,0.3,0,0.5c-0.9,0.1-1.3,0.7-1.8,1.3
					c-0.5,0.6-1,1.2-1.5,1.9c0.5,0.8,1.1,1.6,1.6,2.5c0.4,0.6,0.8,1.2,1.2,1.8c0.1,0.2,0.2,0.3,0.4,0.4c0.3,0.1,0.3,0.3,0.2,0.6
					c-1.5,0-3,0-4.6,0c-0.1-0.3,0-0.5,0.3-0.5c0.5-0.1,0.6-0.3,0.4-0.7C22.3,68.4,21.9,67.7,21.4,66.9z"/>
				<path class="st8" d="M95.4,63.3c0-0.1,0.1-0.1,0.1-0.2c0.5-0.8,1.1-1.4,2-1.8c2.3-0.9,4.6,0.4,5,3c0.1,0.4,0.1,0.7,0.1,1.2
					c-1.7,0-3.3,0-4.9,0c0.1,1.1,0.2,2.1,0.9,3c0.6,0.7,1.6,0.8,2.5,0.3c0.3-0.2,0.6-0.4,0.8-0.7c0.3-0.3,0.5-0.3,0.7,0
					c-0.8,1.7-2.7,2.7-4.5,2.4c-1.8-0.3-3-1.9-3.2-3.8C94.9,65.4,95.1,64.4,95.4,63.3z M97.6,64.7c1,0,1.8,0,2.7,0
					c-0.1-0.7-0.1-1.4-0.3-2.1c-0.1-0.6-0.4-0.9-1-0.9c-0.5,0-0.9,0.2-1.1,0.8C97.8,63.2,97.8,63.9,97.6,64.7z"/>
				<path class="st8" d="M17.6,65.6c-1.6,0-3.2,0-4.9,0c0.1,0.9,0.2,1.7,0.6,2.5c0.6,1.1,1.8,1.5,2.9,0.8c0.4-0.2,0.7-0.6,1.1-0.9
					c0.1,0.1,0.2,0.1,0.4,0.2c-0.8,1.7-2.6,2.7-4.4,2.4c-1.8-0.3-3.1-1.7-3.3-3.7c-0.1-1.1-0.1-2.2,0.3-3.3c1-2.6,4.4-3.3,6.2-1.3
					C17.2,63,17.7,64.4,17.6,65.6z M15.3,64.8c-0.1-0.8-0.2-1.5-0.3-2.2c-0.1-0.4-0.4-0.7-0.8-0.8c-0.5,0-0.8,0.1-1.1,0.5
					c-0.4,0.8-0.4,1.6-0.4,2.5c0.8,0,1.5,0,2.2,0C15,64.8,15.1,64.8,15.3,64.8z"/>
				<path class="st8" d="M89.1,88.5c0.6,0,0.9-0.3,0.9-0.8c0-0.1,0-0.3,0-0.4c0-3.2,0-6.4,0-9.5c0-0.9-0.1-1-0.9-1.3
					c0-0.1,0-0.3,0-0.4c1.2,0,2.4,0,3.6,0c0,0.2,0,0.4,0,0.5c0,3.5,0,7,0,10.5c0,0.2,0,0.4,0,0.6c0,0.4,0.2,0.7,0.6,0.8
					c0.3,0.1,0.4,0.3,0.3,0.6c-1.5,0-3,0-4.6,0C89.1,88.8,89.1,88.7,89.1,88.5L89.1,88.5z"/>
				<path class="st8" d="M121.8,61c0,1,0,1.9,0,2.8c-0.4,0.1-0.5,0-0.6-0.3c-0.2-0.6-0.6-1.2-1.2-1.5c-0.4-0.2-0.9-0.3-1.4-0.3
					c-0.9,0.1-1.2,1.1-0.7,1.7c0.3,0.3,0.7,0.6,1.1,0.8c0.6,0.4,1.3,0.6,1.9,1c1,0.7,1.4,1.7,1.2,2.9c-0.3,1.2-1.2,2-2.4,2.2
					c-0.9,0.1-1.8-0.1-2.7-0.4c-0.4-0.1-0.6-0.1-0.9,0.3c-0.1,0.1-0.3,0.2-0.6,0.3c0-1.2,0-2.2,0-3.2c0.4-0.1,0.6,0,0.7,0.4
					c0.3,1.2,1.1,1.9,2.3,2.1c1,0.2,1.7-0.4,1.7-1.3c-0.1-0.5-0.4-0.8-0.8-1c-0.6-0.3-1.1-0.5-1.7-0.8c-0.3-0.1-0.6-0.3-0.8-0.5
					c-1.1-0.8-1.5-1.8-1.2-3c0.3-1.2,1.3-2,2.6-2c0.7,0,1.3,0.2,2,0.3c0.4,0.1,0.7,0.2,1-0.2C121.4,61,121.6,61.1,121.8,61z"/>
				<path class="st8" d="M59.3,79.9c0,1,0,1.9,0,2.8c-0.3,0.2-0.5,0-0.6-0.3c-0.3-0.9-0.9-1.6-1.9-1.8c-0.3-0.1-0.6,0-0.9,0
					c-0.7,0.2-1,1.1-0.5,1.6c0.2,0.3,0.6,0.5,0.9,0.7c0.7,0.4,1.4,0.7,2,1.1c1.2,0.7,1.6,1.8,1.3,3.1c-0.3,1.3-1.4,2.1-2.6,2.2
					c-0.9,0.1-1.7-0.2-2.4-0.5c-0.4-0.1-0.6-0.1-0.8,0.3c-0.1,0.1-0.3,0.2-0.6,0.3c0-1.1,0-2,0-2.9c0-0.1,0-0.2,0-0.3
					c0.4-0.1,0.5,0,0.6,0.3c0.4,1.4,1.4,2.2,2.8,2.1c0.6,0,1-0.3,1.1-0.8c0.2-0.5,0-1.1-0.5-1.4c-0.6-0.3-1.2-0.6-1.8-0.9
					c-0.5-0.3-0.9-0.5-1.3-0.9c-0.9-0.7-1.1-1.7-0.8-2.8c0.3-1.1,1.1-1.8,2.2-1.9c0.7-0.1,1.4,0.1,2.1,0.2c0.4,0,0.8,0.4,1.2-0.2
					C58.9,79.9,59.1,79.9,59.3,79.9z"/>
				<path class="st8" d="M74.5,89c-1.6,0-3.1,0-4.7,0c-0.1-0.3-0.1-0.5,0.3-0.5c0.5-0.1,0.6-0.4,0.6-1c0-1.3,0-2.5,0-3.8
					c0-0.6,0-1.2,0-1.8c0-0.9-0.1-1-0.9-1.2c0-0.1,0-0.3,0-0.5c1.2,0,2.4,0,3.7,0c0,0.2,0,0.3,0,0.5c0,2.3,0,4.6,0,6.8
					c0,0.7,0,0.8,0.7,1.1C74.4,88.6,74.4,88.8,74.5,89z"/>
				<path class="st8" d="M112.7,63.7c-0.1-0.3-0.2-0.4-0.3-0.5c0.5-0.4,1-0.8,1.4-1.2c0.3-0.3,0.5-0.8,0.7-1.2
					c0.1-0.4-0.1-0.6-0.5-0.6c-0.9,0.1-1.3-0.2-1.6-0.8c-0.3-0.6-0.2-1.4,0.3-1.9c0.4-0.5,1.2-0.6,1.9-0.3c0.8,0.3,1.2,1,1.2,1.9
					c0.1,1.2-0.3,2.2-1.2,3C114.1,62.6,113.4,63.1,112.7,63.7z"/>
				<path class="st8" d="M71.7,56.9c0.9,0,1.5,0.7,1.5,1.5c0,0.9-0.7,1.5-1.5,1.5c-0.8,0-1.5-0.7-1.5-1.5
					C70.2,57.5,70.8,56.9,71.7,56.9z"/>
				<path class="st8" d="M73.7,77.2c0,0.9-0.7,1.5-1.5,1.5c-0.9,0-1.5-0.7-1.5-1.5c0-0.9,0.7-1.5,1.5-1.5
					C73,75.7,73.7,76.3,73.7,77.2z"/>
				<path class="st8" d="M96.3,74.2c1.1,0,2,0.9,2,2c0,1.1-0.9,1.9-1.9,2c-1.1,0-2-0.8-2-1.9C94.3,75.1,95.2,74.2,96.3,74.2z
					 M96.3,77.8c0.9,0,1.7-0.8,1.7-1.7c0-0.9-0.8-1.7-1.7-1.7c-0.9,0-1.7,0.7-1.7,1.7C94.6,77.1,95.3,77.8,96.3,77.8z"/>
				<path class="st8" d="M95.3,75c0.4,0,0.8,0,1.1,0c0.3,0,0.7,0.1,0.8,0.5c0.1,0.4-0.1,0.6-0.4,0.8c0.2,0.3,0.4,0.6,0.6,1
					c-0.3,0-0.6,0.2-0.8-0.2c-0.1-0.3-0.3-0.5-0.4-0.8c0,0-0.1,0-0.1,0.1c0.1,0.3,0.1,0.6,0.2,0.9c-0.2,0-0.6,0-0.9,0
					C95.6,76.8,95.6,75.4,95.3,75z M96.1,76.1c0.4,0,0.6-0.2,0.6-0.5c0-0.3-0.2-0.4-0.6-0.4C96.1,75.5,96.1,75.7,96.1,76.1z"/>
			</g>
		</g>
	</g>
</g>
</svg>
