<svg id="Layer_1" data-name="Layer 1" xmlns="http://www.w3.org/2000/svg" viewBox="0 0 1110.48 103.04"><defs><style>.cls-1{fill:#fff;}</style></defs><title>NunoErin_testimonial-bg-52</title><g id="_Group_" data-name="&lt;Group&gt;"><path class="cls-1" d="M64.12,5.93C42.25,17.79,27.43,32.61,27.43,45.22c0,5.18,3.33,10.37,8.89,13.71L50.4,46.33C58.56,49.29,66,57.45,66,70.79,66,94.89,47.07,103,34.1,103,8.89,103,0,85.62,0,70.05,0,39.29,25.57,18.9,61.16,0Zm77.47,0c-21.87,11.86-36.7,26.68-36.7,39.29,0,5.18,3.34,10.37,8.9,13.71l14.08-12.6c8.15,3,15.57,11.12,15.57,24.46,0,24.1-18.9,32.25-31.88,32.25-25.2,0-34.1-17.42-34.1-33,0-30.76,25.58-51.15,61.16-70Z"/><path class="cls-1" d="M1051.39,94.53c20.15-10.93,33.82-24.59,33.82-36.21,0-4.78-3.08-9.56-8.21-12.63L1064,57.3c-7.52-2.73-14.35-10.25-14.35-22.54,0-22.21,17.42-29.72,29.38-29.72,23.22,0,31.42,16.05,31.42,30.4,0,28.35-23.57,47.14-56.36,64.55Zm-71.39,0c20.16-10.93,33.82-24.59,33.82-36.21,0-4.78-3.08-9.56-8.2-12.63l-13,11.61c-7.51-2.73-14.34-10.25-14.34-22.54C978.3,12.55,995.71,5,1007.67,5c23.22,0,31.42,16.05,31.42,30.4,0,28.35-23.56,47.14-56.35,64.55Z"/></g></svg>