<?xml version="1.0" encoding="utf-8"?>
<!-- Generator: Adobe Illustrator 22.1.0, SVG Export Plug-In . SVG Version: 6.00 Build 0)  -->
<svg version="1.1" id="Layer_1" xmlns="http://www.w3.org/2000/svg" xmlns:xlink="http://www.w3.org/1999/xlink" x="0px" y="0px"
	 viewBox="0 0 58.1 46.3" style="enable-background:new 0 0 58.1 46.3;" xml:space="preserve">
<style type="text/css">
	.st0{fill:#F2F2F2;}
	.st1{fill:#333333;}
	.st2{fill:#D78021;}
	.st3{fill:#B4C580;}
	.st4{fill:#D78D8E;}
	.st5{fill:#E0AB08;}
	.st6{fill:#030708;}
	.st7{fill:#DFDFDF;}
	.st8{fill:#606060;}
	.st9{opacity:0.2;clip-path:url(#SVGID_8_);fill:url(#SVGID_9_);}
	.st10{fill:#FFFFFF;}
	.st11{clip-path:url(#SVGID_11_);}
	.st12{clip-path:url(#SVGID_15_);}
	.st13{clip-path:url(#SVGID_19_);}
	.st14{opacity:0.38;}
	.st15{clip-path:url(#SVGID_23_);}
	.st16{clip-path:url(#SVGID_27_);}
	.st17{clip-path:url(#SVGID_31_);}
	.st18{clip-path:url(#SVGID_35_);}
	.st19{clip-path:url(#SVGID_39_);}
	.st20{opacity:0.72;}
	.st21{opacity:0.2;clip-path:url(#SVGID_45_);fill:url(#SVGID_46_);}
	.st22{opacity:0.4;clip-path:url(#SVGID_48_);fill:url(#SVGID_49_);}
	.st23{clip-path:url(#SVGID_55_);}
	.st24{clip-path:url(#SVGID_65_);}
	.st25{clip-path:url(#SVGID_69_);}
	.st26{clip-path:url(#SVGID_71_);}
	.st27{clip-path:url(#SVGID_75_);}
	.st28{clip-path:url(#SVGID_77_);}
	.st29{clip-path:url(#SVGID_79_);}
	.st30{clip-path:url(#SVGID_85_);}
	.st31{clip-path:url(#SVGID_89_);}
	.st32{clip-path:url(#SVGID_91_);}
	.st33{fill:none;stroke:#35495D;stroke-width:2.8788;stroke-linecap:round;stroke-linejoin:round;stroke-dasharray:5.7576,20.1517;}
	.st34{fill:none;stroke:#35495D;stroke-width:2.8788;stroke-linecap:round;stroke-linejoin:round;}
	.st35{fill:none;stroke:#35495D;stroke-width:4.798;stroke-linecap:round;stroke-linejoin:round;stroke-dasharray:0,11.1315;}
	.st36{fill:none;stroke:#35495D;stroke-width:4.798;stroke-linecap:round;stroke-linejoin:round;stroke-dasharray:0,12.6668;}
	.st37{fill:none;stroke:#35495D;stroke-width:1.9192;stroke-linecap:round;stroke-linejoin:round;}
	.st38{fill:none;stroke:#35495D;stroke-width:1.4394;stroke-linecap:round;stroke-linejoin:round;}
	.st39{fill:#4D4D4D;}
	.st40{fill:#58595A;}
	.st41{fill:#008751;}
	.st42{fill:#E0D780;}
	.st43{fill:#E0E0E0;}
	.st44{fill:#595A5B;}
	.st45{fill:#2AA5D5;}
	.st46{fill:#29A7D7;}
	.st47{fill:#88BECC;}
</style>
<g>
	<g>
		<path class="st6" d="M56,35.4c1.8-2.2,2.3-4.8,2.1-7.5c-0.5-5.6-2.8-10.5-6.2-14.9c-2.3-3-5-5.5-8.5-7.1C38.7,3.5,33.7,3.7,28.8,5
			C25.5,5.8,23,4.8,21,2.3c-0.6-0.7-1-1.5-1.6-2.3c-1.3,2.1-1.8,4.2-0.7,6.5c-1.5,0.1-2.7-0.4-3.8-1.1c-1.2-0.8-1.9-1.9-2.6-3.3
			c-1.7,3.2-1.8,6.1,0.8,8.8C9.5,11,6.8,9.9,5.4,6.4c-0.9,4.7,0.2,8.3,3.9,11.2c-4.1,0.4-7,2.2-8.8,5.8c0.1,0.4-0.3,0.7,0,1.1
			c2.4-1.4,4.8-1.5,7.1,0.3c0.2,0.2,0.7,0,0.6,0.5c-0.1,0.4-0.4,0.3-0.7,0.5c-2.6,1.1-4.1,3.4-4,6.4c2.5-1.4,5-1.7,7.6-0.2
			c-2.3,2.2-3.2,4-2.8,5.9c1-0.5,2-1,3.1-1.2c2.7-0.6,5.1,0,7.1,2.1c0.7,0.8,1.5,1.6,2.3,2.3c3.3,3,7,5.1,11.5,5.3
			C42,46.6,49.9,42.9,56,35.4z M29,42.9C19.5,40.1,14.1,29.8,17,20.1C19.9,10.5,30.1,5,39.8,7.9c9.6,2.9,14.9,13.1,12,22.9
			C49,40.1,39.2,45.9,29,42.9z"/>
		<path class="st40" d="M0.5,23.4C0.1,23.7,0,24.1,0,24.5c0.1,0.6,0.3,0.2,0.5,0C-0.1,24.1,0.4,23.8,0.5,23.4z"/>
		<path class="st40" d="M0.5,23.4c-0.1,0.3-0.6,0.7,0,1.1C0.2,24.1,0.6,23.8,0.5,23.4z"/>
		<path class="st41" d="M51.8,30.8c3-9.8-2.4-20-12-22.9C30.1,5,19.9,10.5,17,20.1c-2.9,9.7,2.4,20,11.9,22.8
			C39.2,45.9,49,40.1,51.8,30.8z M30.5,39c-7.6-2.3-11.7-10.1-9.4-17.8c2.2-7.4,10-11.8,17.5-9.5c8.5,2.6,11.6,11.1,9.6,17.6
			C45.9,36.9,38.1,41.3,30.5,39z"/>
		<path class="st42" d="M38.6,11.6c-7.5-2.3-15.3,2.1-17.5,9.5c-2.3,7.7,1.8,15.5,9.4,17.8c7.5,2.3,15.4-2.1,17.7-9.7
			C50.2,22.7,47.2,14.2,38.6,11.6z M38.1,33.5C34.6,35,30.4,34,28,31.3c-2.6-3.1-2.9-7.2-0.8-10.7c0.5-0.7,0.9-1.5,1.7-1.9l0,0
			c0.3-1.6,0.9-3,2.6-3.6c1.9-0.7,3.5-0.1,5.1,1.7c3.8,0.9,6.5,4,6.8,7.9C43.7,28.4,41.5,32.1,38.1,33.5z"/>
		<path class="st6" d="M36.7,16.7c0.2,1,0.6,2.1,0.2,3.2c-0.6,1.7-2.2,2.9-4,2.9c-1.8-0.1-3.4-1.4-3.8-3.2c-0.1-0.3-0.1-0.7-0.2-1
			l0,0l0,0c-0.8,0.4-1.3,1.2-1.7,1.9c-2.2,3.6-1.9,7.7,0.8,10.7c2.4,2.8,6.6,3.7,10.1,2.2c3.4-1.4,5.6-5.1,5.3-8.9
			C43.1,20.8,40.5,17.7,36.7,16.7z"/>
		<path class="st43" d="M29.5,19.9c0.7,1.8,2.5,2.8,4.3,2.4c1.8-0.4,3-2.1,2.9-4c0-0.6-0.4-1.1,0-1.7c-1.6-1.9-3.2-2.4-5.1-1.7
			c-1.7,0.6-2.3,2-2.6,3.6C29.4,19,29.4,19.5,29.5,19.9z"/>
		<path class="st43" d="M29.1,19.6c0.4,1.8,2,3.2,3.8,3.2c1.8,0,3.4-1.2,4-2.9c0.4-1.1,0-2.1-0.2-3.2c-0.4,0.6,0,1.1,0,1.7
			c0.1,1.9-1.1,3.6-2.9,4c-1.8,0.4-3.6-0.6-4.3-2.4c-0.2-0.5-0.2-1-0.6-1.3l0,0C29,18.9,29,19.3,29.1,19.6z"/>
	</g>
</g>
</svg>
