<?xml version="1.0" encoding="utf-8"?>
<!-- Generator: Adobe Illustrator 22.1.0, SVG Export Plug-In . SVG Version: 6.00 Build 0)  -->
<svg version="1.1" id="Layer_1" xmlns="http://www.w3.org/2000/svg" xmlns:xlink="http://www.w3.org/1999/xlink" x="0px" y="0px"
	 viewBox="0 0 57.6 42.6" style="enable-background:new 0 0 57.6 42.6;" xml:space="preserve">
<style type="text/css">
	.st0{fill:#F2F2F2;}
	.st1{fill:#333333;}
	.st2{fill:#D78021;}
	.st3{fill:#B4C580;}
	.st4{fill:#D78D8E;}
	.st5{fill:#E0AB08;}
	.st6{fill:#030708;}
	.st7{fill:#DFDFDF;}
	.st8{fill:#606060;}
	.st9{opacity:0.2;clip-path:url(#SVGID_8_);fill:url(#SVGID_9_);}
	.st10{fill:#FFFFFF;}
	.st11{clip-path:url(#SVGID_11_);}
	.st12{clip-path:url(#SVGID_15_);}
	.st13{clip-path:url(#SVGID_19_);}
	.st14{opacity:0.38;}
	.st15{clip-path:url(#SVGID_23_);}
	.st16{clip-path:url(#SVGID_27_);}
	.st17{clip-path:url(#SVGID_31_);}
	.st18{clip-path:url(#SVGID_35_);}
	.st19{clip-path:url(#SVGID_39_);}
	.st20{opacity:0.72;}
	.st21{opacity:0.2;clip-path:url(#SVGID_45_);fill:url(#SVGID_46_);}
	.st22{opacity:0.4;clip-path:url(#SVGID_48_);fill:url(#SVGID_49_);}
	.st23{clip-path:url(#SVGID_55_);}
	.st24{clip-path:url(#SVGID_65_);}
	.st25{clip-path:url(#SVGID_69_);}
	.st26{clip-path:url(#SVGID_71_);}
	.st27{clip-path:url(#SVGID_75_);}
	.st28{clip-path:url(#SVGID_77_);}
	.st29{clip-path:url(#SVGID_79_);}
	.st30{clip-path:url(#SVGID_85_);}
	.st31{clip-path:url(#SVGID_89_);}
	.st32{clip-path:url(#SVGID_91_);}
	.st33{fill:none;stroke:#35495D;stroke-width:2.8788;stroke-linecap:round;stroke-linejoin:round;stroke-dasharray:5.7576,20.1517;}
	.st34{fill:none;stroke:#35495D;stroke-width:2.8788;stroke-linecap:round;stroke-linejoin:round;}
	.st35{fill:none;stroke:#35495D;stroke-width:4.798;stroke-linecap:round;stroke-linejoin:round;stroke-dasharray:0,11.1315;}
	.st36{fill:none;stroke:#35495D;stroke-width:4.798;stroke-linecap:round;stroke-linejoin:round;stroke-dasharray:0,12.6668;}
	.st37{fill:none;stroke:#35495D;stroke-width:1.9192;stroke-linecap:round;stroke-linejoin:round;}
	.st38{fill:none;stroke:#35495D;stroke-width:1.4394;stroke-linecap:round;stroke-linejoin:round;}
	.st39{fill:#4D4D4D;}
	.st40{fill:#58595A;}
	.st41{fill:#008751;}
	.st42{fill:#E0D780;}
	.st43{fill:#E0E0E0;}
	.st44{fill:#595A5B;}
	.st45{fill:#2AA5D5;}
	.st46{fill:#29A7D7;}
	.st47{fill:#88BECC;}
</style>
<g>
	<g>
		<polygon class="st6" points="18.2,8.2 18.2,8.2 18.2,8.2 		"/>
		<path class="st6" d="M18,8c0,0.1,0.1,0.2,0.1,0.2c0,0,0,0,0.1,0C18.1,8.1,18.1,8,18,8z"/>
		<path class="st6" d="M18.2,8.2C18.2,8.2,18.2,8.2,18.2,8.2C18.2,8.2,18.2,8.2,18.2,8.2C18.2,8.2,18.2,8.2,18.2,8.2z"/>
		<path class="st6" d="M50.5,21c3.8-1.6,6-4.2,6.6-8c-0.2-0.3,0.2-0.8-0.3-1.1c-2.3,2.3-5,2.8-7.9,1.5c3.2-2.7,4-4.9,2.9-8
			c-2,2.1-4.3,3.1-7.2,2.4c1.7-2.7,1.9-4.7,0.9-6.4c-0.3,0.3-0.6,0.6-0.9,0.8c-2.4,2.2-5.8,3.6-9.7,1c-0.3-0.2-0.6-0.3-0.9-0.5
			c-4.6-2.3-9.3-3.6-14.4-2.2C10.8,3.1,4.7,8.7,1,16.9c-1.3,2.9-1.3,5.9-0.1,8.9c2.2,5.2,5.9,9.2,10.4,12.4c3.9,2.7,8.1,4.5,13,4.3
			c4.1-0.1,7.8-1.6,11.3-3.7c2.9-1.8,5.7-1.5,8.4,0.4c0.7,0.5,1.3,1,2,1.6c0.4-1.2,0.4-2.3,0.3-3.4c-0.2-1.2-0.8-2.1-1.6-3.1
			c3.1-0.8,5.4,0.2,7.5,2.3c0.7-3.5-0.1-6.2-3.4-8.1c3.4-1.1,6.2-0.9,8.7,2c-0.2-2.4-0.9-4.3-2.1-6C54.2,22.9,52.5,21.8,50.5,21z
			 M41.5,25.3C40,32.7,35.3,37.5,28,39.4c-8.7,2.2-17.9-2.6-21.1-11C3.5,19.9,7,10.1,14.8,5.7c0.3-0.1,0.5-0.2,0.8-0.3
			c1.3-0.8,2.7-1.3,4.2-1.5C25.4,2.5,30.6,3.7,35,7.3C40.7,11.9,43,18.1,41.5,25.3z"/>
		<path class="st44" d="M57.1,13c0.3-0.4,0.2-0.8,0.2-1.2c0-0.2-0.1-0.4-0.3-0.2c-0.1,0.1-0.2,0.3-0.3,0.4
			C57.5,12.1,57.2,12.6,57.1,13z"/>
		<path class="st44" d="M57.1,13c0.1-0.4,0.4-0.9-0.3-1.1C57.3,12.2,56.9,12.7,57.1,13z"/>
		<path class="st45" d="M35,7.3c-4.4-3.6-9.6-4.8-15.2-3.4C20.5,4,20.9,4.3,21.1,5c-0.6,0.1-1.1,0.1-1.7,0.2c-0.1,0-0.4-0.4-0.4,0
			c0.2,1.2-0.2,2.1-0.9,3c0,0,0,0,0,0c1.3-0.3,2.6-0.7,4-0.9c3.7-0.4,7.1,0.6,10,2.8c7.2,5.6,7.7,15.7,1,21.9
			c-4.2,3.9-9.3,4.8-14.7,2.8c-5.6-2.2-8.7-6.5-9-12.6C9.2,16,12,11.5,17.4,8.6c0.2-0.1,0.4-0.3,0.7-0.4C18.1,8.1,18,8,18,8
			c-0.3-0.2-0.8-0.1-1-0.6c-0.1-0.1-0.8-0.2-1,0.1c-0.1,0.1,0,0.5-0.4,0.3c-0.3-0.1-0.4-0.2-0.2-0.6c0.2-0.5,0.2-1.2,0.2-1.8
			c-0.3,0.1-0.5,0.2-0.8,0.3C7,10.1,3.5,19.9,6.9,28.4c3.3,8.3,12.5,13.2,21.1,11c7.3-1.9,12-6.7,13.5-14.1
			C43,18.1,40.7,11.9,35,7.3z"/>
		<path class="st46" d="M15.7,7.3C16.9,6.9,17.5,7,18,8c0.1,0,0.1,0.1,0.2,0.2l0,0l0,0l0,0l0,0c0,0,0,0,0,0C18,8,17.9,7.7,18,7.6
			c1-0.7,0.4-2,1-2.8c0.3-0.4,1.1-0.1,1.8,0c-0.4-0.4-0.8-0.6-1-1c-1.5,0.2-2.9,0.7-4.2,1.5C16,6,15.6,6.6,15.7,7.3z"/>
		<path class="st46" d="M15.6,7.8C16,8,15.9,7.6,16,7.5c0.3-0.3,1-0.2,1-0.1c0.2,0.5,0.7,0.4,1,0.6c-0.5-0.9-1.1-1.1-2.3-0.7
			C15.6,6.6,16,6,15.6,5.3c-0.1,0.6,0,1.3-0.2,1.8C15.2,7.6,15.3,7.6,15.6,7.8z"/>
		<path class="st46" d="M20.8,4.9c-0.7-0.1-1.5-0.4-1.8,0c-0.6,0.8,0,2-1,2.8c-0.1,0.1,0,0.3,0.1,0.5c0.7-0.9,1.1-1.8,0.9-3
			c-0.1-0.4,0.2,0,0.4,0c0.6,0,1.1-0.1,1.7-0.2c-0.2-0.7-0.6-1-1.3-1.2C20,4.3,20.5,4.4,20.8,4.9z"/>
		<path class="st47" d="M18.2,8.2L18.2,8.2C18.1,8.2,18.1,8.2,18.2,8.2c0,0.1,0,0.1,0,0.2c-0.2,0.4-0.6,0.6-1,0.8
			C8.8,13.8,7.1,24.8,14,31.5c3.7,3.6,8.3,4.7,13.4,3.3c5.1-1.4,8.3-4.9,9.6-10c2.1-7.8-2.9-15.2-10.2-17c-2.4-0.6-4.7-0.5-7.1,0.1
			c-0.5,0.1-0.9,0.4-1.5,0.2C18.2,8.2,18.2,8.2,18.2,8.2C18.2,8.2,18.2,8.2,18.2,8.2L18.2,8.2z M22.2,12.7c0.6-0.1,1.2-0.3,1.8,0.1
			l0,0c1.7-1.4,3.3-1.7,4.9-0.8c1.7,1,2.4,2.5,2,4.5c1.7,1.9,1.8,4.2,1.4,6.5c-0.7,4.4-4.8,7.6-9,7.3C18.5,30,15,26.5,14.8,22
			C14.6,17.4,17.7,13.4,22.2,12.7z"/>
		<path class="st47" d="M19.7,8.1c2.3-0.7,4.7-0.7,7.1-0.1c7.3,1.8,12.3,9.2,10.2,17c-1.4,5.1-4.5,8.5-9.6,10
			c-5,1.4-9.6,0.3-13.4-3.3c-6.9-6.7-5.2-17.7,3.2-22.4c0.4-0.2,0.8-0.4,1-0.8c0-0.1-0.1-0.1-0.1-0.2c-0.2,0.1-0.4,0.3-0.7,0.4
			C12,11.5,9.2,16,9.5,22.2c0.3,6.1,3.4,10.4,9,12.6c5.3,2.1,10.4,1.2,14.7-2.8c6.6-6.2,6.2-16.3-1-21.9c-2.9-2.2-6.3-3.2-10-2.8
			c-1.4,0.1-2.7,0.6-4,0.9c0,0,0.1,0.1,0.1,0.1C18.8,8.5,19.3,8.2,19.7,8.1z"/>
		<polygon class="st47" points="18.2,8.2 18.2,8.2 18.2,8.2 		"/>
		<path class="st6" d="M14.8,22c0.2,4.5,3.7,8,8.5,8.3c4.2,0.3,8.3-2.9,9-7.3c0.4-2.3,0.3-4.6-1.4-6.5c-0.5,1.7-1.7,2.8-3.5,3
			c-1.8,0.2-3.1-0.5-3.9-2.1c-0.9-1.6-0.6-3.2,0.6-4.6l0,0l0,0c-0.6-0.4-1.2-0.2-1.8-0.1C17.7,13.4,14.6,17.4,14.8,22z"/>
		<path class="st43" d="M23.6,14.1c-0.8,1.8-0.1,3.8,1.8,4.8c1.5,0.8,3.6,0.3,4.6-1.3c0.3-0.4,0.4-0.9,0.9-1c0.4-2-0.2-3.5-2-4.5
			c-1.6-0.9-3.2-0.7-4.9,0.8C24.2,13.3,23.8,13.7,23.6,14.1z"/>
		<path class="st43" d="M23.4,17.5c0.8,1.6,2.2,2.3,3.9,2.1c1.8-0.2,2.9-1.2,3.5-3c-0.5,0.2-0.6,0.7-0.9,1c-1.1,1.5-3.1,2.1-4.6,1.3
			c-1.8-1-2.5-3-1.8-4.8c0.2-0.4,0.6-0.8,0.4-1.3l0,0C22.8,14.2,22.6,15.8,23.4,17.5z"/>
	</g>
</g>
</svg>
