<?xml version="1.0" encoding="utf-8"?>
<!-- Generator: Adobe Illustrator 22.1.0, SVG Export Plug-In . SVG Version: 6.00 Build 0)  -->
<svg version="1.1" id="Layer_1" xmlns="http://www.w3.org/2000/svg" xmlns:xlink="http://www.w3.org/1999/xlink" x="0px" y="0px"
	 viewBox="0 0 59.6 52.2" style="enable-background:new 0 0 59.6 52.2;" xml:space="preserve">
<style type="text/css">
	.st0{fill:#F2F2F2;}
	.st1{fill:#333333;}
	.st2{fill:#D78021;}
	.st3{fill:#B4C580;}
	.st4{fill:#D78D8E;}
	.st5{fill:#E0AB08;}
	.st6{fill:#030708;}
	.st7{fill:#DFDFDF;}
	.st8{fill:#606060;}
	.st9{opacity:0.2;clip-path:url(#SVGID_8_);fill:url(#SVGID_9_);}
	.st10{fill:#FFFFFF;}
	.st11{clip-path:url(#SVGID_11_);}
	.st12{clip-path:url(#SVGID_15_);}
	.st13{clip-path:url(#SVGID_19_);}
	.st14{opacity:0.38;}
	.st15{clip-path:url(#SVGID_23_);}
	.st16{clip-path:url(#SVGID_27_);}
	.st17{clip-path:url(#SVGID_31_);}
	.st18{clip-path:url(#SVGID_35_);}
	.st19{clip-path:url(#SVGID_39_);}
	.st20{opacity:0.72;}
	.st21{opacity:0.2;clip-path:url(#SVGID_45_);fill:url(#SVGID_46_);}
	.st22{opacity:0.4;clip-path:url(#SVGID_48_);fill:url(#SVGID_49_);}
	.st23{clip-path:url(#SVGID_55_);}
	.st24{clip-path:url(#SVGID_65_);}
	.st25{clip-path:url(#SVGID_69_);}
	.st26{clip-path:url(#SVGID_71_);}
	.st27{clip-path:url(#SVGID_75_);}
	.st28{clip-path:url(#SVGID_77_);}
	.st29{clip-path:url(#SVGID_79_);}
	.st30{clip-path:url(#SVGID_85_);}
	.st31{clip-path:url(#SVGID_89_);}
	.st32{clip-path:url(#SVGID_91_);}
</style>
<g>
	<g>
		<g>
			<path class="st8" d="M44.1,0c3.5,1.4,5.6,4.2,7.3,7.5c3.2,6.1,4.8,12.7,6,19.4c1.4,7.9,2.1,15.9,2.1,23.9c0,0.5,0,1-0.4,1.3
				c-0.2,0.1-0.4,0.1-0.7,0.1c-1.8,0-3.7,0-5.5,0c-0.2,0-0.3,0-0.5-0.1c-0.3-0.2-0.4-0.6-0.4-1c0-10.2-0.6-20.4-2.2-30.5
				c-0.6-3.6-1.5-7.1-2.5-10.6c-0.5-1.7-1.2-3.4-2.3-4.8c-1.5-2-3.2-2-4.7,0c-1.8,2.4-2.6,5.2-3.4,8.1c-2.6,9.7-3.3,19.9-3.5,29.9
				c0,1.3-0.1,2.7-0.1,4c0,0.4,0,0.8-0.4,1c-0.2,0.1-0.4,0.1-0.5,0.1c-1.8,0-3.7,0-5.5,0c-0.2,0-0.4,0-0.6-0.1
				C26,48.1,26,47.5,26,47c0.1-10.1-0.6-20.4-2.7-30.3c-0.5-2.4-1-5.2-2.1-7.5c-0.6-1.6-1.3-3.1-2.4-4.4c-1.4-1.4-2.8-1.4-4.1,0.1
				c-1.2,1.4-1.9,3.2-2.4,4.9c-2,6.1-2.9,12.3-3.6,18.7C7.8,36,7.5,43.6,7.5,51.2c0,0.3,0,0.7-0.3,0.8c-0.2,0.1-0.4,0.1-0.5,0.1
				c-2.1,0.1-4.2,0.1-6.3,0.1c-0.1,0-0.2,0-0.3-0.1c-0.1-0.1-0.1-0.2-0.1-0.3c0.1-10,0.5-20,2.7-29.7C2.9,21,3.1,20,3.4,19
				c0.7-2.6,1.5-5.3,2.6-7.8C7,8.4,8.4,5.8,10.2,3.5c1.4-1.7,3-3.2,5.3-3.5c0.9,0,1.8,0,2.7,0c3.3,0.6,5.2,3,6.8,5.5
				c2.2,3.4,3.6,7.1,4.8,11.1c1.2-3.7,2.5-7.3,4.5-10.6c1.1-1.8,2.5-3.2,4-4.6c0.9-0.8,2.1-1.1,3.2-1.4C42.3,0,43.2,0,44.1,0z"/>
		</g>
	</g>
</g>
</svg>
