<?xml version="1.0" encoding="utf-8"?>
<!-- Generator: Adobe Illustrator 22.1.0, SVG Export Plug-In . SVG Version: 6.00 Build 0)  -->
<svg version="1.1" id="Layer_1" xmlns="http://www.w3.org/2000/svg" xmlns:xlink="http://www.w3.org/1999/xlink" x="0px" y="0px"
	 viewBox="0 0 160.1 51.6" style="enable-background:new 0 0 160.1 51.6;" xml:space="preserve">
<style type="text/css">
	.st0{fill:#F2F2F2;}
	.st1{fill:#333333;}
	.st2{fill:#D78021;}
	.st3{fill:#B4C580;}
	.st4{fill:#D78D8E;}
	.st5{fill:#E0AB08;}
	.st6{fill:#030708;}
	.st7{fill:#DFDFDF;}
	.st8{fill:#606060;}
	.st9{opacity:0.2;clip-path:url(#SVGID_8_);fill:url(#SVGID_9_);}
	.st10{fill:#FFFFFF;}
	.st11{clip-path:url(#SVGID_11_);}
	.st12{clip-path:url(#SVGID_15_);}
	.st13{clip-path:url(#SVGID_19_);}
	.st14{opacity:0.38;}
	.st15{clip-path:url(#SVGID_23_);}
	.st16{clip-path:url(#SVGID_27_);}
	.st17{clip-path:url(#SVGID_31_);}
	.st18{clip-path:url(#SVGID_35_);}
	.st19{clip-path:url(#SVGID_39_);}
	.st20{opacity:0.72;}
	.st21{opacity:0.2;clip-path:url(#SVGID_45_);fill:url(#SVGID_46_);}
	.st22{opacity:0.4;clip-path:url(#SVGID_48_);fill:url(#SVGID_49_);}
	.st23{clip-path:url(#SVGID_55_);}
	.st24{clip-path:url(#SVGID_65_);}
	.st25{clip-path:url(#SVGID_69_);}
	.st26{clip-path:url(#SVGID_71_);}
	.st27{clip-path:url(#SVGID_75_);}
	.st28{clip-path:url(#SVGID_77_);}
	.st29{clip-path:url(#SVGID_79_);}
	.st30{clip-path:url(#SVGID_85_);}
	.st31{clip-path:url(#SVGID_89_);}
	.st32{clip-path:url(#SVGID_91_);}
</style>
<g>
	<g>
		<g>
			<g>
				<path class="st8" d="M42.6,31.9c2.7-2.7,5.4-5.4,8.2-8.2c1.8-1.8,3.6-3.5,5.2-5.5c0.9-1.1,1.7-2.2,2-3.7
					c0.4-1.9,0.1-3.7-0.1-5.6c-0.2-1.8-0.7-3.5-1.1-5.2c-0.3-1.3-0.6-2.6-0.9-3.8c0,0-0.1,0-0.1,0c-0.5,0.1-1,0.4-1.5,0.6
					c-3.4,1.5-6.8,3-10.2,4.5c-1.1,0.5-2.2,1-3.3,1.5c-0.4,0.2-0.4,0.3-0.3,0.7c0.1,0.3,0.2,0.6,0.3,0.9c0.2,0.5,0.3,0.6,0.8,0.4
					c1-0.4,2-0.7,3.2-0.7c1.1,0,1.7,0.4,2.2,1.4c0.3,0.7,0.5,1.4,0.6,2.1c0.2,1.2,0.4,2.4,0.6,3.6c0.3,1.5,0.5,3,0.4,4.6
					c0,0.8-0.2,1.5-0.8,2.1c-1.8,1.9-3.7,3.8-5.5,5.7c-0.1,0.1-0.1,0.2-0.3,0.2c-0.1-0.2-0.1-0.4-0.1-0.6c-0.5-3.4-1.1-6.7-1.7-10.1
					c-0.7-4.3-1.4-8.6-2.1-12.9C37.8,3,37.6,2,37.5,1.1c-0.1-0.5-0.2-0.6-0.7-0.4c-0.3,0.1-0.7,0.3-1,0.4c-2.2,1-4.4,2-6.5,3
					c-1.9,0.8-3.7,1.7-5.6,2.5c-1,0.4-2,0.9-3,1.3c-0.5,0.2-0.5,0.3-0.3,0.8c0.1,0.3,0.2,0.5,0.3,0.8c0.2,0.6,0.3,0.6,0.8,0.4
					c0.9-0.4,1.9-0.7,2.9-0.9c1.6-0.2,2.7,0.5,3.2,2c0.1,0.3,0.1,0.5,0.2,0.8c0.4,2.6,0.8,5.3,1.3,7.9c0.1,0.4,0,0.6-0.3,0.9
					c-1.3,1.3-2.7,2.6-4,3.9c-1.1,1.1-2.2,2.2-3.3,3.3c-0.1,0.1-0.2,0.2-0.3,0.3C21,28.2,21,28.1,21,28c-0.1-0.6-0.2-1.2-0.3-1.7
					c-0.8-4.7-1.5-9.4-2.2-14c-0.6-3.7-1.2-7.4-1.8-11c-0.1-0.6-0.1-0.7-0.7-0.4c-1.7,0.7-3.4,1.4-5.2,2.1C7.4,4.3,4,5.7,0.5,7.1
					C0.3,7.2,0.1,7.3,0,7.5c0,0.1,0,0.3,0,0.4c0.2,0.2,0.2,0.5,0.2,0.8c0,0.3,0.2,0.3,0.4,0.2C1.5,8.5,2.4,8.2,3.3,8
					c1.3-0.4,2.2,0,2.9,1.2c0.4,0.8,0.7,1.6,0.8,2.5c1.6,8.4,3.3,16.7,4.6,25.2c0.3,1.7,0.5,3.4,0.6,5.2c0,1.6-0.3,3.2-1.3,4.6
					c-0.7,1-1.5,2-2.4,2.8c-0.2,0.2-0.2,0.3,0,0.5c0.4,0.4,0.7,0.7,1,1.1c0.2,0.2,0.3,0.2,0.5,0c2.8-2.4,5.5-4.9,7.9-7.6
					c1.1-1.2,2.1-2.5,2.8-4c0.9-1.8,1-3.7,0.9-5.7c0-0.2,0-0.4,0.2-0.6c2.6-2.9,5.2-5.8,7.9-8.6c0.1-0.1,0.1-0.2,0.2-0.1
					c0.3,2,0.6,4,0.9,6c0.5,3.2,0.9,6.5,1.5,9.7c0.3,1.8,0.1,3.5-0.7,5.2c-0.8,1.6-1.8,3-2.9,4.4c-0.2,0.2-0.2,0.3,0,0.5
					c0.4,0.4,0.7,0.7,1,1.1c0.2,0.2,0.3,0.2,0.5,0c1.3-1,2.5-2.1,3.7-3.2c2.2-2,4.3-4,6-6.4c0.7-1,1.4-2,1.7-3.3c0.5-2,0.6-4,0.6-6
					C42.3,32.3,42.4,32.1,42.6,31.9z"/>
				<path class="st8" d="M104.1,29.2c-3.1,0-6.1,0-9.2,0c-0.2,0-0.4,0.1-0.3-0.3c0.6-2.7,1.2-5.3,2.1-7.9c0.4-1.2,1-2.2,2.1-2.9
					c1.3-0.9,2.7-0.4,3.1,1.2c0.2,0.7,0.1,1.5,0,2.2c-0.2,1.2-0.5,2.4-0.9,3.5c-0.1,0.2-0.1,0.3,0.2,0.3c1.3,0,2.5,0.1,3.8,0
					c0.3,0,0.4-0.1,0.4-0.3c0.7-2,1.2-4.1,1.5-6.2c0.1-0.7,0.3-1.3,0-2c-0.5-1.5-2.4-2.9-4-2.9c-1.6-0.1-3,0.5-4.4,1.2
					c-1.7,0.9-3.2,2.1-4.8,3.2c-1,0.7-1.6,1.6-2,2.7c-0.7,2.6-1.4,5.2-2.2,7.8c-0.1,0.3-0.2,0.4-0.5,0.4c-1.7,0-3.3,0-5,0
					c-0.3,0-0.4-0.1-0.3-0.4c0.3-1.7,0.7-3.4,0.9-5.1c0.1-1.2-0.2-2.2-1.1-3.1c-0.2-0.2-0.3-0.2-0.6-0.1c-1.1,0.5-2.1,1-3.2,1.5
					c-0.6,0.3-0.6,0.3-0.4,1c0.2,0.7,0.5,1.5,0.2,2.3c-0.4,1.2-0.7,2.4-1,3.6c-0.1,0.2-0.1,0.3-0.4,0.3c-0.8,0-1.6,0-2.4,0
					c-0.3,0-0.3,0.1-0.4,0.3c-0.1,0.6-0.2,1.2-0.2,1.9c0.8,0,1.6,0,2.4,0c0.1,0.2,0,0.3-0.1,0.5c-0.7,2.6-1.4,5.1-2.1,7.7
					c-0.6,2.3-1.2,4.5-1.6,6.8c-0.1,0.6,0,1.1,0.3,1.6c0.6,0.8,1.4,1.6,2.2,2.2c0.6,0.4,1.1,0.5,1.7,0.2c2-0.9,3.7-2.2,5.4-3.4
					c0.1-0.1,0.1-0.2,0.1-0.3c-0.2-0.4-0.4-0.9-0.6-1.3c-0.3,0.2-0.5,0.4-0.8,0.5c-0.6,0.4-1.2,0.7-1.9,0.8c-0.4,0.1-0.7-0.1-1-0.4
					c-0.4-0.5-0.4-1.1-0.3-1.7c1-4.3,2.2-8.6,3.4-12.9c0.1-0.3,0.2-0.3,0.4-0.3c1.9,0,3.7,0,5.6,0c0.1,0,0.2,0,0.4,0
					c-1.8,6.3-3.6,12.5-5.4,18.8c0.2,0,0.3,0,0.4,0c1.3,0,2.6,0,3.9,0c0.3,0,0.4-0.1,0.5-0.4c1-3.6,2.1-7.2,3.1-10.8
					c0.7-2.4,1.4-4.8,2.1-7.2c0-0.2,0-0.4,0.3-0.4c0.9,0,1.7,0,2.6,0.1c1.1,0.2,1.5,0.7,1.4,1.8c0,0.2-0.1,0.4-0.1,0.6
					c-0.9,3.7-1.8,7.3-2.9,10.9c-0.3,1-0.2,1.8,0.3,2.6c0.1,0.1,0.2,0.3,0.2,0.4c0.6,0.9,1.2,1.7,2.1,2.3c0.7,0.4,1.4,0.6,2.1,0.2
					c1.4-0.8,2.7-1.8,4-2.7c0.1-0.1,0.1-0.2,0.1-0.3c-0.2-0.3-0.4-0.7-0.6-1.1c-0.1-0.2-0.2-0.2-0.4-0.1c-0.5,0.4-1,0.7-1.6,0.8
					c-0.4,0.1-0.6,0-0.9-0.3c-0.5-0.5-0.4-1.1-0.2-1.7c1.5-5.1,2.9-10.2,4.2-15.3C104.6,29.1,104.7,29.2,104.1,29.2z"/>
				<path class="st8" d="M70.5,39.3c-0.2-0.1-0.3-0.2-0.5-0.3c-0.5-0.2-1-0.5-1.4-0.7c-0.6-0.3-1.2-0.6-1.8-0.9
					c-0.5-0.3-1-0.6-1-1.3c0-1.5,0.5-2.9,1.5-4c0.3-0.4,0.8-0.6,1.3-0.5c0.6,0,1.1,0.4,1.4,0.9c0.5,0.7,0.9,1.5,1.3,2.4
					c0.1,0.2,0.1,0.3,0.4,0.2c1.1-0.6,2.1-1.2,3.2-1.9c0.2-0.1,0.2-0.2,0.1-0.4c-0.5-1-1.1-1.9-1.8-2.7c-0.8-0.8-1.6-1.4-2.9-1.2
					c-1.7,0.3-3.4,0.5-4.9,1.1c-1.3,0.5-2.4,1.3-3.1,2.6c-0.7,1.4-1.1,2.8-1.3,4.3c-0.1,1.6,0.3,2.8,1.8,3.5c0,0,0.1,0,0.1,0.1
					c1,0.6,2,1.1,3.1,1.6c0.4,0.2,0.7,0.5,0.9,0.9c0.4,1.2-0.2,3.1-1.3,3.9c-0.4,0.3-0.8,0.3-1.3,0c-0.4-0.2-0.6-0.6-0.9-0.9
					c-0.6-1-1.1-2.1-1.4-3.2c-0.1-0.2-0.1-0.3-0.4-0.2c-1.3,0.7-2.5,1.5-3.8,2.2c-0.2,0.1-0.3,0.2-0.2,0.4c0.2,0.5,0.4,1.1,0.6,1.6
					c1.1,2.1,2.8,3.4,5.3,3.4c0.2,0,0.4,0,0.6,0c2-0.2,3.7-1.2,5.3-2.3c1.5-1.1,2.5-2.5,2.9-4.3C72.7,41.5,72.6,40.7,70.5,39.3z"/>
				<path class="st8" d="M160,14c0-0.3-0.2-0.4-0.5-0.4c-2.8,0.1-5.3,0.8-7.7,2.2c-1.1,0.6-1.8,1.5-2.1,2.7c-1,3.5-2,6.9-3,10.4
					c-0.1,0.3-0.2,0.4-0.4,0.2c-0.7-0.4-1.4-0.7-2.1-0.9c-0.7-0.2-1.4-0.3-2.1-0.2c-0.7,0.2-1.4,0.4-2.1,0.6
					c-2.9,0.9-4.9,2.6-5.9,5.6c-1.1,3-1.9,6.1-2.5,9.2c-0.1,0.7-0.4,1.2-0.9,1.6c-0.6,0.5-1.2,1-2,1.3c-1.1,0.3-1.9-0.4-1.7-1.5
					c0-0.2,0.1-0.3,0.1-0.5c1.2-3.9,2.2-7.9,3.3-11.9c1.2-4.5,2.5-9.1,4-13.5c0.4-1,1-1.8,1.9-2.4c0.9-0.5,1.8-0.9,2.8-1.1
					c0.4-0.1,0.9,0,1-0.2c0.2-0.3,0-0.7,0-1.1c0-0.2-0.1-0.3-0.3-0.3c-0.8,0-1.5,0-2.3,0.1c-1.7,0.1-3.4,0.4-4.9,1.2
					c-1.5,0.7-2.5,1.8-3.1,3.4c-0.5,1.4-1,2.9-1.4,4.3c-2.1,6.7-4,13.5-5.9,20.3c-0.3,1-0.6,2-0.7,3.1c0,0.3,0,0.5,0.1,0.8
					c0.5,1.6,1.6,2.5,3.2,3c0.4,0.1,0.9,0.1,1.3-0.1c1.9-0.9,3.9-1.8,5.7-3c0.3-0.2,0.4-0.2,0.6,0.1c0.9,1.1,1.8,2.1,3.1,2.8
					c0.7,0.4,1.5,0.5,2.3,0.2c1.6-0.5,3.1-1.2,4.5-2c0.3-0.2,0.4-0.1,0.7,0.1c0.8,0.9,1.7,1.6,2.8,2c0.7,0.3,1.4,0.3,2.1-0.1
					c1.8-1,3.6-2.2,5.3-3.3c0.1-0.1,0.2-0.2,0.1-0.3c-0.2-0.5-0.5-1-0.7-1.4c-0.1-0.2-0.2-0.2-0.3-0.1c-0.5,0.3-1,0.7-1.5,1
					c-0.7,0.4-1.4,0.8-2.2,1c-0.7,0.1-1-0.1-1.2-0.8c-0.2-0.7-0.1-1.4,0.1-2.1c1.9-8.4,4.3-16.7,7-24.9c0.2-0.7,0.7-1.4,1.3-1.9
					c1-0.9,2.2-1.3,3.5-1.7c0.3-0.1,0.7,0,0.8-0.3C160.2,14.7,160,14.4,160,14z M145.2,34.3c-0.8,2.9-1.4,5.8-2.3,8.6
					c-0.1,0.4-0.2,0.8-0.4,1.1c-0.5,1.4-1.8,2.3-3.4,2.3c-2,0-3.1-1.4-2.7-3.4c0.4-1.9,1.1-3.8,1.6-5.6c0.4-1.6,0.8-3.2,1.3-4.7
					c0.5-1.6,2.1-2.4,3.7-1.9C144.4,31.1,145.6,32.8,145.2,34.3z"/>
				<path class="st8" d="M49.2,40.9c0.7,0.1,1.5,0.2,2.2,0.2c0.6,0,1.2,0,1.8-0.1c2.6-0.4,4.6-1.5,5.7-4c0.8-1.8,1.3-3.6,0.8-5.6
					c-0.3-1.5-1.2-2.3-2.7-2.4c-1.1-0.1-2.2,0-3.3,0.2c-2,0.4-3.9,1.2-5.7,2c-0.7,0.3-1.3,0.8-1.8,1.4c-0.4,0.6-0.8,1.2-1,1.9
					c-0.6,1.8-1.1,3.6-1.7,5.4c-0.5,1.5-0.9,3-1.1,4.6c-0.1,0.8,0,1.6,0.5,2.2c0.8,1.1,1.7,2.1,2.9,2.8c1.2,0.8,2.5,1.3,3.9,0.6
					c2.5-1.2,4.7-2.7,7-4.1c0.1-0.1,0.2-0.2,0.1-0.3c-0.2-0.3-0.5-0.6-0.7-1c-0.2-0.3-0.3-0.3-0.6-0.1c-1.2,0.9-2.4,1.6-3.9,2
					c-0.5,0.1-1,0.2-1.5-0.1c-1-0.6-1.6-1.4-1.7-2.5c-0.2-1,0.2-2,0.6-2.9C48.8,40.9,48.9,40.8,49.2,40.9z M51.2,32.5
					c0.2-0.5,0.6-0.8,1.1-1c0.6-0.3,1.3-0.3,1.9,0.1c0.6,0.4,0.8,1,0.7,1.7c-0.2,1.6-0.7,3-1.4,4.4c-0.3,0.7-1,0.9-1.7,1
					c-0.2,0-0.5,0-0.7,0c-0.8-0.1-1.2-0.6-1.2-1.4c0-0.2,0-0.4,0-0.6C49.7,35.1,50.5,33.8,51.2,32.5z"/>
				<path class="st8" d="M121.6,30.2c-0.4-1-1.1-1.6-2.1-1.7c-0.3-0.1-0.7-0.1-1-0.1c-1,0-2,0.2-3,0.5c-2,0.7-3.8,1.7-5.7,2.6
					c-0.2,0.1-0.3,0.2-0.5,0.3c-1.1,0.8-1.7,1.9-2.1,3.2c-0.7,2.1-1.4,4.2-1.9,6.3c-0.3,1.1-0.5,2.2-0.5,3.3c0,0.9,0.3,1.7,0.9,2.4
					c0.8,0.8,1.6,1.6,2.5,2.3c0.7,0.5,1.5,1,2.4,1.3c0.8,0.3,1.5,0.2,2.3-0.2c1.7-1,3.5-2.1,5.2-3.1c0.4-0.3,0.9-0.5,1.3-0.8
					c0.2-0.1,0.2-0.2,0.1-0.3c-0.2-0.3-0.5-0.6-0.6-0.9c-0.2-0.3-0.3-0.4-0.7-0.1c-1,0.7-2.1,1.4-3.3,1.8c-1.7,0.6-2.3,0.6-3.8-1
					c-0.1-0.1-0.1-0.2-0.2-0.3c-0.5-0.7-0.7-1.5-0.6-2.3c0.1-1,0.4-1.9,0.7-2.8c0.1-0.3,0.2-0.3,0.5-0.2c1.3,0.4,2.7,0.7,4.1,0.6
					c2.1-0.1,3.8-0.9,5-2.7c0.7-1.2,1.3-2.4,1.5-3.8C122.2,32.8,122.1,31.5,121.6,30.2z M117.4,32.8c-0.2,1.6-0.7,3-1.4,4.4
					c-0.5,1-2.3,1.4-3.2,0.7c-0.4-0.3-0.5-0.7-0.5-1.2c0-0.2,0-0.5,0-0.7c-0.1-1.5,0.7-2.8,1.3-4.1c0.3-0.6,0.8-1,1.5-1.2
					C116.5,30.5,117.5,31.5,117.4,32.8z"/>
			</g>
		</g>
	</g>
</g>
</svg>
