<?xml version="1.0" encoding="utf-8"?>
<!-- Generator: Adobe Illustrator 22.1.0, SVG Export Plug-In . SVG Version: 6.00 Build 0)  -->
<svg version="1.1" id="Layer_1" xmlns="http://www.w3.org/2000/svg" xmlns:xlink="http://www.w3.org/1999/xlink" x="0px" y="0px"
	 viewBox="0 0 466.7 160.6" style="enable-background:new 0 0 466.7 160.6;" xml:space="preserve">
<style type="text/css">
	.st0{fill:white;}
</style>
<g>
	<defs>
        
        <!-- a transparent glow that takes on the colour of the object it's applied to -->
        <filter id="glow">
            <feGaussianBlur stdDeviation="5" result="coloredBlur"/>
            <feMerge>
                <feMergeNode in="coloredBlur"/>
                <feMergeNode in="SourceGraphic"/>
            </feMerge>
        </filter>
        
    </defs>
    
    
	<g>
		<g filter="url(#glow)">
			<path class="st0" d="M56,94.3c0-10.1-7.3-12.7-18.7-16.9c-5.4-2-17-6.8-17-23.5c0-18.6,14.4-28.2,29.4-28.2
				c11.3,0,17.6,5,19.9,5c1.6,0,2.4-1.8,3.7-4h1.8l-3.8,25.9h-1.6C68,34.8,61.9,28.1,50.6,28.1c-9.6,0-15.2,5.9-15.2,14
				c0,9,7.3,11.6,13.2,13.9c10.2,4,23.8,7.7,23.8,25.4c0,19.4-14.8,30.7-31.4,30.7c-12.2,0-21.2-5.3-24.1-5.3
				c-1.6,0-2.4,2.3-4.1,5.8h-1.9l4.6-29.4h2c0.6,15.4,7.6,26.4,22.8,26.4C50.8,109.7,56,103.5,56,94.3z"/>
			<path class="st0" d="M75.6,137.4L89.1,56h-9.6l0.5-2.2h30.5l-3.4,15.5l0.4,0.1c4.4-10.3,10.4-16.8,22.6-16.8
				c10.8,0,17.4,7.3,17.4,21c0,23.4-14.2,38.5-29.5,38.5c-8.9,0-13.4-4-14.8-9.4l-5.9,34.5h14.2l-0.5,2.2H67.6l0.5-2.2H75.6z
				 M110.2,70.3c-3.8,9.6-4.6,20.4-4.6,28.9c0,6,2.5,9.2,6.2,9.2c5.6,0,8.3-7.4,10.6-19.3c1.6-8.3,3-18,3-24.2
				c0-5.5-2.2-7.1-4.6-7.1C117.4,57.8,113.6,61.9,110.2,70.3z"/>
			<path class="st0" d="M223.1,102c-4.3,7.1-9.5,10.2-16.1,10.2c-11.9,0-16.3-6-14.4-15.7l-0.6-0.1c-3.2,9.4-9.4,15.8-19.8,15.8
				c-13.9,0-19.3-8-19.3-20.9c0-22.1,10.1-38.6,29.5-38.6c8.9,0,11.6,3.4,13.4,7.9l1.7-6.4c5.8,0.1,17.3,0,22-1
				c-3,14.8-6.1,28.7-8.8,46.1c-0.2,1.6-0.5,3.2-0.5,4.3c0,3.1,1.4,3.8,3.1,3.8c1.8,0,4.4-1.2,7.9-6.6L223.1,102z M190.2,93.8
				c2.6-8.4,4.2-18.4,4.2-27.9c0-7.2-3.4-10-6.7-10c-3.6,0-6.1,3.4-8.5,11.8c-2.6,9.2-4.8,22.4-4.8,31.1c0,4.1,0.5,8.8,5.2,8.8
				C183.3,107.5,187.4,103.3,190.2,93.8z"/>
			<path class="st0" d="M232,87.4l4.3-31.3h-8.2l0.4-2.2h29.6L253,76.4l0.6,0.1c3.5-9.2,12.1-23.9,25.6-23.9
				c5.3,0,11.2,2.6,11.2,10.7c0,7.9-5.2,11.5-11.4,11.6c-2.6,0-5.5-0.6-8.3-2l-0.7-10c-6.5,0.2-12.8,9-15.8,22.1
				c-2.5,11-3.1,18.5-3.4,25.3c-5-0.2-18,0.7-24.1,1.6L232,87.4z"/>
			<path class="st0" d="M356.6,102.1c-4.7,7.1-9.7,10.1-17.8,10.1c-8.6,0-18.6-2.5-15.7-15.5l1.4-6.4c1.3-5.9,0-7.6-3.2-7.6
				c-2.2,0-4.1,0.8-4.2,0.8l-4.3,26.9c-3.5,0-19.9,0.6-23.6,1.6l5.5-25.6l9.5-63.3h-8l0.4-2.2h31.2l-10.2,60l7-3.1
				c9.5-4.2,12.8-8,12.7-11.8l-5-1.6c-1.1-6.6,2-12.5,10.4-12.5c7.7,0,9.8,4.9,9.8,9.2c0,5.9-4.7,9.8-11.9,12.7l-15.4,6.1l0.1,0.2
				c2.9-0.5,5.4-0.8,9-0.8c11.5,0,12.5,6.8,10.9,14.5l-1.7,8.3c-0.8,4,0.7,5.3,2.8,5.3c2.8,0,5-1.9,8.6-6.8L356.6,102.1z"/>
			<path class="st0" d="M395.1,101.7c-5.5,7.8-9.6,10.4-17.5,10.4c-11,0-16.6-4.8-16.6-15.1c0-4.4,0.5-8.3,4-25.6l9.6-48.3h-8.5
				l0.4-2.2h30.7l-13.9,74.6c-0.6,3.1-1.3,6.2-1.3,8.3c0,2.2,0.7,3.4,3,3.4c1.9,0,4.6-1.6,8.3-7L395.1,101.7z"/>
			<path class="st0" d="M455.9,66.2c0,11.8-12.8,15.2-24,16.8c-3.8,0.5-6.8,0.6-9.4,0.6c-1.7,16.9,1.7,24.2,10.1,24.2
				c5.9,0,12.4-4.2,16.6-17.3l2.4,0.7c-4.4,14.8-13.2,20.9-27.6,20.9c-15.2,0-24.2-8.2-24.2-22.3c0-24.6,14.9-37.2,36.1-37.2
				C449.5,52.7,455.9,57.4,455.9,66.2z M434.8,55c-6.5,0-10.2,11.9-12,26.4c8.2-0.4,15.6-4.3,15.6-19.1
				C438.4,57.8,437.7,55,434.8,55z"/>
		</g>
	</g>
</g>
</svg>
