<?xml version="1.0" encoding="utf-8"?>
<!-- Generator: Adobe Illustrator 22.1.0, SVG Export Plug-In . SVG Version: 6.00 Build 0)  -->
<svg version="1.1" id="Layer_1" xmlns="http://www.w3.org/2000/svg" xmlns:xlink="http://www.w3.org/1999/xlink" x="0px" y="0px"
	 viewBox="0 0 54 54" style="enable-background:new 0 0 54 54;" xml:space="preserve">
<style type="text/css">
	.st0{fill:#F2F2F2;}
	.st1{fill:#333333;}
	.st2{fill:#D78021;}
	.st3{fill:#B4C580;}
	.st4{fill:#D78D8E;}
	.st5{fill:#E0AB08;}
	.st6{fill:#030708;}
	.st7{fill:#DFDFDF;}
	.st8{fill:#606060;}
	.st9{opacity:0.2;clip-path:url(#SVGID_8_);fill:url(#SVGID_9_);}
	.st10{fill:#FFFFFF;}
	.st11{clip-path:url(#SVGID_11_);}
	.st12{clip-path:url(#SVGID_15_);}
	.st13{clip-path:url(#SVGID_19_);}
	.st14{opacity:0.38;}
	.st15{clip-path:url(#SVGID_23_);}
	.st16{clip-path:url(#SVGID_27_);}
	.st17{clip-path:url(#SVGID_31_);}
	.st18{clip-path:url(#SVGID_35_);}
	.st19{clip-path:url(#SVGID_39_);}
	.st20{opacity:0.72;}
	.st21{opacity:0.2;clip-path:url(#SVGID_45_);fill:url(#SVGID_46_);}
	.st22{opacity:0.4;clip-path:url(#SVGID_48_);fill:url(#SVGID_49_);}
	.st23{clip-path:url(#SVGID_55_);}
	.st24{clip-path:url(#SVGID_65_);}
	.st25{clip-path:url(#SVGID_69_);}
	.st26{clip-path:url(#SVGID_71_);}
	.st27{clip-path:url(#SVGID_75_);}
	.st28{clip-path:url(#SVGID_77_);}
	.st29{clip-path:url(#SVGID_79_);}
	.st30{clip-path:url(#SVGID_85_);}
	.st31{clip-path:url(#SVGID_89_);}
	.st32{clip-path:url(#SVGID_91_);}
	.st33{fill:none;stroke:#35495D;stroke-width:2.8788;stroke-linecap:round;stroke-linejoin:round;stroke-dasharray:5.7576,20.1517;}
	.st34{fill:none;stroke:#35495D;stroke-width:2.8788;stroke-linecap:round;stroke-linejoin:round;}
	.st35{fill:none;stroke:#35495D;stroke-width:4.798;stroke-linecap:round;stroke-linejoin:round;stroke-dasharray:0,11.1315;}
	.st36{fill:none;stroke:#35495D;stroke-width:4.798;stroke-linecap:round;stroke-linejoin:round;stroke-dasharray:0,12.6668;}
	.st37{fill:none;stroke:#35495D;stroke-width:1.9192;stroke-linecap:round;stroke-linejoin:round;}
	.st38{fill:none;stroke:#35495D;stroke-width:1.4394;stroke-linecap:round;stroke-linejoin:round;}
	.st39{fill:#4D4D4D;}
	.st40{fill:#58595A;}
	.st41{fill:#008751;}
	.st42{fill:#E0D780;}
	.st43{fill:#E0E0E0;}
	.st44{fill:#595A5B;}
	.st45{fill:#2AA5D5;}
	.st46{fill:#29A7D7;}
	.st47{fill:#88BECC;}
	.st48{fill:url(#SVGID_92_);}
	.st49{fill:url(#SVGID_93_);}
</style>
<g>
	<g>
		
			<radialGradient id="SVGID_2_" cx="-12798.0244" cy="-6805.1851" r="27" gradientTransform="matrix(-1 0 0 -1 -12771.0244 -6778.1851)" gradientUnits="userSpaceOnUse">
			<stop  offset="0" style="stop-color:#6EBCE7"/>
			<stop  offset="0.3237" style="stop-color:#70BDE7;stop-opacity:0.6739"/>
			<stop  offset="0.4827" style="stop-color:#78C1E9;stop-opacity:0.5138"/>
			<stop  offset="0.6057" style="stop-color:#85C7EB;stop-opacity:0.3898"/>
			<stop  offset="0.7103" style="stop-color:#98CFEE;stop-opacity:0.2845"/>
			<stop  offset="0.8031" style="stop-color:#B0DAF2;stop-opacity:0.1909"/>
			<stop  offset="0.8877" style="stop-color:#CEE8F7;stop-opacity:0.1057"/>
			<stop  offset="0.9644" style="stop-color:#F0F8FD;stop-opacity:2.848768e-02"/>
			<stop  offset="0.9927" style="stop-color:#FFFFFF;stop-opacity:0"/>
		</radialGradient>
		<circle style="fill:url(#SVGID_2_);" cx="27" cy="27" r="27"/>
		<g>
			<g>
				<g>
					<path class="st10" d="M47.3,27.5h-4.9c-0.3,0-0.5-0.2-0.5-0.5s0.2-0.5,0.5-0.5h4.9c0.3,0,0.5,0.2,0.5,0.5S47.6,27.5,47.3,27.5z
						"/>
				</g>
				<g>
					<path class="st10" d="M44.3,32.2c0,0-0.1,0-0.1,0l-2.4-0.5c-0.3-0.1-0.4-0.3-0.4-0.6c0.1-0.3,0.3-0.4,0.6-0.4l2.4,0.5
						c0.3,0.1,0.4,0.3,0.4,0.6C44.8,32,44.6,32.2,44.3,32.2z"/>
				</g>
				<g>
					<path class="st10" d="M45,37.7c-0.1,0-0.1,0-0.2,0l-4.5-2.1c-0.2-0.1-0.4-0.4-0.2-0.7c0.1-0.3,0.4-0.4,0.7-0.2l4.5,2.1
						c0.2,0.1,0.4,0.4,0.2,0.7C45.4,37.6,45.2,37.7,45,37.7z"/>
				</g>
				<g>
					<path class="st10" d="M40.3,40.7c-0.1,0-0.2,0-0.3-0.1l-1.9-1.5c-0.2-0.2-0.3-0.5-0.1-0.7c0.2-0.2,0.5-0.3,0.7-0.1l1.9,1.5
						c0.2,0.2,0.3,0.5,0.1,0.7C40.6,40.6,40.5,40.7,40.3,40.7z"/>
				</g>
				<g>
					<path class="st10" d="M38.6,46c-0.1,0-0.3-0.1-0.4-0.2l-3.2-3.8c-0.2-0.2-0.1-0.5,0.1-0.7c0.2-0.2,0.5-0.1,0.7,0.1l3.2,3.8
						c0.2,0.2,0.1,0.5-0.1,0.7C38.9,46,38.8,46,38.6,46z"/>
				</g>
				<g>
					<path class="st10" d="M33.1,46.7c-0.2,0-0.4-0.1-0.4-0.3l-1.1-2.2c-0.1-0.2,0-0.5,0.2-0.7c0.2-0.1,0.5,0,0.7,0.2l1.1,2.2
						c0.1,0.2,0,0.5-0.2,0.7C33.3,46.7,33.2,46.7,33.1,46.7z"/>
				</g>
				<g>
					<path class="st10" d="M41.9,23.3c-0.2,0-0.4-0.2-0.5-0.4c-0.1-0.3,0.1-0.5,0.4-0.6l2.4-0.5c0.3-0.1,0.5,0.1,0.6,0.4
						c0.1,0.3-0.1,0.5-0.4,0.6L42,23.3C42,23.3,42,23.3,41.9,23.3z"/>
				</g>
				<g>
					<path class="st10" d="M40.6,19.4c-0.2,0-0.4-0.1-0.5-0.3c-0.1-0.2,0-0.5,0.2-0.7l4.5-2.1c0.2-0.1,0.5,0,0.7,0.2
						c0.1,0.2,0,0.5-0.2,0.7l-4.5,2.1C40.7,19.3,40.7,19.4,40.6,19.4z"/>
				</g>
				<g>
					<path class="st10" d="M38.4,15.8c-0.2,0-0.3-0.1-0.4-0.2c-0.2-0.2-0.1-0.5,0.1-0.7l1.9-1.5c0.2-0.2,0.5-0.1,0.7,0.1
						c0.2,0.2,0.1,0.5-0.1,0.7l-1.9,1.5C38.6,15.8,38.5,15.8,38.4,15.8z"/>
				</g>
				<g>
					<path class="st10" d="M35.5,12.8c-0.1,0-0.2,0-0.3-0.1c-0.2-0.2-0.2-0.5-0.1-0.7l3.2-3.8C38.4,8,38.8,7.9,39,8.1
						c0.2,0.2,0.2,0.5,0.1,0.7l-3.2,3.8C35.8,12.7,35.6,12.8,35.5,12.8z"/>
				</g>
				<g>
					<path class="st10" d="M32,10.4c-0.1,0-0.2,0-0.2-0.1c-0.2-0.1-0.3-0.4-0.2-0.7l1.1-2.2c0.1-0.2,0.4-0.3,0.7-0.2
						c0.2,0.1,0.3,0.4,0.2,0.7l-1.1,2.2C32.4,10.3,32.2,10.4,32,10.4z"/>
				</g>
			</g>
		</g>
		<g>
			<g>
				<path class="st10" d="M34,27c0,0.1,0,0.1,0,0.2c0,0.1-0.1,0.1-0.1,0.2l-4.5,4.5C29.3,31.9,29.1,32,29,32s-0.3,0-0.4-0.1
					c-0.2-0.2-0.2-0.5,0-0.7l3.6-3.7H12.5c-0.3,0-0.5-0.2-0.5-0.5c0-0.3,0.2-0.5,0.5-0.5h19.8l-3.6-3.6c-0.2-0.2-0.2-0.5,0-0.7
					c0.2-0.2,0.5-0.2,0.7,0l4.4,4.4l0.1,0.1l0,0c0,0.1,0.1,0.1,0.1,0.1C34,26.9,34,26.9,34,27z"/>
			</g>
		</g>
	</g>
</g>
</svg>
