<svg id="Layer_1" data-name="Layer 1" xmlns="http://www.w3.org/2000/svg" viewBox="0 0 1400 443.23"><defs><style>.cls-1{fill:none;}.cls-2{fill:#fff;}</style></defs><title>NunoErin_testimonial-bg</title><g id="_Group_" data-name="&lt;Group&gt;"><rect class="cls-1" width="1400" height="443.23"/><path class="cls-2" d="M209.73,134.65C187.87,146.51,173,161.33,173,173.94c0,5.19,3.33,10.37,8.9,13.71L196,175.05c8.15,3,15.57,11.12,15.57,24.46,0,24.1-18.91,32.25-31.88,32.25-25.2,0-34.1-17.42-34.1-33,0-30.76,25.58-51.15,61.16-70.05Zm77.47,0c-21.87,11.86-36.69,26.68-36.69,39.29,0,5.19,3.33,10.37,8.89,13.71l14.09-12.6c8.15,3,15.56,11.12,15.56,24.46,0,24.1-18.9,32.25-31.88,32.25-25.2,0-34.09-17.42-34.09-33,0-30.76,25.57-51.15,61.15-70.05Z"/><path class="cls-2" d="M1197,223.25c20.14-10.93,33.81-24.59,33.81-36.2,0-4.79-3.08-9.57-8.2-12.64l-13,11.61c-7.51-2.73-14.35-10.25-14.35-22.54,0-22.21,17.43-29.72,29.38-29.72,23.23,0,31.42,16.05,31.42,30.4,0,28.35-23.57,47.14-56.36,64.55Zm-71.39,0c20.15-10.93,33.81-24.59,33.81-36.2,0-4.79-3.08-9.57-8.2-12.64l-13,11.61c-7.51-2.73-14.34-10.25-14.34-22.54,0-22.21,17.42-29.72,29.37-29.72,23.23,0,31.43,16.05,31.43,30.4,0,28.35-23.57,47.14-56.36,64.55Z"/></g></svg>