<svg id="Layer_1" data-name="Layer 1" xmlns="http://www.w3.org/2000/svg" viewBox="0 0 1400 653"><defs><style>.cls-1{fill:#fff;}.cls-2{fill:none;}</style></defs><title>NunoErin_header-text</title><path class="cls-1" d="M142.11,329.94l2.28-2.62c5.17,4.77,9.93,7,16.85,7s11.88-4,11.88-9.33v-.13c0-5-2.62-7.86-13.29-10-11.28-2.29-15.84-6.11-15.84-13.23v-.13c0-7,6.37-12.35,15.1-12.35a23.45,23.45,0,0,1,16.11,5.7L173,297.59a20.21,20.21,0,0,0-14-5.31c-6.92,0-11.48,4-11.48,8.86v.14c0,5,2.55,8,13.69,10.27,10.87,2.21,15.44,6.11,15.44,12.95v.14c0,7.58-6.51,12.82-15.57,12.82C153.52,337.46,147.75,335,142.11,329.94Z"/><path class="cls-1" d="M188.09,289.8h17c10.33,0,17.45,5.3,17.45,14.36v.14c0,9.87-8.53,15-18.33,15H191.58v17.52h-3.49ZM204.46,316c8.73,0,14.64-4.56,14.64-11.54v-.13c0-7.45-5.78-11.35-14.23-11.35H191.58v23Z"/><path class="cls-1" d="M232.92,289.8h19.74c5.77,0,10.4,1.81,13.22,4.63a12.38,12.38,0,0,1,3.56,8.73v.13c0,7.86-5.84,12.35-13.76,13.43l15.5,20.07h-4.43l-15-19.47H236.41v19.47h-3.49Zm19.33,24.37c7.86,0,13.7-4,13.7-10.74v-.14C266,297,261,293,252.46,293H236.41v21.15Z"/><path class="cls-1" d="M281.92,289.8h3.49v47h-3.49Z"/><path class="cls-1" d="M299.84,289.8h3.29l32.42,40.88V289.8h3.36v47h-2.62L303.2,295v41.75h-3.36Z"/><path class="cls-1" d="M352.87,289.8h3.49v30.88l29.93-30.88h4.77l-20.54,20.74,21.41,26.25h-4.56L368,313l-11.68,11.82v12h-3.49Z"/><path class="cls-1" d="M400.86,289.8h3.49v43.76h27.59v3.23H400.86Z"/><path class="cls-1" d="M442.88,289.8h3.49v47h-3.49Z"/><path class="cls-1" d="M460.8,289.8h3.29l32.42,40.88V289.8h3.35v47h-2.61L464.15,295v41.75H460.8Z"/><path class="cls-1" d="M511.74,313.43v-.14c0-12.68,9.2-24.3,23.23-24.3a24.64,24.64,0,0,1,17.18,6.18l-2.28,2.62a21.18,21.18,0,0,0-15.11-5.64c-11.41,0-19.39,9.66-19.39,21v.13c0,12.15,7.58,21.21,20.13,21.21a24.09,24.09,0,0,0,15-5.37V315.64H534.76v-3.22h19.07v18.12a28.26,28.26,0,0,1-18.46,7C520.53,337.59,511.74,326.65,511.74,313.43Z"/><path class="cls-1" d="M231.06,426.78c-3.63,5.65-7.37,8.88-14.84,8.88-7.67,0-12.92-3.23-12.92-11.71a68.32,68.32,0,0,1,1.31-9.79l5.15-25.74h-8l.3-1.82h26.75c-4,19.58-5.75,28.37-7.07,35.43a54.69,54.69,0,0,0-1,7.07c0,1.82,1,2.42,2.12,2.42,1.82,0,3.94-1.81,6.67-5.85Zm-21.5-55c0-6.86,6.06-10.9,13.12-10.9,5.76,0,9.29,2.62,9.29,7.67,0,6.86-6.16,10.8-13,10.8C211.58,379.33,209.56,375.19,209.56,371.76Z"/><path class="cls-1" d="M272.15,399.82c1.71-6.56,1.91-9.08-.91-9.08-2.22,0-5.56,2.42-9.39,10.5-3.64,7.67-5.65,16.76-6.77,33.11-3.12-.1-17.26.4-20.08,1l4.24-18.78,4.13-28.16h-7l.2-1.82h25.54l-3.94,16.76.31.1c4.54-10,9.28-17.87,20.89-17.87,6.57,0,9.19,3.33,9.19,8.28a24.52,24.52,0,0,1-1.51,7.47l.4.1c2.83-6.16,7.67-15.85,19.59-15.85,6.76,0,10.39,3.84,10.49,9.49a36.74,36.74,0,0,1-1.11,8.68l-4.74,19a40.43,40.43,0,0,0-1.21,6.36c0,2,1.21,2.42,2.62,2.42s3.84-1.61,6.36-5.85l1.72,1c-3.84,6.05-7.57,9-14.94,9-7.68,0-13.23-3.23-13.23-11.81,0-6.66,5.15-22,6-24,1.71-4.74,3.43-9.08-.2-9.08-2.22,0-5.15,3.13-8.18,9-4.34,8.38-6.66,20-8.28,34.63-2.93-.1-16.66.4-19.18,1C265.79,423.35,268.92,412.44,272.15,399.82Z"/><path class="cls-1" d="M384.1,427.08c-3.64,6-8,8.58-13.53,8.58-10,0-13.73-5.05-12.11-13.22l-.51-.1c-2.73,7.87-7.87,13.32-16.66,13.32-11.71,0-16.25-6.76-16.25-17.56,0-18.58,8.48-32.51,24.83-32.51,7.47,0,9.8,2.83,11.31,6.66l1.41-5.35c4.85.1,14.54,0,18.48-.81-2.53,12.42-5.15,24.13-7.37,38.77a28.93,28.93,0,0,0-.41,3.63c0,2.63,1.22,3.24,2.63,3.24s3.74-1,6.66-5.56Zm-27.66-6.86A80.87,80.87,0,0,0,360,396.69c0-6.05-2.83-8.37-5.65-8.37-3,0-5.15,2.82-7.17,9.89-2.22,7.77-4,18.88-4,26.15,0,3.43.4,7.37,4.34,7.37C350.58,431.73,354,428.19,356.44,420.22Z"/><path class="cls-1" d="M395.8,451.21c-.9,4.14,1.11,6.36,5.66,6.36,7.77,0,12-5.45,16.35-23,.61-2.62,1-4.14,1.72-7.47l-.41-.2c-2.52,4.54-6.76,8.78-15.54,8.78-10.4,0-15.95-5.65-15.95-17.26,0-15.24,5.85-32.81,24.23-32.81,7.57,0,10.39,4.24,11.81,7.37l1.41-6c4.75.1,14.54-.1,18.47-.91-2.12,10.3-3.43,15.55-7.47,42.1-3.23,21.4-16.15,31.7-34.32,31.7-8.88,0-18-3.53-18-11.71,0-6.46,4.34-9.89,9.39-9.89s9.69,2.92,8.38,11.2Zm22.92-30a69.87,69.87,0,0,0,3.74-21.61c0-6.56-2.23-10.6-5.76-10.6s-5.75,3.64-7.57,10.3a96.56,96.56,0,0,0-3.63,24.93c0,3.74.8,7.48,4.54,7.48C413.07,431.73,416.2,428.6,418.72,421.23Z"/><path class="cls-1" d="M478.08,426.78c-3.64,5.65-7.37,8.88-14.84,8.88-7.68,0-12.92-3.23-12.92-11.71a66.92,66.92,0,0,1,1.31-9.79l5.15-25.74h-8l.3-1.82h26.76c-4,19.58-5.76,28.37-7.07,35.43a54.69,54.69,0,0,0-1,7.07c0,1.82,1,2.42,2.12,2.42,1.82,0,3.94-1.81,6.66-5.85Zm-21.51-55c0-6.86,6.06-10.9,13.13-10.9,5.75,0,9.29,2.62,9.29,7.67,0,6.86-6.16,10.8-13,10.8C458.59,379.33,456.57,375.19,456.57,371.76Z"/><path class="cls-1" d="M513.31,424.15c0-6.36,4.64-20.29,5.75-24.22,1.52-5.56,2.52-9.29-.81-9.29-3.53,0-6.26,3.93-9.08,9.79-4.85,10-5.86,21.81-7.07,33.82-3.13-.1-17.26.4-20.09,1l4.34-18.88,4-28h-7.17l.2-1.82h25.75l-3.84,16.56.3.1c3.64-9.29,8.69-17.67,20.9-17.67,7.47,0,11.21,4.24,11.21,10.9a31,31,0,0,1-1,7.27l-4.85,19.38a30,30,0,0,0-1.11,6c0,1.92,1,2.42,2.32,2.42,1.82,0,3.74-1.11,6.77-5.85l1.61,1c-3.33,5.45-7.06,9-14.84,9S513.31,432.43,513.31,424.15Z"/><path class="cls-1" d="M604.36,427.08c-3.63,6-8,8.58-13.53,8.58-10,0-13.72-5.05-12.11-13.22l-.5-.1c-2.73,7.87-7.88,13.32-16.66,13.32-11.71,0-16.26-6.76-16.26-17.56,0-18.58,8.49-32.51,24.84-32.51,7.47,0,9.79,2.83,11.31,6.66l1.41-5.35c4.85.1,14.54,0,18.47-.81-2.52,12.42-5.14,24.13-7.37,38.77a28.69,28.69,0,0,0-.4,3.63c0,2.63,1.21,3.24,2.63,3.24s3.73-1,6.66-5.56Zm-27.66-6.86a80.87,80.87,0,0,0,3.53-23.53c0-6.05-2.82-8.37-5.65-8.37-3,0-5.15,2.82-7.17,9.89-2.22,7.77-4,18.88-4,26.15,0,3.43.4,7.37,4.34,7.37C570.85,431.73,574.28,428.19,576.7,420.22Z"/><path class="cls-1" d="M611.83,414.77l3.63-26.35H608.6l.3-1.82h24.94l-4.34,19,.5.1c2.93-7.77,10.2-20.09,21.5-20.09,4.45,0,9.39,2.22,9.39,9s-4.34,9.7-9.59,9.8a15.08,15.08,0,0,1-7-1.72l-.61-8.38c-5.45.2-10.8,7.57-13.32,18.58a105.35,105.35,0,0,0-2.83,21.3,162.17,162.17,0,0,0-20.29,1.31Z"/><path class="cls-1" d="M664.82,450.3c-1.91,2.32-1.81,7,3.23,7,5.25,0,12-4.34,19.39-13.43C683.6,429.71,677.65,409,674.72,399c-1.21-4.34-1.92-6.46-3.84-6.46s-2.93,1.71-5.55,7.57l-2-.81c2.52-6.06,6.06-13.73,16.76-13.73,6.86,0,10.5,3.13,12.72,10.5,3.13,10.3,5.35,19.89,8.18,30.18,8.58-12.62,11.3-18.57,11.3-22.81,0-2.93-1.41-4-3.63-4.24l-3,4.24c-5.15-1.31-7.47-5.15-7.47-9a8.74,8.74,0,0,1,9.08-8.88c6.36,0,10,4.24,10,11.51,0,9.69-9.39,23.92-16.56,33.51-11.3,15.05-20.39,29.28-35.23,29.28-7.57,0-12.62-4.64-12.62-11.41,0-6.36,4.54-10.09,9.79-10.09,4.65,0,9.29,3.43,7.37,11.2Z"/><path class="cls-1" d="M145.6,485.53h3.49v47H145.6Z"/><path class="cls-1" d="M163.52,485.53h3.29l32.42,40.88V485.53h3.35v47H200l-33.09-41.75v41.75h-3.36Z"/><path class="cls-1" d="M229.57,488.75H213.19v-3.22h36.24v3.22H233.06v43.77h-3.49Z"/><path class="cls-1" d="M254.27,509.16V509c0-12.82,9.47-24.3,23.69-24.3s23.57,11.34,23.57,24.16c.06.07.06.07,0,.14,0,12.82-9.47,24.3-23.7,24.3S254.27,522,254.27,509.16Zm43.63,0V509c0-11.62-8.46-21.15-20.07-21.15s-19.93,9.4-19.93,21V509c0,11.61,8.45,21.14,20.06,21.14S297.9,520.77,297.9,509.16Z"/><path class="cls-1" d="M333.54,485.53H367v3.22H337v18.46H364v3.23H337V529.3H367.3v3.22H333.54Z"/><path class="cls-1" d="M374.48,485.53h3.9l18.39,43.23,18.46-43.23h3.69l-20.67,47.32h-3.09Z"/><path class="cls-1" d="M428.85,485.53h33.43v3.22H432.34v18.46h26.92v3.23H432.34V529.3h30.28v3.22H428.85Z"/><path class="cls-1" d="M473.82,485.53h19.74c5.77,0,10.4,1.82,13.22,4.63a12.38,12.38,0,0,1,3.56,8.73V499c0,7.86-5.84,12.36-13.76,13.43l15.5,20.07h-4.43l-15-19.47H477.31v19.47h-3.49Zm19.33,24.37c7.86,0,13.7-4,13.7-10.74V499c0-6.3-5-10.27-13.49-10.27H477.31V509.9Z"/><path class="cls-1" d="M536,513.93l-20.13-28.4h4.36l17.59,25.24,17.65-25.24h4.16l-20.14,28.33v18.66H536Z"/><path class="cls-1" d="M568.74,485.53h15.64c14.76,0,25,10.14,25,23.36V509c0,13.22-10.21,23.49-25,23.49H568.74Zm15.64,43.77c13.09,0,21.34-8.93,21.34-20.14V509c0-11.15-8.25-20.28-21.34-20.28H572.23V529.3Z"/><path class="cls-1" d="M636.07,485.2h3.35l21.88,47.32h-3.82l-6-13.16H623.78l-6,13.16h-3.63Zm14,31L637.68,489l-12.42,27.19Z"/><path class="cls-1" d="M679.15,513.93,659,485.53h4.37L681,510.77l17.66-25.24h4.16l-20.14,28.33v18.66h-3.49Z"/><path class="cls-1" d="M732,485.53h3.49V529.3h27.59v3.22H732Z"/><path class="cls-1" d="M774.06,485.53h3.49v47h-3.49Z"/><path class="cls-1" d="M792,485.53h33.09v3.22h-29.6V508h26.58v3.22H795.47v21.28H792Z"/><path class="cls-1" d="M836,485.53h33.43v3.22H839.5v18.46h26.92v3.23H839.5V529.3h30.27v3.22H836Z"/><path class="cls-1" d="M164.34,433H154.07v2.28h-1.38V433h-5v-1.5h5V426h1.38v5.51h10.12c2.24,0,3-1.33,3-3.14a5.28,5.28,0,0,0-.55-2.31h1.41a5.76,5.76,0,0,1,.56,2.56C168.65,431,167.33,433,164.34,433Z"/><path class="cls-1" d="M145.93,418.42v-1.51h9.68a6.15,6.15,0,0,1-3.29-5.66c0-4,2.71-6.27,6.46-6.27h9.59v1.51h-9.31c-3.23,0-5.35,1.81-5.35,5a5.37,5.37,0,0,0,5.59,5.44h9.07v1.51Z"/><path class="cls-1" d="M160.56,397.57h-.06c-4.55,0-8.18-3.2-8.18-7.44,0-4.4,3.57-7.19,8.21-7.19a4.09,4.09,0,0,1,.62,0v13c3.9-.27,6.18-3.07,6.18-6.15a7.07,7.07,0,0,0-2.46-5.38l.92-1a8.24,8.24,0,0,1,3,6.49C168.74,394,165.45,397.57,160.56,397.57Zm-.77-13c-3.16.21-6.08,2-6.08,5.62,0,3.11,2.61,5.51,6.08,5.78Z"/><rect class="cls-2" width="1400" height="653"/></svg>