<?xml version="1.0" encoding="utf-8"?>
<!-- Generator: Adobe Illustrator 22.1.0, SVG Export Plug-In . SVG Version: 6.00 Build 0)  -->
<svg version="1.1" id="Layer_1" xmlns="http://www.w3.org/2000/svg" xmlns:xlink="http://www.w3.org/1999/xlink" x="0px" y="0px"
	 viewBox="0 0 94 55.6" style="enable-background:new 0 0 94 55.6;" xml:space="preserve">
<style type="text/css">
	.st0{fill:#F2F2F2;}
	.st1{fill:#333333;}
	.st2{fill:#D78021;}
	.st3{fill:#B4C580;}
	.st4{fill:#D78D8E;}
	.st5{fill:#E0AB08;}
	.st6{fill:#030708;}
	.st7{fill:#DFDFDF;}
	.st8{fill:#606060;}
	.st9{opacity:0.2;clip-path:url(#SVGID_8_);fill:url(#SVGID_9_);}
	.st10{fill:#FFFFFF;}
	.st11{clip-path:url(#SVGID_11_);}
	.st12{clip-path:url(#SVGID_15_);}
	.st13{clip-path:url(#SVGID_19_);}
	.st14{opacity:0.38;}
	.st15{clip-path:url(#SVGID_23_);}
	.st16{clip-path:url(#SVGID_27_);}
	.st17{clip-path:url(#SVGID_31_);}
	.st18{clip-path:url(#SVGID_35_);}
	.st19{clip-path:url(#SVGID_39_);}
	.st20{opacity:0.72;}
	.st21{opacity:0.2;clip-path:url(#SVGID_45_);fill:url(#SVGID_46_);}
	.st22{opacity:0.4;clip-path:url(#SVGID_48_);fill:url(#SVGID_49_);}
	.st23{clip-path:url(#SVGID_55_);}
	.st24{clip-path:url(#SVGID_65_);}
	.st25{clip-path:url(#SVGID_69_);}
	.st26{clip-path:url(#SVGID_71_);}
	.st27{clip-path:url(#SVGID_75_);}
	.st28{clip-path:url(#SVGID_77_);}
	.st29{clip-path:url(#SVGID_79_);}
	.st30{clip-path:url(#SVGID_85_);}
	.st31{clip-path:url(#SVGID_89_);}
	.st32{clip-path:url(#SVGID_91_);}
</style>
<g>
	<g>
		<g>
			<g>
				<path class="st8" d="M10.5,29c0-0.2,0.1-0.4,0.2-0.6c0.2,0,0.1-0.1,0.1-0.2c0-0.3,0.1-0.6,0.2-0.9c0.2,0,0.1-0.1,0.1-0.2
					c0,0,0-0.1,0-0.1c0.3-1.3,0.7-2.6,1-3.9c0.2,0,0.1-0.1,0.1-0.2c0,0,0-0.1,0-0.1c0.2-0.9,0.5-1.8,0.7-2.8c0.2,0,0.1-0.1,0.1-0.2
					c0-0.3,0.1-0.6,0.2-0.9c0.2,0,0.1-0.1,0.1-0.2c0,0,0-0.1,0-0.1c0.2-0.6,0.3-1.2,0.5-1.9c0.2,0,0.1-0.1,0.1-0.2
					c0-0.2,0.1-0.5,0.2-0.7c0.2,0,0.1-0.1,0.1-0.2c0-0.3,0.1-0.6,0.2-0.9c0,0,0.1,0,0.1-0.1c0-0.1,0-0.1-0.1-0.1
					c0.1-0.3,0.2-0.6,0.3-1c0,0,0.1,0,0.1-0.1c0-0.1,0-0.1-0.1-0.1c0.1-0.5,0.2-1,0.4-1.4c0.1-0.2,0-0.2-0.2-0.2c-1,0-2,0-3.1,0
					c-0.4,0-0.3-0.1-0.4,0.4c-0.3,1-0.5,2-0.8,3c-0.2,0.8-0.4,1.6-0.6,2.3c-0.1,0.4-0.1,0.7-0.3,1.1c-1,0-2,0-3,0
					c-0.1,0-0.2,0-0.2-0.1c0.1-0.7,0.4-1.5,0.6-2.2c0.4-1.4,0.7-2.9,1.1-4.3c0-0.1,0-0.1-0.1-0.1c-1,0-2,0-3,0c-0.1,0-0.1,0-0.2,0.1
					c-0.3,0.4-0.6,0.8-1,1.1c-0.5,0.4-1.1,0.6-1.7,0.7c-0.1,0-0.3,0-0.4,0c-0.1,0-0.2,0-0.3,0.2c0,0.1-0.1,0.2-0.1,0.3
					c-0.2,0.6-0.3,1.2-0.5,1.8c0.1,0.1,0.2,0,0.3,0.1h0c0.1,0,0.3,0,0.4,0c0.1,0,0.2,0,0.3,0c0.4-0.1,0.9-0.1,1.3-0.3
					c0.1,0,0.2-0.1,0.2,0c0,0,0,0.2,0,0.2c-0.3,0.9-0.5,1.9-0.8,2.8c-0.3,1.1-0.5,2.2-0.9,3.4c-0.3,1.2-0.7,2.5-1,3.7
					C0.6,26.9,0.3,27.9,0,29c-0.1,0.3,0,0.2,0.2,0.2c0.9,0,1.8,0,2.6,0c0.2,0,0.5,0.1,0.7,0c0.2-0.1,0.1-0.4,0.2-0.6
					c0.1,0,0.1-0.1,0.1-0.2c0-0.3,0.1-0.6,0.2-0.9c0.1,0,0.1-0.1,0.1-0.2c0-0.3,0.1-0.6,0.2-0.9c0.1,0,0.1-0.1,0.1-0.2
					c0-0.3,0.1-0.6,0.2-0.9c0.1,0,0.1-0.1,0.1-0.2c0-0.3,0.1-0.6,0.2-0.9C5.1,24.2,5,24.1,5,24c0-0.3,0.1-0.6,0.2-0.9
					c0.1,0,0.1-0.1,0.1-0.2c0-0.3,0.1-0.6,0.2-0.9c0.1,0,0.1-0.1,0.1-0.2c0-0.1,0-0.2,0.2-0.2c1,0,2,0,2.9,0c0.1,0,0.2,0,0.1,0.2
					c-0.2,0.7-0.4,1.3-0.5,2c-0.3,1-0.5,2-0.8,3.1c-0.2,0.8-0.4,1.5-0.6,2.3c-0.1,0.2,0,0.2,0.2,0.2c1.1,0,2.1,0,3.2,0
					C10.4,29.2,10.5,29.2,10.5,29z M1.1,16.1c0,0,0.1,0,0.1,0C1.2,16.1,1.2,16.1,1.1,16.1z"/>
				<path class="st8" d="M74.2,29.3c-0.2-0.1-0.3-0.2-0.4-0.4c-0.3-0.3-0.6-0.7-0.8-1.1c0,0,0,0-0.1,0c0,0.3,0,0.7,0,1
					c-0.1,0.2,0,0.4,0,0.5l0,0c0,0.1,0,0.2,0,0.4c-0.1,0.1,0,0.2,0,0.3l0,0l0,0c0,0.1,0,0.2,0,0.3c-0.1,0.1,0,0.2,0,0.3
					c0,0.1,0,0.1,0,0.2c-0.1,0.1,0,0.2,0,0.2l0,0l0,0c-0.1,0.5-0.1,1-0.2,1.4c-0.1,0.8-0.3,1.6-0.6,2.4c-0.4,1.4-0.9,2.7-1.5,4
					c-0.4,0.9-0.9,1.8-1.5,2.6c-0.5,0.7-1,1.4-1.5,2.1c-0.4,0.5-0.9,1.1-1.4,1.6c-0.2,0-0.3,0.1-0.2,0.3c-0.1,0.1-0.2,0.2-0.2,0.2
					c-0.2-0.1-0.3,0-0.3,0.2c-0.4,0.5-0.9,0.9-1.4,1.3c-0.5,0.4-1.1,0.8-1.7,1.2c-1,0.7-1.9,1.3-3,1.8c-0.2-0.1-0.3,0-0.3,0.2
					c-0.6,0.3-1.2,0.6-1.8,0.8c-1.2,0.5-2.4,0.9-3.7,1.1c-0.4,0.1-0.8,0.2-1.2,0.2c-0.3,0-0.7,0.1-1,0.2c-0.1,0-0.2,0-0.2,0
					c-0.2,0-0.4,0.1-0.6,0.1c-0.1,0-0.2,0-0.3,0c-0.1,0-0.2,0-0.3,0c-0.1,0-0.2,0-0.4,0c-0.2,0-0.3,0-0.5,0c-0.6,0-1.2,0-1.8,0
					c-0.2,0-0.3,0-0.5,0c-0.1-0.1-0.3,0-0.4,0h0h0c-0.1,0-0.2,0-0.3,0c-0.1-0.1-0.2,0-0.3,0v0l0,0c-0.1,0-0.1,0-0.2,0
					c-0.1-0.1-0.2,0-0.3,0l0,0l0,0c-0.3,0-0.6-0.1-0.9-0.1c-0.9-0.1-1.7-0.3-2.6-0.5c-2.2-0.6-4.3-1.4-6.2-2.6
					c-0.4-0.2-0.8-0.5-1.2-0.7c-0.3-0.2-0.7-0.5-1-0.7c-0.8-0.5-1.5-1.1-2.1-1.8c-0.5-0.4-0.9-0.9-1.4-1.4c-0.4-0.5-0.8-1-1.2-1.5
					c-0.4-0.5-0.8-1-1.1-1.5c0-0.1,0-0.3-0.2-0.3c0,0-0.1,0-0.1-0.1c-0.4-0.7-0.8-1.3-1.2-2c-0.8-1.5-1.4-3.1-1.9-4.7
					c-0.3-1-0.5-2-0.6-3c0-0.2-0.1-0.2-0.2-0.2c-0.4,0-0.9,0-1.3-0.1c-0.2-0.1-0.3-0.1-0.2,0.2c0,0,0,0.1,0,0.2
					c-0.2,0.1-0.1,0.2,0.1,0.3c0.1,0.7,0.2,1.3,0.4,2c-0.2,0.1-0.1,0.2,0,0.3c0.1,0.1,0.1,0.3,0.1,0.5c0.2,0.5,0.3,1.1,0.5,1.6
					c-0.1,0-0.1,0.1-0.1,0.2c0,0.1,0.1,0.1,0.2,0.1c0.1,0.2,0.1,0.4,0.2,0.6c-0.1,0.1-0.1,0.2,0.1,0.2c0.2,0.4,0.4,0.9,0.6,1.4
					c-0.1,0.1-0.1,0.2,0.1,0.2c0.3,0.6,0.7,1.3,1,1.9c0.2,0.4,0.4,0.8,0.7,1.2c0.5,0.7,0.9,1.4,1.4,2c-0.1,0.2,0,0.3,0.2,0.3l0,0
					c0,0.1,0,0.2,0.1,0.2c-0.1,0.3,0,0.3,0.2,0.3c0.2,0.3,0.5,0.5,0.7,0.8c0,0.1,0,0.2,0.1,0.2c0.2,0.2,0.4,0.4,0.6,0.6
					c0,0.3,0,0.4,0.4,0.4h0h0c0.2,0.2,0.5,0.5,0.7,0.7c0,0.2,0.1,0.3,0.3,0.2c0.1,0.1,0.1,0.1,0.2,0.2c0,0.2,0.1,0.3,0.3,0.2
					c0,0,0,0,0.1,0.1c0,0.2,0.1,0.3,0.3,0.2c0,0.3,0.2,0.5,0.5,0.4c0.2,0.2,0.5,0.4,0.7,0.5c0,0.3,0.1,0.3,0.3,0.2c0,0,0,0,0,0
					c0,0.3,0.1,0.3,0.3,0.2c0.1,0.1,0.2,0.2,0.3,0.2c0.7,0.4,1.3,0.9,2,1.2c0,0.1,0.1,0.1,0.2,0.1c0.8,0.4,1.5,0.8,2.3,1.1
					c0,0.2,0.2,0.2,0.4,0.2c0.2,0.1,0.4,0.2,0.6,0.2c0,0.1,0.1,0.1,0.2,0c0.3,0.1,0.7,0.2,1,0.3c0.1,0.2,0.1,0.2,0.3,0.1
					c0.8,0.3,1.6,0.4,2.4,0.6c0.7,0.1,1.3,0.2,2,0.3c0.1,0.1,0.2,0,0.3,0l0,0l0,0c0.1,0,0.1,0,0.2,0c0.1,0,0.2,0,0.3,0
					c0.1,0,0.2,0,0.3,0c0.1,0.1,0.2,0,0.3,0c0,0,0,0,0,0c0.1,0,0.3,0,0.4,0c0.2,0.1,0.4,0,0.5,0h0h0c0.6,0,1.2,0,1.8,0
					c0.2,0,0.4,0,0.5,0c0.1,0,0.3,0,0.4,0c0.1,0,0.3,0.1,0.4,0c0.1,0,0.1,0,0.2,0c0.1,0,0.2,0.1,0.4,0c0,0,0.1,0,0.1,0
					c0.1,0,0.2,0,0.3,0c0.3,0,0.6-0.1,0.8-0.1c0.1,0.1,0.2,0.2,0.3,0c0,0,0.1-0.1,0.2-0.1c0.3-0.1,0.5-0.1,0.8-0.2
					c1.1-0.2,2.1-0.5,3.1-0.8c0.1,0,0.2,0.1,0.2-0.1l0,0c0.4-0.2,0.9-0.3,1.3-0.5c0.1,0.1,0.2,0,0.2-0.1c0.1-0.1,0.2-0.1,0.4-0.2
					c0.1,0.1,0.2,0,0.2-0.1c0.3-0.2,0.6-0.3,0.9-0.4c0.1,0.1,0.2,0,0.2-0.1c0.1,0,0.1-0.1,0.2-0.1c0.1,0,0.1,0,0.2,0
					c0.2,0,0.4-0.1,0.4-0.3c0.1-0.1,0.2-0.2,0.3-0.2C61,51.2,61,51.2,61,51c0,0,0,0,0.1,0c0.1,0,0.2,0,0.2-0.1
					c0.6-0.4,1.1-0.7,1.7-1.1c0.2,0,0.4,0.1,0.3-0.2c0.6-0.5,1.2-0.9,1.8-1.4c0.2,0.1,0.3,0,0.3-0.2c0-0.1,0.1-0.1,0.1-0.1
					c0.1,0,0.2,0,0.2-0.2c0.1-0.1,0.2-0.2,0.3-0.3c0.2,0.1,0.3,0,0.3-0.3c0.3-0.3,0.6-0.6,0.9-0.9c0.1,0,0.2-0.1,0.2-0.2
					c0.1-0.2,0.3-0.3,0.4-0.5c0.1,0,0.2-0.1,0.2-0.2c0.3-0.4,0.6-0.8,0.9-1.1c0.3,0,0.3-0.1,0.2-0.3c0-0.1,0-0.1,0.1-0.1
					c0.1,0,0.2-0.1,0.1-0.2c0.2-0.3,0.4-0.5,0.5-0.8c0.2,0,0.4-0.2,0.4-0.5c0.2-0.4,0.5-0.8,0.7-1.2c0.3,0,0.3,0,0.2-0.3
					c0.4-0.7,0.7-1.5,1.1-2.2c0.3,0,0.2-0.2,0.1-0.3c0,0,0,0,0,0c0.1,0,0.2-0.1,0.1-0.2c0.2-0.7,0.5-1.4,0.7-2
					c0.1,0,0.2-0.1,0.2-0.2c0-0.1,0-0.2-0.1-0.2c0-0.1,0-0.1,0.1-0.2c0.2-0.1,0.2-0.1,0.1-0.3c0,0,0-0.1,0-0.1
					c0.2-0.6,0.3-1.3,0.5-2c0.1-0.6,0.2-1.3,0.3-1.9c0.1-0.1,0-0.2,0-0.2c0-0.1,0-0.1,0-0.2c0.1-0.1,0-0.2,0-0.3c0-0.1,0-0.1,0-0.2
					c0.1-0.1,0-0.2,0-0.3C74.5,29.7,74.4,29.4,74.2,29.3z"/>
				<path class="st8" d="M25.6,16.7c0.2,0,0.3,0,0.4-0.2c0.1,0,0.2,0,0.2-0.1c0-0.1,0-0.1-0.1-0.1c0.1-0.2,0.2-0.5,0.4-0.7
					c0.2,0,0.3,0,0.1-0.2c0.1-0.3,0.3-0.5,0.4-0.8c0.4-0.6,0.8-1.2,1.3-1.8c0.3,0.1,0.2-0.1,0.2-0.2c0-0.1,0.1-0.2,0.2-0.2
					c0.3,0.1,0.2-0.1,0.2-0.2c0.2-0.3,0.5-0.6,0.8-0.9c1.2-1.3,2.5-2.5,4-3.6c1.7-1.2,3.5-2.1,5.4-2.9c0.9-0.3,1.8-0.6,2.7-0.9
					c0.6-0.2,1.3-0.3,1.9-0.4c0.6-0.1,1.2-0.2,1.8-0.2c0.1,0,0.2,0,0.3,0c0.1,0,0.2,0,0.3,0c0.1,0,0.2,0,0.4,0c0.1,0,0.2,0,0.4,0
					c0.2,0,0.4,0,0.6,0c0.4,0,0.9,0,1.3,0c0.2,0.1,0.5,0,0.7,0h0c0.1,0,0.2,0,0.4,0c0.1,0.1,0.2,0,0.3,0h0h0c0.1,0,0.1,0,0.2,0
					c0.1,0.1,0.2,0,0.3,0c0.1,0,0.1,0,0.2,0c0.1,0.1,0.2,0,0.2,0c0.6,0.1,1.1,0.2,1.7,0.3c0.8,0.1,1.6,0.3,2.4,0.6
					c1,0.3,2,0.7,2.9,1.1c1,0.5,2.1,1,3,1.6c0.7,0.5,1.4,0.9,2.1,1.5c0.6,0.5,1.2,0.9,1.7,1.4c0.6,0.5,1.1,1.1,1.6,1.6
					c0.4,0.5,0.8,1,1.2,1.5c0.5,0.6,0.9,1.2,1.3,1.8c0.3,0.5,0.6,1,0.9,1.5c0.2,0.4,0.3,0.9,0.8,1.1c0.8,0.4,1.3,1.1,1.9,1.8
					c0.2,0.3,0.4,0.5,0.6,0.9c0-0.4-0.2-0.6-0.2-1c0-0.1,0.2-0.3-0.1-0.3c-0.1-0.1-0.1-0.3-0.2-0.4c-0.2-0.6-0.5-1.2-0.7-1.8
					c0-0.1,0.1-0.3-0.1-0.3c-0.1-0.1-0.2-0.2-0.2-0.4c0.1-0.2,0.1-0.3-0.2-0.3c-0.2-0.3-0.4-0.7-0.6-1c0.1-0.2,0.1-0.3-0.2-0.3
					c0,0,0,0-0.1-0.1c-1.1-1.8-2.4-3.4-3.8-4.9c-0.4-0.4-0.8-0.8-1.3-1.2c0-0.2-0.1-0.3-0.3-0.2c-0.3-0.3-0.7-0.6-1-0.9
					c0-0.2-0.1-0.3-0.3-0.2c-0.1,0-0.2-0.1-0.3-0.2c0-0.2-0.1-0.2-0.3-0.2c0,0,0,0,0,0C63.4,6,63.3,6,63.1,6
					c-0.7-0.5-1.5-0.9-2.2-1.4c0-0.2-0.1-0.3-0.2-0.1c-0.3-0.1-0.6-0.3-0.9-0.4c-0.7-0.4-1.5-0.7-2.3-1c0-0.3-0.2-0.1-0.3-0.1
					c-0.1,0-0.1,0-0.2-0.1c0-0.1-0.1-0.2-0.2-0.2c-0.1,0-0.2,0.1-0.3,0c-0.1,0-0.2,0-0.3-0.1c-0.1-0.1-0.1-0.3-0.3-0.1
					C55.2,2.3,54.6,2.2,54,2c-0.1,0-0.2-0.3-0.3-0.1c-0.8-0.1-1.6-0.3-2.4-0.4c-0.1-0.1-0.2,0-0.2,0c-0.1,0-0.1,0-0.2,0
					c-0.1-0.1-0.2,0-0.3,0h0h0c0,0-0.1,0-0.1,0c0-0.1-0.1-0.2-0.2-0.1c-0.1,0.1-0.2,0-0.2,0.1c0,0,0.1,0,0.1,0c0,0-0.1,0-0.1,0
					c-0.1,0-0.2,0-0.3,0c-0.1-0.1-0.3,0-0.5,0l0,0c-0.2,0-0.4,0-0.6,0c-0.4-0.1-0.9-0.1-1.3,0c-0.2,0-0.4,0-0.6,0
					c-0.1,0-0.3,0-0.4,0c-0.1,0-0.2,0-0.3,0c0,0-0.1,0-0.1,0c0,0,0.1,0,0.1,0c-0.1,0-0.2,0-0.2-0.1c-0.1-0.1-0.2,0-0.2,0.1
					c0,0-0.1,0-0.1,0c-0.1,0-0.2,0-0.3,0c-0.1,0-0.1,0-0.2,0c-0.1,0-0.3-0.3-0.3,0c-0.3,0.1-0.5,0.1-0.8,0.1c-1,0.2-2,0.4-3,0.6
					c-0.2-0.2-0.2,0-0.3,0.1c-0.3,0.1-0.5,0.2-0.8,0.2c-0.2-0.2-0.3-0.1-0.4,0.1c-0.6,0.2-1.3,0.5-1.9,0.7c-0.1,0-0.3-0.1-0.3,0.1
					c-0.5,0.2-1.1,0.5-1.6,0.8c-0.2-0.1-0.3-0.1-0.3,0.1c-0.2,0.1-0.3,0.2-0.5,0.3c-0.2-0.1-0.2-0.1-0.2,0.1
					c-0.2,0.1-0.3,0.2-0.5,0.3c-0.2-0.1-0.2-0.1-0.2,0.1c-0.3,0.2-0.7,0.4-1,0.7c-0.2,0-0.3,0-0.3,0.2c-0.1,0.1-0.3,0.2-0.4,0.3
					c-0.2,0-0.3,0-0.3,0.2c-0.1,0-0.1,0.1-0.2,0.1c-0.2,0-0.3,0-0.3,0.2c-0.4,0.3-0.8,0.7-1.2,1c-0.8,0.7-1.5,1.5-2.3,2.3
					c-0.2,0-0.2,0.1-0.2,0.3c-0.1,0.1-0.2,0.2-0.2,0.3c-0.2,0-0.2,0.1-0.2,0.3c-0.6,0.7-1.1,1.4-1.6,2.2c-0.1,0.1-0.4,0.1-0.2,0.3
					c0,0-0.1,0.1-0.1,0.1c-0.3,0.5-0.6,1-0.9,1.5c-0.2,0-0.2,0.1-0.1,0.3c-0.2,0.3-0.3,0.6-0.4,1C24.5,16.7,25.1,16.7,25.6,16.7z"/>
				<path class="st8" d="M75.6,30.5c-0.2-0.1-0.4-0.3-0.5-0.4c0,0.1,0,0.2,0,0.3c-0.1,0.1,0,0.2,0,0.3l0,0l0,0c0,0.1,0,0.1,0,0.2
					c-0.1,0.1,0,0.2,0,0.2c0,0.1,0,0.2-0.1,0.3c0,0.5-0.1,0.9-0.2,1.4c-0.1,0.4-0.2,0.7-0.2,1.1c-0.1,0.3-0.1,0.6-0.2,0.9
					c-0.1,0-0.1,0-0.1,0.1c0,0.1,0,0.1,0.1,0.2c-0.1,0.3-0.2,0.7-0.3,1c-0.2,0.1-0.2,0.1-0.1,0.3c0,0.1,0,0.1-0.1,0.2
					c-0.3,0-0.1,0.2-0.1,0.3c0,0.1-0.1,0.2-0.1,0.3c-0.3,0-0.1,0.2-0.1,0.3c0,0,0,0,0,0c-0.1,0-0.2,0.1-0.1,0.2c0,0,0,0,0,0
					c-0.3,0.2-0.3,0.3-0.2,0.5c0,0,0,0,0,0c-0.3,0-0.2,0.2-0.1,0.3l0,0l0,0c-0.1,0-0.2,0.1-0.1,0.2c-0.1,0.1-0.1,0.2-0.2,0.3
					c-0.3,0-0.2,0.2-0.1,0.3c-0.3,0.6-0.6,1.2-1,1.8c-0.1,0-0.3,0.1-0.3,0.2c-0.1,0.1-0.3,0.2-0.1,0.4l0,0l0,0
					c-0.2,0.3-0.4,0.7-0.6,1c-0.1,0-0.1,0.1-0.1,0.2c-0.2,0.3-0.4,0.5-0.6,0.8c-0.1,0-0.1,0.1-0.1,0.2c-0.3,0.4-0.7,0.8-1,1.2
					c-0.2,0-0.3,0.1-0.2,0.3c-0.3,0.3-0.5,0.5-0.8,0.8c-0.3,0-0.3,0.1-0.3,0.3c-0.1,0.1-0.3,0.3-0.4,0.4c-0.2-0.1-0.2,0-0.3,0.2
					c-0.1,0.1-0.3,0.3-0.4,0.4c-0.2-0.1-0.3,0-0.3,0.2c-0.2,0.1-0.3,0.3-0.5,0.4c-0.1,0-0.2,0-0.2,0.1c-0.1,0.1-0.2,0.2-0.3,0.3
					c-0.1,0-0.2,0-0.2,0.1c-0.1,0.1-0.2,0.1-0.2,0.2c-0.1,0-0.2,0-0.2,0.1c-0.1,0-0.1,0.1-0.2,0.2c-0.1,0-0.2,0-0.2,0.1
					c-0.2,0.1-0.3,0.2-0.5,0.3c-0.1,0-0.2,0-0.2,0.1c-0.5,0.3-1,0.6-1.5,1c-0.1,0-0.2,0-0.2,0.1c-0.2,0.1-0.4,0.2-0.5,0.3
					c-0.2-0.1-0.3-0.1-0.3,0.1c-0.5,0.3-0.9,0.5-1.4,0.7c-0.1-0.1-0.3-0.1-0.3,0.1c-0.2,0.1-0.4,0.2-0.7,0.3c-0.1,0-0.3-0.2-0.3,0.1
					c0,0-0.1,0-0.1,0.1c-0.1,0-0.3-0.2-0.3,0.1c-0.2,0.1-0.5,0.2-0.7,0.3c-0.1-0.1-0.2-0.1-0.3,0.1c-0.1,0.1-0.2,0.1-0.3,0.1
					c-0.1,0-0.1-0.1-0.2,0c-0.1,0.1-0.2,0.1-0.3,0.1c-0.1-0.2-0.2-0.1-0.3,0.1c-0.1,0-0.3,0.1-0.4,0.1c-0.1-0.2-0.2-0.1-0.3,0.1
					c-0.7,0.2-1.3,0.4-2,0.5c0-0.2-0.1-0.1-0.2-0.1c-0.1,0-0.1,0.1-0.2,0.1c-0.4,0.1-0.7,0.1-1.1,0.2c-0.1-0.1-0.3-0.2-0.4,0l0,0
					l0,0c-0.1,0-0.2,0-0.3,0c-0.1,0-0.1,0-0.2,0c-0.1,0-0.1,0-0.2,0c-0.1-0.1-0.2-0.1-0.3,0.1c0,0-0.1,0-0.1,0c-0.1,0-0.3,0-0.4,0
					c-0.2,0-0.3,0-0.5,0c-0.2,0-0.4,0-0.6,0c0.2,0,0.4,0,0.6,0c-0.7,0-1.5,0-2.2,0h0c-0.2,0-0.3,0-0.5,0c-0.1-0.1-0.3,0-0.4,0h0
					c-0.1,0-0.2,0-0.3,0c-0.1-0.1-0.2,0-0.3,0h0c-0.1,0-0.1,0-0.2,0c-0.1-0.1-0.2,0-0.3,0l0,0h0c0,0-0.1,0-0.1,0
					c-0.1-0.2-0.2,0-0.3,0c0,0,0,0,0,0c-0.2,0-0.4,0-0.7-0.1c-1.1-0.2-2.2-0.4-3.2-0.7c-0.6-0.2-1.1-0.3-1.7-0.5
					c0-0.3-0.2-0.1-0.3-0.1c-0.2-0.1-0.4-0.1-0.7-0.2c0-0.3-0.2-0.2-0.3-0.1c-0.8-0.3-1.6-0.7-2.3-1.1c0-0.1-0.1-0.1-0.2-0.1
					c-0.2-0.1-0.4-0.2-0.6-0.3c0-0.1-0.1-0.1-0.2-0.1c-0.6-0.3-1.2-0.7-1.7-1.1c0-0.3-0.1-0.3-0.3-0.2c-0.4-0.2-0.7-0.5-1-0.7
					c0-0.3-0.3-0.5-0.5-0.4c0-0.1-0.1-0.1-0.2-0.1c-0.2-0.1-0.3-0.2-0.5-0.4c0-0.1-0.1-0.2-0.2-0.2c-0.1-0.1-0.2-0.1-0.2-0.2
					c0-0.2-0.1-0.3-0.3-0.3c-0.5-0.4-0.9-0.8-1.3-1.3c0.1-0.3,0-0.3-0.3-0.3c-0.1-0.1-0.1-0.1-0.2-0.2c0.1-0.2,0-0.3-0.2-0.3
					c-0.2-0.2-0.4-0.4-0.5-0.6c0-0.3-0.2-0.5-0.4-0.5c-0.2-0.3-0.5-0.7-0.7-1c0.1-0.1,0.1-0.2,0-0.2c-0.1-0.1-0.1-0.1-0.2,0
					c-0.3-0.4-0.5-0.8-0.8-1.2c-0.3-0.4-0.5-0.9-0.8-1.3c-0.3-0.6-0.7-1.2-0.9-1.9c0-0.1,0.1-0.2,0-0.3c0-0.1-0.1,0-0.2,0
					c-0.1-0.2-0.2-0.5-0.3-0.7c-0.4-0.9-0.7-1.9-1-2.8c0.1,0,0.1-0.1,0.1-0.1c0-0.1-0.1-0.1-0.2-0.1c-0.1-0.4-0.2-0.9-0.3-1.3
					c0.2-0.1,0.1-0.3-0.1-0.4c-0.1-0.4-0.2-0.8-0.2-1.2c0.1,0,0.1,0,0.1-0.1c0-0.1-0.1-0.2-0.2-0.2c0,0,0,0,0,0c0.1,0,0.1,0,0.1-0.1
					c0-0.1-0.1-0.1-0.2-0.2c0,0,0-0.1,0-0.1c0.1,0,0.1,0,0.1-0.1c0-0.1-0.1-0.1-0.2-0.2v0v0c-0.2-0.1-0.3-0.2-0.4-0.3
					c0-0.1,0.1-0.2,0-0.2c-0.1-0.1-0.2,0-0.3,0.1c-0.1,0.1-0.1,0.2,0.1,0.2c0,0,0,0.1,0,0.1c0,0.1,0,0.1,0,0.2c0,0.1,0,0.2,0,0.2
					c0,0.6,0.1,1.2,0.3,1.8c0.2,1,0.4,2,0.7,3c0.3,1,0.7,2,1.1,3c0.3,0.7,0.7,1.5,1.1,2.2c0.4,0.7,0.8,1.3,1.2,2
					c0.6,1,1.3,1.9,2.1,2.8c0.4,0.5,0.9,1,1.3,1.4c0,0.1,0,0.2,0.1,0.2c0,0.1,0.1,0.2,0.2,0.1c0,0,0.1,0.1,0.1,0.1
					c0.5,0.6,1.1,1,1.7,1.5c0.7,0.6,1.4,1.1,2.2,1.6c0.9,0.6,1.9,1.2,2.9,1.7c1.1,0.6,2.2,1,3.3,1.4c1.3,0.5,2.6,0.8,4,1.1
					c1.3,0.2,2.6,0.4,3.9,0.5c2.5,0.1,5-0.1,7.4-0.6c2.3-0.5,4.4-1.3,6.5-2.3c2.2-1.1,4.2-2.5,6.1-4.2c0.6-0.6,1.3-1.2,1.9-1.8
					c0.6-0.6,1.2-1.3,1.7-2c1.1-1.5,2.1-3.1,2.9-4.8c0.7-1.5,1.3-3.1,1.8-4.7c0.4-1.4,0.6-2.8,0.8-4.2c0.1-0.1,0-0.2,0-0.3
					C75.6,30.6,75.7,30.5,75.6,30.5z"/>
				<path class="st8" d="M74,21.5c-0.2,0-0.2,0.1-0.1,0.3c-0.2,0.7-0.5,1.3-0.5,2c-0.1,0.1,0,0.2,0,0.3l0,0v0c0,0.1,0,0.2,0,0.3
					c-0.1,0.2-0.1,0.5,0,0.7l0,0c0,0.1,0,0.3,0,0.4c0.1,0.6,0.2,1.1,0.5,1.7c0.3,0.6,0.8,1.2,1.4,1.6c0.6,0.4,1.3,0.7,2.1,0.7
					c0.2,0.1,0.3,0.1,0.5,0c0.5,0,1-0.1,1.5-0.3c0.1,0,0.2,0,0.2-0.2c0.2-0.8,0.4-1.6,0.6-2.4c0,0,0.1-0.1,0-0.1c0,0-0.1,0-0.1,0
					c-0.3,0.2-0.6,0.3-0.9,0.3c-0.1,0-0.2,0-0.3,0c-0.4,0-0.8,0-1.2-0.1c-0.6-0.3-1-1-1-1.9c0-0.1,0-0.3,0-0.4c0-0.1,0-0.2,0-0.4
					c0.1-0.1,0-0.2,0-0.2c0.1-1.2,0.6-2.3,1.5-3.1c0.6-0.5,1.3-0.7,2.1-0.4c0.4,0.1,0.8,0.3,1.1,0.6c0.1,0.1,0.2,0.1,0.2-0.1
					c0.1-0.4,0.2-0.9,0.3-1.3c0.1,0,0.1,0,0.2-0.1c0-0.1-0.1-0.1-0.1-0.1c0.1-0.2,0.1-0.5,0.2-0.7c0-0.1,0-0.2-0.1-0.2
					c-0.3-0.2-0.7-0.3-1-0.5c0-0.1,0-0.1-0.1-0.2c-0.1,0-0.1,0.1-0.1,0.1c-0.4-0.1-0.8-0.2-1.2-0.2c-0.1-0.1-0.2,0-0.3,0
					c-0.1-0.2-0.1,0-0.2,0c-1.1,0.1-2.1,0.5-3,1.2c-0.1-0.1-0.1,0-0.1,0.1c-0.3,0.3-0.6,0.6-0.9,0.9c-0.2,0-0.2,0.1-0.2,0.2
					C74.6,20.5,74.2,21,74,21.5z"/>
				<path class="st8" d="M33.9,21c0.1,0,0.1,0,0.2-0.1c0-0.1,0-0.1-0.1-0.2c0-0.1,0-0.1,0-0.2c0.2-0.9,0.5-1.8,0.7-2.7
					c0.1,0,0.2,0,0.2-0.1c0-0.1-0.1,0-0.1,0c-0.1,0-0.2-0.1-0.3-0.1c0-0.1,0-0.1-0.1-0.2c-0.1,0-0.1,0-0.1,0.1
					c-0.5-0.1-1,0.1-1.4,0.3c-0.2-0.1-0.2,0-0.2,0.2c-0.1,0.1-0.3,0.2-0.4,0.3c-0.1,0-0.3,0-0.2,0.2c0,0,0,0,0,0
					c-0.2,0-0.2,0.1-0.2,0.2c-0.1,0.1-0.2,0.3-0.3,0.4c0,0,0-0.1,0-0.1c0.1-0.5,0.2-0.9,0.3-1.4c-1.1,0-2.2,0-3.3,0
					c-0.1,0-0.1,0.1-0.2,0.2c-0.1,0.4-0.2,0.7-0.3,1.1c-0.2,0-0.2,0.1,0,0.2c-0.1,0.3-0.1,0.6-0.2,0.9c-0.1,0.4-0.2,0.7-0.3,1.1
					c-0.2,0-0.2,0.1,0,0.2c-0.1,0.3-0.1,0.6-0.2,0.9c-0.2,0.1-0.2,0.1,0,0.2c-0.1,0.3-0.1,0.6-0.2,0.9c-0.2,0.1-0.2,0.1,0,0.2
					c-0.1,0.3-0.1,0.6-0.2,0.9c-0.2,0.1-0.2,0.1,0,0.2c-0.1,0.3-0.1,0.6-0.2,0.9c-0.2,0.1-0.2,0.1,0,0.2c-0.1,0.3-0.1,0.6-0.2,0.9
					c-0.2,0.1-0.2,0.1,0,0.2c-0.1,0.3-0.1,0.6-0.2,0.9c-0.2,0-0.2,0.1,0,0.2c-0.1,0.3-0.1,0.6-0.2,0.9c-0.2,0-0.1,0.2-0.1,0.3
					c0,0,0,0,0.1,0c1.1,0,2.2,0,3.4,0c0.1,0,0.2-0.1,0.2-0.2c0.1-0.3,0.2-0.7,0.3-1c0.2,0,0-0.1,0.1-0.2c0-0.2,0.1-0.5,0.2-0.7
					c0.2,0,0-0.1,0.1-0.2c0.1-0.6,0.3-1.2,0.5-1.8c0.2,0,0-0.1,0.1-0.2c0-0.2,0.1-0.3,0.1-0.5c0.1-0.5,0.2-1.1,0.5-1.5
					c0.1,0,0.2-0.1,0.1-0.2c0.1-0.4,0.3-0.7,0.5-1c0.7-0.9,1.4-1.3,2.6-0.8C33.8,21.1,33.9,21.1,33.9,21z"/>
				<path class="st8" d="M23.5,16.2c0,0,0-0.1,0.1-0.1c0.1,0,0.1,0,0.2-0.1c0.1-0.1,0.1-0.3,0.1-0.5c0-0.2,0.2-0.4,0.3-0.5
					c0.2,0,0.2-0.1,0.2-0.3c0.2-0.4,0.4-0.8,0.7-1.2c0.1-0.1,0.4,0,0.2-0.3c0.1-0.2,0.3-0.4,0.4-0.6c0.3,0,0.2-0.2,0.2-0.3
					c0.3-0.4,0.5-0.8,0.9-1.1c0.2,0,0.3-0.1,0.2-0.3c0.1-0.1,0.1-0.2,0.2-0.2c0.2,0,0.3-0.1,0.2-0.3c0.3-0.4,0.6-0.8,1-1.1
					c0.3,0,0.3,0,0.3-0.4c0.1-0.2,0.2-0.2,0.4-0.3c0.3,0,0.3,0,0.3-0.3c0.1-0.1,0.2-0.3,0.4-0.4c0.2,0,0.3,0,0.3-0.2
					c0.1-0.2,0.3-0.3,0.4-0.4c0.2,0,0.3,0,0.3-0.2c0.2,0,0.3,0,0.3-0.2c0-0.1,0.1-0.1,0.2-0.1c0.2,0,0.3,0,0.3-0.2
					c0.3-0.2,0.5-0.4,0.8-0.6c0.2,0,0.3,0,0.3-0.2c0.3-0.2,0.6-0.4,0.9-0.6c0.2,0.1,0.2,0,0.2-0.2c0.2-0.2,0.4-0.3,0.7-0.4
					c0.2,0.1,0.3,0.1,0.3-0.2c0.5-0.3,0.9-0.5,1.4-0.7c0.3,0.1,0.3,0.1,0.4-0.2c0.3-0.1,0.6-0.3,0.9-0.4C38.2,2.5,39,2.2,39.9,2
					c0.5-0.2,1-0.3,1.6-0.4c0.5-0.1,1-0.3,1.6-0.3c0.1,0.1,0.3,0.2,0.3-0.1c0.5-0.1,1.1-0.2,1.6-0.2c0.1,0,0.3,0.3,0.4,0
					c0,0,0.1,0,0.1,0c0.1,0,0.2,0,0.3,0c0.1,0,0.1,0,0.2,0c0.1,0,0.2,0,0.3,0c0.1,0,0.2,0,0.4,0c0.2,0,0.3,0,0.5,0c0.7,0,1.3,0,2,0
					c0.2,0.1,0.3,0,0.5,0l0,0c0.1,0,0.3,0,0.4,0c0.1,0.1,0.2,0,0.4,0h0h0c0.1,0,0.2,0,0.3,0c0.1,0.1,0.2,0,0.3,0c0.1,0,0.1,0,0.2,0
					c0.1,0.1,0.2,0,0.2,0C51.6,1,52,1,52.4,1.1c0.6,0.1,1.1,0.2,1.7,0.3c0.5,0.1,0.9,0.2,1.4,0.4c0.1,0.1,0.1,0.3,0.3,0.1
					C56.1,2,56.4,2,56.6,2.1c0,0.2,0.1,0.2,0.2,0.1c0.3,0.1,0.5,0.2,0.8,0.3c0,0.3,0.2,0.1,0.3,0.1c0.1,0,0.2,0.1,0.3,0.1
					c0.8,0.3,1.6,0.7,2.3,1.1c0,0.2,0.1,0.2,0.3,0.1c0.3,0.2,0.5,0.3,0.8,0.5c0,0.2,0.1,0.2,0.2,0.1c0,0,0.1,0.1,0.1,0.1
					c1.2,0.7,2.3,1.5,3.3,2.4c0,0.2,0.1,0.2,0.3,0.2c0.2,0.2,0.4,0.4,0.6,0.5c0,0.2,0.1,0.2,0.3,0.2c0.4,0.4,0.7,0.7,1.1,1.1
					c0,0.2,0,0.4,0.3,0.3c0.1,0.1,0.2,0.2,0.2,0.3c0,0.2,0,0.3,0.2,0.3c0.2,0.2,0.4,0.4,0.5,0.6c0,0.2,0.2,0.5,0.4,0.5
					c0.3,0.4,0.5,0.7,0.8,1c0.5,0.7,1,1.4,1.4,2.2c-0.1,0.2-0.1,0.3,0.1,0.3c0,0.1,0.1,0.1,0.1,0.2c-0.1,0.2-0.1,0.3,0.1,0.3
					c0.2,0.4,0.4,0.9,0.7,1.3c0,0.1-0.1,0.3,0.1,0.3c0.3,0.6,0.5,1.2,0.7,1.8c0,0.1-0.2,0.3,0.1,0.3c0.1,0.2,0.1,0.5,0.2,0.7
					c0,0.1,0.1,0.1,0.1,0c0.2,0,0.2-0.1,0.2-0.3c0.2-0.2,0.1-0.3,0.1-0.5c-0.1-0.3-0.2-0.6-0.3-1c0.1,0,0.1-0.1,0.1-0.1
					c-0.1-0.1,0-0.2-0.1-0.2c0,0-0.1,0-0.1,0c-0.1-0.3-0.2-0.6-0.4-0.9c0.1-0.1,0-0.1-0.1-0.1c-0.4-0.8-0.8-1.6-1.2-2.4
					c0.1-0.2,0-0.2-0.1-0.2c-0.1-0.2-0.3-0.4-0.4-0.6c0.2-0.2,0-0.2-0.2-0.2c-0.5-0.7-1-1.4-1.5-2.1c-0.7-0.9-1.5-1.7-2.3-2.5
					C66.5,7,65.2,6,63.8,5c0-0.2-0.1-0.2-0.2-0.1c-0.2-0.1-0.4-0.2-0.5-0.3c0-0.2-0.1-0.2-0.2-0.1l0,0c0,0-0.1,0-0.1,0
					c-1.1-0.7-2.3-1.3-3.5-1.9C58.7,2.2,58,2,57.4,1.7c0-0.3-0.2-0.1-0.3-0.1c-0.2,0-0.3-0.1-0.5-0.2c-0.1,0-0.1-0.3-0.2-0.1
					c-0.8-0.2-1.6-0.5-2.4-0.6c-1-0.2-1.9-0.3-2.9-0.5c-0.1-0.1-0.2,0-0.3,0h0h0c0,0-0.1,0-0.1,0c0-0.1-0.1-0.2-0.2-0.1
					c-0.1,0-0.1,0-0.2,0c0,0,0.1,0,0.1,0c0,0-0.1,0-0.1,0c-0.1,0-0.2,0-0.3,0c-0.1-0.1-0.3,0-0.4,0c0,0,0,0,0,0c-0.2,0-0.3,0-0.5,0
					c-0.1-0.1-0.2,0-0.2,0c-0.5,0-1,0-1.6,0c-0.1,0-0.2,0-0.2,0c-0.1-0.1-0.2,0-0.2,0.1c-0.1,0-0.2,0-0.4,0c-0.1,0-0.3,0-0.4,0
					c-0.1,0-0.2,0-0.3,0c-0.1,0-0.2,0-0.3,0c-0.1,0-0.1,0-0.2,0c-0.1,0-0.2,0-0.3,0c-0.8,0.1-1.6,0.2-2.4,0.4c-0.1-0.2-0.1,0-0.2,0
					C42,0.8,41.5,0.9,41.1,1c-1.6,0.4-3.2,1-4.7,1.7c-1.5,0.7-2.9,1.5-4.3,2.5c-1.2,0.9-2.3,1.8-3.4,2.8c-0.5,0.5-1,1-1.4,1.5
					c-0.4,0.4-0.7,0.8-1.1,1.3c-0.8,1.1-1.6,2.2-2.2,3.3c-0.5,0.9-0.9,1.7-1.3,2.6C23.1,16.8,23.4,16.7,23.5,16.2z"/>
				<path class="st8" d="M43.8,30.3C44,30.2,44,30,44,29.8c0,0,0-0.1,0-0.1c0.5-1.8,0.9-3.5,1.4-5.3c0.5-2,1-4,1.6-6
					c0.4-1.7,0.9-3.4,1.4-5.2c0-0.2,0-0.2-0.1-0.2c-0.2,0-0.3-0.1-0.5,0c-0.1,0.1-0.1,0.2-0.1,0.4c-0.3,0.9-0.5,1.9-0.8,2.8
					c-0.3,1-0.5,2-0.8,2.9c-0.1,0,0,0.1,0,0.2c-0.1,0.3-0.2,0.6-0.2,0.9l0,0l0,0c-0.1,0,0,0.1,0,0.2c-0.1,0.5-0.3,1.1-0.4,1.6
					c-0.1,0.5-0.3,0.9-0.4,1.4c-0.2,0.7-0.3,1.3-0.5,2c-0.2,0.7-0.4,1.5-0.6,2.2c-0.2,0.7-0.4,1.4-0.5,2.1c-0.7,0-1.4,0-2.2,0
					c-0.1,0-0.2,0-0.2,0.1l0,0l0,0c0,0.2-0.1,0.3-0.1,0.5c0.8,0,1.5,0,2.3,0C43.4,30.4,43.7,30.5,43.8,30.3z"/>
				<path class="st8" d="M8.1,22.3c0.1,0,0.2,0,0.1-0.1c0-0.1-0.1-0.1-0.2-0.1c-0.6,0-1.3,0-1.9,0c-0.1,0-0.2,0-0.2,0.1
					c0,0.2-0.1,0.4-0.1,0.5c-0.1,0,0,0.1,0,0.2c-0.1,0.3-0.2,0.6-0.2,0.9c-0.1,0,0,0.1,0,0.2c-0.1,0.3-0.2,0.6-0.2,0.9
					c-0.1,0,0,0.1,0,0.2C5.2,25.4,5.1,25.7,5,26c-0.1,0,0,0.1,0,0.2c-0.1,0.3-0.2,0.6-0.2,0.9c-0.1,0,0,0.1,0,0.2
					c-0.1,0.3-0.2,0.6-0.2,0.9c-0.1,0,0,0.1,0,0.2c-0.1,0.3-0.2,0.6-0.2,0.9c-0.1,0,0,0.1,0,0.2c-0.1,0.1,0,0.2-0.1,0.2
					c-0.9,0-1.8,0-2.8,0c-0.1,0-0.2,0-0.3,0.1c0,0.1,0,0.2-0.1,0.3c-0.1,0.2,0,0.3,0.2,0.3c1,0,2.1,0,3.1,0c0.2,0,0.3-0.1,0.3-0.2
					c0.6-2.4,1.3-4.8,1.9-7.3c0-0.1,0.1-0.2,0.2-0.2c0.3,0,0.6,0,0.9,0C8,22.7,8,22.7,8.1,22.3z"/>
				<path class="st8" d="M53.9,30.2c0.5-2.1,1.1-4.2,1.6-6.3c0-0.1,0-0.1,0-0.2c-0.1-0.1-0.2-0.2-0.3-0.3c-0.1-0.1-0.2,0-0.2,0.1
					c-0.1,0.4-0.2,0.8-0.3,1.2c-0.2,0.9-0.5,1.8-0.7,2.6c-0.2,0.8-0.4,1.6-0.6,2.4c-0.1,0.1-0.2,0-0.3,0c-0.8,0-1.7,0-2.5,0
					c-0.1,0-0.2-0.1-0.2,0.1l0,0c0,0.2-0.1,0.3-0.1,0.5c1.2,0,2.3,0,3.5,0C53.9,30.4,53.9,30.4,53.9,30.2z"/>
				<path class="st8" d="M85.9,26.6c-0.1,0.4-0.2,0.9-0.3,1.3c-0.2,0.6-0.3,1.2-0.5,1.9c-0.9,0-1.8,0-2.7,0c-0.1,0-0.2,0-0.2,0
					c0,0.1-0.1,0.3-0.1,0.4c-0.1,0.2,0,0.2,0.2,0.2c1.1,0,2.1,0,3.2,0c0.1,0,0.2,0,0.2-0.2c0.2-0.9,0.5-1.9,0.7-2.8
					c0.1-0.4,0-0.6-0.2-0.8C86,26.5,86,26.5,85.9,26.6z"/>
				<path class="st8" d="M63.5,17.5c-0.3,1.1-0.8,2-1.5,2.8c-0.7,0.7-1.5,1.3-2.4,1.8c-0.3,0.1-0.2,0.1-0.1,0.4
					c0.1,0.1,0.2,0.2,0.3,0.1c0.1-0.1,0.2-0.1,0.3-0.1c0.1,0.1,0.1,0,0.1-0.1c0.7-0.4,1.3-0.8,1.9-1.4c0.2-0.3,0.5-0.5,0.7-0.8
					c0.4-0.7,0.8-1.4,0.9-2.2c0.1-0.1,0-0.2,0-0.3c0,0,0,0,0,0c0,0,0,0,0,0c0-0.2,0-0.4,0-0.6c0-0.1,0-0.2,0-0.3
					c0-0.2-0.1-0.3-0.1-0.5c0-0.1,0-0.2-0.1-0.3c0,0,0,0,0,0c0,0.3,0,0.5,0,0.8v0v0C63.6,17,63.5,17.3,63.5,17.5z"/>
				<path class="st8" d="M7.4,16.8c-0.1,0.4-0.2,0.9-0.4,1.4c0.2,0,0.3,0,0.4,0c0.2,0,0.2-0.1,0.3-0.2c0.4-1.5,0.8-3,1.2-4.5
					C9.1,13,9.1,13,8.7,13c-0.2,0-0.3,0.1-0.3,0.2c-0.1,0.5-0.3,1.1-0.4,1.6C7.8,15.5,7.6,16.1,7.4,16.8z"/>
				<path class="st8" d="M78.7,21.9c0.5-0.6,1.2-0.9,2-0.8c0,0,0.1,0,0.1,0c-0.4-0.2-0.8-0.4-1.2-0.4c-0.7,0.1-1.1,0.4-1.5,1
					c-0.5,0.6-0.7,1.4-0.8,2.2c-0.1,0.1,0,0.2,0,0.3v0c0,0.1,0,0.2,0,0.3c0,0.4,0,0.9,0.2,1.3c0.1,0.1,0.1,0,0.1,0
					c0-0.2,0-0.4,0-0.6l0,0l0,0C77.5,23.8,77.9,22.8,78.7,21.9z"/>
				<path class="st8" d="M93.1,30.7c-0.1,0-0.1,0-0.2,0.1c-0.1,0-0.2,0.1-0.1,0.3c0.1,0.5,0.2,0.9,0.3,1.4c0,0.1,0,0.1,0,0.2
					c-0.7,0.7-1.6,1-2.5,1c-0.2,0-0.4,0-0.7,0c-0.1,0-0.2,0-0.4,0c-0.1-0.1-0.2-0.1-0.3,0c0.1,0,0.2,0.1,0.2,0.1
					c0.3,0.2,0.7,0.3,1,0.3c0.1,0.1,0.2,0,0.3,0l0,0h0c0.3,0,0.6,0,0.8,0c0.8-0.1,1.6-0.4,2.2-1c0.1-0.1,0.1-0.1,0.1-0.2
					c-0.1-0.6-0.3-1.3-0.4-1.9C93.3,30.7,93.2,30.6,93.1,30.7z"/>
				<path class="st8" d="M88.4,17.1c0,0.1-0.2,0.1,0,0.2c0.1,0.1-0.1,0.1,0,0.2c0.1,0,0.1,0,0.2-0.1c0.1,0,0.2-0.1,0.3-0.1
					c0.1,0,0.2-0.1,0.2-0.2c0.3-1.2,0.6-2.5,1-3.7c0.1-0.5,0.2-0.4-0.3-0.4c-0.1,0-0.2,0-0.2,0.2c-0.1,0.2-0.1,0.5-0.2,0.7
					c-0.2,0.8-0.4,1.6-0.6,2.4C88.5,16.6,88.5,16.9,88.4,17.1z"/>
				<path class="st8" d="M80.8,27.4c-0.1,0-0.3,0.1-0.3,0.3c-0.1,0.5-0.2,1-0.4,1.6c0,0.1-0.1,0.2-0.2,0.3c-0.6,0.2-1.2,0.4-1.8,0.4
					c-0.2,0-0.5,0-0.7,0c-0.1,0-0.2,0-0.4,0C77,30,77,30,77.1,30c0.3,0.1,0.7,0.2,1,0.2c0.3,0,0.6,0,0.9,0c0.1,0,0.2,0,0.3,0
					c0.3-0.1,0.6-0.1,1-0.2c0.1,0,0.2-0.1,0.2-0.3c0.2-0.7,0.4-1.4,0.5-2.1c0-0.1,0.1-0.3,0.1-0.3C81,27.2,80.9,27.4,80.8,27.4z"/>
				<path class="st8" d="M24.1,29.4c-0.4,0.3-0.9,0.5-1.4,0.5c-0.1,0-0.2,0-0.2,0c-0.3,0-0.6,0-0.8,0c0.4,0.3,0.7,0.4,1.2,0.4
					c0.1,0.1,0.2,0.1,0.3,0c0.5,0,1-0.1,1.4-0.4c0.1,0,0.1-0.1,0.1-0.1c0.2-0.8,0.4-1.6,0.6-2.4c-0.2,0-0.3,0-0.5,0
					c-0.1,0-0.1,0.1-0.1,0.1c-0.1,0.5-0.2,0.9-0.3,1.4C24.3,29.1,24.3,29.3,24.1,29.4z"/>
				<path class="st8" d="M82.4,20.1c-0.1,0.5-0.3,0.9-0.3,1.4c0,0.1,0,0.2,0.1,0.1c0.3,0.2,0.3,0.2,0.4-0.2c0,0,0,0,0,0
					c0.1,0,0.1,0,0.2-0.1c0-0.1-0.1-0.1-0.1-0.1c0.1-0.4,0.2-0.9,0.3-1.3c0.1,0,0.1,0,0.2-0.1c0-0.1-0.1-0.1-0.1-0.1
					c0-0.1,0-0.1,0-0.2c0-0.1,0.1-0.2,0-0.3c-0.1-0.1-0.2-0.1-0.3-0.2c-0.1,0-0.1,0-0.1,0.1c-0.1,0.2-0.1,0.5-0.2,0.7
					C82.4,19.9,82.2,19.9,82.4,20.1C82.4,20,82.4,20,82.4,20.1z"/>
				<path class="st8" d="M78.5,32.1c-0.9,0-1.3,0.5-1.4,1.3c-0.1,0.6,0.5,1.3,1.2,1.3c0.7,0,1.4-0.5,1.4-1.3
					C79.7,32.7,79.3,32.1,78.5,32.1z"/>
				<path class="st8" d="M53.7,38.9c0-0.3,0-0.6,0-0.9c0-0.2,0-0.2-0.2-0.2c-1.2,0-2.4,0-3.6,0c-0.2,0-0.2,0-0.2,0.2
					c0,2.1,0,4.1,0,6.2c0,0.1,0.1,0.2,0.2,0.2c0.4,0,0.9,0,1.3,0c0.1,0,0.1,0,0.2-0.1l0,0l0,0c0-0.8,0-1.6,0-2.4
					c0-0.2,0.1-0.2,0.2-0.2c0.6,0,1.2,0,1.8,0c0.2,0,0.2-0.1,0.2-0.2c0-0.3,0-0.7,0-1c-0.1-0.1-0.2-0.1-0.2-0.1c-0.6,0-1.3,0-1.9,0
					c0-0.4,0-0.9,0-1.3c0.7,0,1.4,0,2.1,0C53.7,39.1,53.8,39,53.7,38.9z M49.9,37.8C49.9,37.8,49.9,37.8,49.9,37.8
					C49.9,37.8,49.9,37.8,49.9,37.8z"/>
				<path class="st8" d="M52.1,16.6c0,0,0-0.1,0-0.1c-0.2,0-0.5,0.1-0.7,0.1c0,0-0.1,0-0.1,0c0,0.2-0.1,0.3-0.1,0.5
					c0.1,0.1,0.2,0,0.3,0.1h0h0C52,17.1,52,17.1,52.1,16.6z"/>
				<path class="st8" d="M2.7,16.7C2.7,16.7,2.7,16.6,2.7,16.7c0.1-0.1,0.1-0.2,0.1-0.2c0,0-0.1,0-0.1,0c0,0,0,0,0.1,0
					c0,0,0,0-0.1,0c-0.2,0-0.3,0.1-0.5,0.1c-0.3,0-0.4,0.1-0.4,0.4c0,0,0,0.1,0,0.1c-0.1,0.1,0,0.1,0.1,0.1c0.1,0,0.2,0,0.3,0
					c0,0,0,0,0,0c0,0,0,0,0,0C2.6,17.1,2.6,17.1,2.7,16.7z"/>
				<path class="st8" d="M58.7,39.1c0.2,0,0.3,0,0.3-0.3c0-0.3,0-0.6,0-0.8c0-0.2-0.1-0.2-0.2-0.2c-1.2,0-2.4,0-3.6,0
					c-0.1,0-0.2,0-0.2,0.1c0,2.2,0,4.3,0,6.5c0,0.1,0.1,0.1,0.1,0.1c1.2,0,2.5,0,3.7,0c0.1,0,0.2,0,0.2-0.2c0-0.3,0-0.7,0-1
					c0-0.1,0-0.1-0.1-0.1c-0.7,0-1.4,0-2.2,0c-0.2,0-0.2-0.1-0.2-0.2c0-0.4,0-0.8,0-1.2c0.7,0,1.4,0,2,0c0.1,0,0.2,0,0.2-0.1
					c0-0.3,0-0.6,0-1c0-0.2,0-0.2-0.2-0.2c-0.6,0-1.2,0-1.9,0c-0.1,0-0.2,0-0.2-0.1c0-0.4,0-0.7,0-1.1C57.3,39.1,58,39.1,58.7,39.1z
					 M58.9,37.8c0,0-0.1,0-0.1,0c0,0,0,0,0,0C58.9,37.8,58.9,37.8,58.9,37.8z"/>
				<path class="st8" d="M26.6,29.8c-0.1,0-0.2,0-0.2,0c-0.1,0.2-0.1,0.4-0.2,0.6c1.1,0,2.3,0,3.4,0c0.1,0,0.2,0,0.2-0.1
					c0.4-1.5,0.8-3,1.2-4.5c0.2-0.9,0.4-1.8,0.9-2.6c0.4-0.7,0.8-1.3,1.7-1.3c0.1,0,0.1-0.1,0.1-0.1c0-0.1,0-0.1-0.1-0.1
					c-0.2-0.1-0.3-0.1-0.5-0.2c-0.1-0.1-0.2-0.1-0.3,0c-0.7,0.1-1.1,0.6-1.4,1.1c-0.1,0-0.1,0.1-0.1,0.2c-0.2,0.3-0.3,0.6-0.4,1
					c-0.2,0.7-0.4,1.5-0.6,2.2c-0.2,0,0,0.1,0,0.2c-0.1,0.2-0.1,0.5-0.2,0.7c-0.2,0,0,0.1,0,0.2c-0.1,0.2-0.1,0.5-0.2,0.7
					c-0.2,0,0,0.1,0,0.2c-0.1,0.2-0.1,0.5-0.2,0.7c-0.2,0,0,0.1,0,0.2c-0.1,0.3-0.2,0.6-0.2,0.9C28.4,29.8,27.5,29.8,26.6,29.8z"/>
				<path class="st8" d="M47.1,44.3L47.1,44.3L47.1,44.3c0.6,0.1,1.2,0,1.7,0c0.1,0,0.1-0.1,0-0.1l0,0l0,0c-0.1-0.3-0.2-0.6-0.3-0.9
					c-0.5-1.3-0.9-2.5-1.4-3.8c-0.2-0.6-0.4-1.1-0.6-1.7c0,0,0,0-0.1,0c0,0,0,0,0,0c0,0,0,0,0,0c-0.6,0-1.2,0-1.8,0
					c-0.1,0-0.1,0-0.1,0.1h0c-0.4,1.1-0.8,2.2-1.2,3.3c-0.2,0.5-0.4,1.1-0.6,1.6c-0.2,0.5-0.3,0.9-0.5,1.4l0,0
					c-0.1,0.2,0,0.1,0.1,0.1c0.4,0,0.9,0,1.3,0c0.1,0,0.1,0,0.2-0.1h0c0.1-0.4,0.2-0.7,0.4-1.1c0.1,0,0.2,0,0.2,0c0.6,0,1.3,0,1.9,0
					c0.1,0,0.3,0,0.4,0C46.9,43.5,47,43.9,47.1,44.3L47.1,44.3L47.1,44.3z M45.5,39.5c0.2,0.8,0.5,1.6,0.8,2.3
					c0.1,0.2,0,0.2-0.2,0.2c-0.5,0-1,0-1.5,0C44.9,41.1,45.2,40.4,45.5,39.5z"/>
				<path class="st8" d="M90.2,27.9c0,0.4,0,0.7,0,1.1C90.2,28.6,90.2,28.3,90.2,27.9z"/>
				<path class="st8" d="M20.3,29.2c-0.1-0.1-0.1-0.1-0.2,0c-0.1-0.1-0.1-0.1-0.2-0.2c-0.2-0.3-0.2-0.3-0.5,0
					c-0.1,0.1-0.2,0.1-0.2,0.2c-0.6,0.4-1.2,0.7-2,0.8c-0.4,0-0.7,0-1.1,0c0.4,0.3,0.9,0.5,1.4,0.5c0.1,0.1,0.2,0.1,0.3,0
					c0.3,0,0.7-0.1,1-0.2c0.5-0.2,0.9-0.5,1.3-0.8c0.1,0.1,0.1,0.1,0.2,0C20.4,29.3,20.4,29.2,20.3,29.2z"/>
				<path class="st8" d="M61.3,34.5c0.4,0,0.7-0.1,1.1-0.2c0.5-0.2,1-0.5,1.4-0.8c0.1-0.1,0.3-0.2,0.3-0.4c-0.1-0.6-0.3-1.2-0.4-1.8
					c0-0.1,0-0.3-0.1-0.4c-0.1-0.1-0.2,0.1-0.4,0.1c0,0,0,0,0,0c-0.1,0-0.1,0-0.1,0.1c0.1,0.6,0.3,1.1,0.4,1.7c0,0,0,0.1,0,0.1
					c-0.2,0.1-0.3,0.3-0.5,0.4c-0.1,0-0.1,0-0.1,0.1c-0.6,0.4-1.2,0.7-1.9,0.7c-0.1,0-0.2,0-0.3,0c-0.2,0-0.5,0-0.7,0
					c-0.1-0.1-0.2,0-0.3,0h0h0c-0.2,0-0.4-0.1-0.5,0c0.5,0.3,1,0.4,1.6,0.4C60.8,34.5,61.1,34.5,61.3,34.5z"/>
				<path class="st8" d="M15.1,16.8c0-0.1,0-0.1-0.1-0.2c0.1-0.3,0.1-0.6,0.2-0.9c0.1,0,0.1,0,0.2-0.1c0-0.1,0-0.1-0.1-0.2
					c0.1-0.3,0.1-0.6,0.2-0.9c0.1,0,0.1,0,0.2-0.1c0-0.1,0-0.1-0.1-0.2c0.1-0.3,0.2-0.6,0.2-1c0.1-0.5,0.1-0.5-0.4-0.5
					c-0.1,0-0.1,0-0.1,0.1c-0.1,0.5-0.3,1-0.4,1.5c-0.3,1-0.5,2-0.8,2.9c-0.2,0-0.1,0.1,0,0.2c-0.1,0.3-0.2,0.6-0.2,0.9
					c-0.2,0-0.1,0.1,0,0.2c0,0,0,0.1,0,0.1c-0.2,0.9-0.5,1.9-0.7,2.8c-0.2,0-0.1,0.1,0,0.2c-0.1,0.3-0.2,0.6-0.2,0.9
					c-0.2,0-0.1,0.1,0,0.2c0,0,0,0.1,0,0.1c-0.2,0.9-0.5,1.9-0.7,2.8c-0.2,0-0.1,0.1,0,0.2c-0.1,0.5-0.3,1-0.4,1.5
					c-0.2,0.7-0.4,1.4-0.6,2.1c-0.9,0-1.8,0-2.7,0c-0.1,0-0.2,0-0.3,0.1c-0.1,0.1,0,0.2-0.1,0.3c-0.1,0.2,0,0.2,0.2,0.2
					c1,0,2,0,2.9,0c0.4,0,0.4,0,0.5-0.4c0.5-1.8,0.9-3.5,1.4-5.3c0.7-2.6,1.4-5.2,2.1-7.8C15,16.9,15.1,16.9,15.1,16.8z"/>
				<path class="st8" d="M34.9,19.8c-0.1,0.2-0.1,0.4-0.2,0.6c0,0.1-0.1,0.1,0,0.1c0.1,0,0.1,0,0.1-0.1c0.2-0.3,0.3-0.5,0.5-0.8
					c0.1-0.2,0.3-0.3,0.4-0.5c0.1,0,0.1,0,0.2-0.1c0-0.1,0-0.1-0.1-0.2c0-0.1,0-0.1-0.1-0.1c-0.2,0-0.3-0.1-0.5-0.1
					c-0.2,0-0.2,0.1-0.1,0.2c-0.1,0.2-0.1,0.5-0.2,0.7C34.7,19.6,34.7,19.7,34.9,19.8z"/>
				<path class="st8" d="M67.8,17.6c0.2,0,0.3,0,0.5,0C68.1,17.5,67.9,17.5,67.8,17.6z"/>
				<path class="st8" d="M65.1,30c0.5,0.2,1,0.3,1.5,0.3c0.1,0.1,0.2,0.1,0.2,0c0.1,0,0.3,0,0.4,0c0.1,0,0.2,0,0.3,0
					c0.6-0.1,1.3-0.3,1.9-0.6c0.1,0.1,0.1,0,0.1-0.1c0.3-0.2,0.6-0.4,0.8-0.6c0.6-0.5,1.1-1.1,1.5-1.7c0.7-1.1,1.1-2.3,1.2-3.6
					c0.1-0.3,0.1-0.6,0-0.9c0-0.1,0-0.2,0-0.3c0-0.1,0-0.2,0-0.3c-0.1-0.2-0.1-0.5-0.2-0.7c0-0.1,0-0.1,0-0.2c0-0.1,0-0.1-0.1-0.2
					c0,0.1,0,0.2,0,0.2c0,0.1,0,0.2,0,0.4c0,0.3,0,0.7,0,1l0,0l0,0c0,0.1,0,0.2,0,0.3c-0.1,0.1,0,0.2,0,0.2c0,0.2-0.1,0.5-0.1,0.7
					c-0.2,0.9-0.5,1.7-1,2.5c-0.5,0.8-1.2,1.5-2,2.1c-0.4,0.3-0.8,0.5-1.2,0.7c-0.5,0.2-1.1,0.4-1.7,0.4c-0.1,0-0.2,0-0.3,0
					c-0.3,0-0.5,0-0.8,0c-0.1-0.1-0.2,0-0.3,0l0,0l0,0c-0.1,0-0.3,0-0.4,0c-0.1,0-0.1,0-0.1,0.1C64.9,30,64.9,30.1,65.1,30z"/>
				<path class="st8" d="M87.1,29.6c-0.1,0.1,0,0.3,0,0.4C87.1,29.9,87.1,29.7,87.1,29.6z"/>
				<path class="st8" d="M37.6,29.4c-0.1,0-0.3,0-0.4,0C37.4,29.4,37.5,29.4,37.6,29.4z"/>
				<path class="st8" d="M72.2,23.1c0.1-0.1,0-0.3,0-0.4C72.2,22.8,72.2,23,72.2,23.1z"/>
				<path class="st8" d="M61.3,26.4c-0.1-0.9-0.4-1.7-0.9-2.5c0-0.1-0.1-0.1-0.2-0.2c0.1,0.1,0.1,0.2,0.1,0.3c0,0,0,0.1,0,0.2
					c0.2,0.5,0.2,0.9,0.3,1.4c0,0.1,0,0.3,0,0.4c0,0.2,0,0.5,0,0.7c-0.1,0.2,0,0.4,0,0.6v0v0c0,0.1,0,0.3,0,0.4
					c-0.1,0.2,0,0.3,0,0.5v0c0,0.1,0,0.3,0,0.4c-0.1,0.3-0.1,0.7,0,1c0.1,0.3,0.2,0.5,0.5,0.5c0,0,0-0.1,0-0.1c0.1-0.2,0-0.5,0-0.7
					v0v0c0-0.1,0-0.2,0-0.4c0.1-0.2,0-0.3,0-0.5l0,0v0c0-0.2,0-0.3,0-0.5c0.1-0.2,0-0.5,0-0.7v0c0-0.2,0-0.3,0-0.5
					C61.3,26.6,61.3,26.5,61.3,26.4z"/>
				<path class="st8" d="M17.1,29.4c-0.1,0-0.3,0-0.4,0C16.9,29.4,17,29.4,17.1,29.4z"/>
				<path class="st8" d="M24.1,26.1c0.2-0.1,0.4,0,0.5-0.3c0.1,0,0.1,0,0.2-0.1c0-0.1,0-0.1-0.1-0.2l0,0c0.1-0.3,0.1-0.6,0.2-0.9
					c0.1,0,0.1,0,0.2-0.1c0-0.1,0-0.1-0.1-0.2c0-0.1,0-0.1,0-0.2c0.4-1.6,0.9-3.2,1.3-4.9c0.1,0,0.1,0,0.2-0.1c0-0.1,0-0.1-0.1-0.2
					c0.1-0.2,0-0.3-0.2-0.2c-0.1,0-0.3,0-0.4,0c-0.2,0-0.2,0.1-0.1,0.2c-0.1,0.3-0.1,0.6-0.2,0.9c-0.2,0-0.2,0.1,0,0.2
					c-0.1,0.3-0.1,0.6-0.2,0.9c-0.2,0-0.2,0.1,0,0.2c-0.2,0.6-0.3,1.2-0.5,1.8c-0.1,0.4-0.1,0.7-0.3,1.1c-0.2,0-0.2,0.1,0,0.2
					c-0.1,0.3-0.1,0.6-0.2,0.9c-0.2,0-0.2,0.1,0,0.2c0,0.1-0.1,0.3-0.1,0.4C23.8,26.2,24,26.1,24.1,26.1z"/>
				<path class="st8" d="M72.2,21.7c0,0.1,0,0.2,0,0.4C72.2,22,72.3,21.8,72.2,21.7z"/>
				<path class="st8" d="M94,21.4L94,21.4c0-0.1,0-0.1,0-0.2c0-0.1,0-0.2,0-0.3c0-0.2-0.1-0.3-0.1-0.5c0,0,0-0.1,0-0.1
					c-0.1,0,0,0.1,0,0.1c0,0,0,0.1,0,0.1h0c0,0.1,0,0.1,0,0.2c-0.1,0.1-0.2,0.1-0.1,0.2c0.1,0.1,0,0.3,0,0.4c-0.2,1-0.8,1.8-1.5,2.5
					c-0.1-0.1-0.1,0-0.1,0.1c-0.6,0.6-1.3,0.9-2,1.2c-0.3,0.1-0.3,0.1-0.2,0.4c0.1,0.2,0.2,0.2,0.3,0.1c0.4-0.2,0.9-0.3,1.3-0.6
					c0.7-0.4,1.2-0.9,1.7-1.5c0.4-0.6,0.7-1.2,0.8-1.9C94.1,21.6,94,21.5,94,21.4z"/>
				<path class="st8" d="M73.4,20.1C73.4,20.1,73.4,20.1,73.4,20.1c0,0.1,0,0.1,0,0.1C73.4,20.2,73.4,20.2,73.4,20.1
					C73.4,20.1,73.4,20.1,73.4,20.1z"/>
				<path class="st8" d="M87.1,30.8c0-0.1,0-0.2,0-0.3C87.1,30.6,87,30.8,87.1,30.8z"/>
				<path class="st8" d="M2,16.1c-0.1,0-0.2,0-0.3,0C1.8,16.1,1.9,16.1,2,16.1z"/>
				<path class="st8" d="M45.6,54.3c-0.1,0-0.2,0-0.3,0C45.4,54.3,45.5,54.2,45.6,54.3z"/>
				<path class="st8" d="M38.3,30.3c0.6,0,1.2-0.2,1.7-0.5c0.1,0,0.1-0.1,0-0.1c-0.2,0-0.3,0-0.5,0c0-0.1,0-0.2-0.1-0.2
					c0-0.1,0.1-0.1,0-0.2c-0.1,0-0.1,0-0.2,0.1c-0.4,0.2-0.8,0.4-1.2,0.4c-0.1,0-0.2,0-0.3,0c-0.4,0-0.7,0-1.1,0
					c0.4,0.3,0.9,0.5,1.4,0.5C38.2,30.4,38.2,30.4,38.3,30.3z"/>
				<path class="st8" d="M91.1,28.6c0-0.1,0-0.1-0.1-0.2c-0.1-0.5-0.3-1-0.5-1.4c0,0,0-0.1-0.1-0.1c0,0.1,0,0.1,0.1,0.2
					c0,0.3,0.1,0.6,0.1,0.9c0,0.5,0,1.1,0,1.6c0,0.1,0,0.2,0.2,0.3c0.1,0.1,0.2,0.1,0.3,0c0-0.3,0-0.6,0-1
					C91.2,28.8,91.2,28.7,91.1,28.6z"/>
				<path class="st8" d="M41.6,43.6c0-0.1,0-0.1,0-0.2c0-0.1,0-0.2,0-0.3c0-0.1,0-0.1,0-0.2c0-0.1,0.1-0.2-0.1-0.2
					c-0.3,0.1-0.5,0.2-0.8,0.2c-0.1,0-0.2,0-0.3,0c-0.1,0-0.2,0-0.2,0c-0.1-0.1-0.2,0-0.3,0l0,0h0c-0.4,0-0.8-0.2-1-0.5
					c-0.6-0.8-0.6-1.9,0-2.7c0.3-0.4,0.6-0.6,1.1-0.6c0.2,0,0.4,0,0.6,0c0.3,0.1,0.5,0.1,0.8,0.2c0.3,0.1,0.1-0.1,0.1-0.2l0,0v0
					c0-0.1,0-0.1,0-0.2c0.1-0.1,0-0.2,0-0.3h0h0c0-0.1,0-0.1,0-0.2c0.1-0.1,0-0.2,0-0.3l0,0l0,0c0-0.1-0.1-0.2-0.2-0.2
					c-0.2,0-0.4-0.1-0.7-0.1c-0.3-0.1-0.6-0.1-0.9,0c-0.8,0.1-1.6,0.4-2.2,1c-0.1,0-0.1,0.1-0.1,0.1c-0.4,0.5-0.6,1.1-0.7,1.7
					c-0.1,0.1,0,0.2,0,0.3c0,0.5,0,1,0.1,1.5c0.2,0.8,0.7,1.4,1.4,1.8c0.4,0.2,0.9,0.3,1.4,0.3c0.2,0.1,0.4,0.1,0.6,0
					c0.4,0,0.7-0.1,1.1-0.2c0.2,0,0.4-0.1,0.3-0.3C41.6,43.8,41.7,43.7,41.6,43.6z"/>
				<path class="st8" d="M90.2,29.7c0-0.1,0-0.2,0-0.2C90.1,29.6,90.1,29.6,90.2,29.7z"/>
				<path class="st8" d="M59.5,33.6c0.1,0.1,0.2,0,0.3,0c0,0,0,0,0,0c0.9,0.1,1.8-0.1,2.6-0.5l0,0l0,0c0.1,0.1,0.1,0,0.1-0.1h0l0,0
					c0.1-0.1,0.2-0.2,0.4-0.3c0.1,0,0.1-0.1,0.1-0.2c-0.2-0.7-0.3-1.3-0.5-2c0-0.2-0.1-0.2-0.2-0.1c-0.2,0.1-0.3,0.2-0.5,0.1
					c-0.1,0-0.2,0-0.3,0l0,0c-0.5,0-0.8-0.1-1.1-0.5h0h0c0-0.1,0-0.2-0.1-0.2l0,0c-0.2-0.3-0.1-0.7-0.1-1v0v0c0.1-0.2,0-0.4,0-0.6v0
					v0c0-0.1,0-0.3,0-0.4l0,0c0.1-0.1,0-0.3,0-0.5l0,0v0c0-0.2,0-0.3,0-0.5v0c0.1-0.5,0.1-0.9,0-1.4l0,0c-0.2-1.5-0.7-2.7-1.9-3.7
					c0.4-0.1,0.8-0.2,1.1-0.4h0h0c0.1,0.1,0.1,0,0.1-0.1h0l0,0c0,0,0.1,0,0.1,0c0.4-0.3,0.9-0.5,1.3-0.9c0.8-0.7,1.5-1.6,1.9-2.6
					c0.3-0.7,0.3-1.4,0.3-2.1c0-0.1,0-0.2,0-0.3h0c0-0.2-0.1-0.3-0.1-0.5c-0.3-1.3-1.1-2.2-2.3-2.8c-0.7-0.3-1.4-0.4-2.2-0.5
					c0,0,0,0,0,0c-0.2-0.1-0.4,0-0.5,0h0c0,0-0.1,0-0.1,0c-1.1,0-2.2,0-3.3,0c-0.1,0-0.2,0-0.3,0.1c-0.3,0.4-0.6,0.7-0.9,1
					c-0.5,0.4-1.1,0.7-1.8,0.7h0h0c-0.1,0-0.2,0-0.4,0c-0.2,0-0.3,0-0.3,0.3c0,0.2-0.1,0.4-0.2,0.6c-0.1,0.5-0.2,0.9-0.4,1.4l0,0
					c0,0,0,0,0,0c0,0.1,0,0.1,0,0.1c0.1,0,0.2,0,0.3,0c0,0,0,0,0,0l0,0c0.1,0,0.3,0,0.4,0h0h0c0.1,0,0.2,0,0.3,0
					c0.5-0.1,1-0.2,1.5-0.4c-1.2,4.6-2.4,9.1-3.6,13.6c1.2,0,2.3,0,3.5,0c0.1,0,0.2,0,0.2-0.1c0.4-1.4,0.8-2.8,1.1-4.3
					c0.2-0.7,0.4-1.4,0.5-2.1c0-0.1,0-0.2,0.2-0.1c0.8,0.3,1.3,0.9,1.7,1.7c0.2,0.3,0.3,0.7,0.3,1c0,0,0,0,0,0c0,0.1,0,0.2,0,0.3v0
					v0c0,0.3,0,0.6,0,1l0,0c-0.1,0.1,0,0.2,0,0.3l0,0l0,0c0,0,0,0.1,0,0.1c-0.1,0.7-0.2,1.3-0.3,2c0,0.1,0,0.2,0,0.3
					c0-0.1,0-0.2,0-0.3c-0.1,0.1,0,0.2,0,0.3c0,0.1,0,0.1,0,0.2v0v0c-0.1,0.1,0,0.3,0,0.4v0v0c0,0.3,0,0.5,0,0.8l0,0l0,0
					c0,0.1,0,0.2,0,0.3v0l0,0c0.1,0.7,0.4,1.2,0.8,1.7C57.9,33.2,58.6,33.5,59.5,33.6L59.5,33.6z M59.5,33.6c0.1,0,0.2,0,0.2,0
					C59.6,33.6,59.5,33.6,59.5,33.6z M56.4,20c-0.3,0-0.7,0-1,0c0.2-0.6,0.3-1.3,0.5-1.9c0.3-1.2,0.6-2.3,0.9-3.5
					c0-0.2,0.1-0.2,0.3-0.2c0.3,0,0.5,0,0.8,0c0.8,0.1,1.4,0.6,1.5,1.5c0.2,1.3-0.1,2.5-1.1,3.4C57.7,19.8,57.1,19.9,56.4,20z"/>
				<path class="st8" d="M57.4,15c-0.1,0-0.1,0.1-0.1,0.2c-0.1,0.3-0.1,0.6-0.2,0.8c-0.3,1.1-0.6,2.2-0.9,3.3c0,0.1-0.1,0.2,0,0.2
					c0.2,0,0.3,0,0.5,0c0.1,0,0.1-0.2,0.1-0.2c0.3-1.1,0.6-2.3,0.9-3.4c0-0.2,0.1-0.2,0.3-0.2c0.2,0,0.5,0,0.7,0
					C58.5,15.2,57.8,14.9,57.4,15z"/>
				<path class="st8" d="M90.5,33.1c-0.2,0-0.5,0-0.7,0C90,33.2,90.3,33.2,90.5,33.1C90.6,33.1,90.6,33.1,90.5,33.1
					c0.7-0.1,1.3-0.3,1.9-0.6c0.1,0,0.1-0.1,0.1-0.2c-0.2-0.7-0.3-1.4-0.4-2c0-0.1-0.1-0.1-0.2-0.1c-0.2,0.1-0.4,0.2-0.6,0.2h0h0
					c-0.1,0-0.3,0-0.4,0c0,0,0,0,0,0c-0.4,0-0.7-0.3-0.8-0.7c0-0.1-0.1-0.2-0.1-0.2c0-0.2,0-0.3,0-0.5c0-0.4,0.1-0.7,0.1-1.1
					c-0.1-1.1-0.5-2.2-1.4-2.9c1.1-0.2,2.1-0.7,3-1.4c0,0,0,0,0,0c0,0,0,0,0,0c0,0,0,0.1,0.1,0.1c0.1,0,0.1-0.1,0.1-0.2c0,0,0,0,0,0
					c0,0,0,0,0,0c0.1-0.1,0.3-0.3,0.4-0.4c0,0,0,0,0,0c0,0,0,0,0,0c0,0,0.1,0.1,0.1,0c0.1-0.1,0-0.1,0-0.2c0,0,0,0,0,0c0,0,0,0,0,0
					c0.3-0.4,0.5-0.7,0.7-1.1c0,0,0,0,0,0c0,0,0,0,0,0c0.1,0,0.1,0,0.1-0.1c0-0.1,0-0.1-0.1-0.1c0,0,0,0,0,0l0,0c0-0.1,0-0.1,0-0.2
					c0.2-0.6,0.2-1.1,0.1-1.7c0,0,0.1,0,0.1-0.1c0-0.1-0.1-0.1-0.2-0.1v0c-0.2-0.6-0.6-1.1-1.1-1.4c0-0.1,0-0.1,0-0.1
					c-0.1,0-0.1,0-0.1,0.1h0c-0.2-0.1-0.5-0.2-0.7-0.3l0,0c0-0.1,0-0.1-0.1-0.2c-0.1,0-0.1,0.1-0.1,0.1h0h0c-0.1,0-0.2-0.2-0.2-0.2
					c-0.1,0-0.2-0.2-0.3-0.2c-0.1,0-0.3,0-0.4,0c-0.1,0-0.2,0.1-0.3,0.2c-0.8,0.1-1.6,0.5-2.2,1.1c0,0,0,0-0.1,0c0,0,0,0,0-0.1
					c0,0,0,0,0,0c0-0.3,0.1-0.6,0.2-0.8c0,0,0,0,0,0c0,0,0,0,0,0c0.1,0,0.1,0,0.2-0.1c0-0.1-0.1-0.1-0.1-0.1c0,0,0,0,0,0
					c0.1-0.4,0.2-0.7,0.3-1.1c0,0,0,0,0,0l0,0c0.1,0,0.1,0,0.2-0.1c0-0.1-0.1-0.1-0.1-0.1c0,0,0,0,0,0c0.2-0.8,0.4-1.6,0.6-2.4l0,0
					l0,0c0.1,0,0.1,0,0.2-0.1c0-0.1-0.1-0.1-0.1-0.1c0,0,0,0,0,0c0.1-0.5,0.3-1.1,0.4-1.6c0.1-0.2,0-0.2-0.2-0.2c-0.9,0-1.9,0-2.8,0
					c-0.5,0-0.5,0-0.6,0.5c-0.1,0.4-0.1,0.7-0.3,1.1l0,0l0,0c0,0.1-0.2,0.1,0,0.2c-0.1,0.3-0.1,0.6-0.2,0.9l0,0c0,0.1-0.2,0.1,0,0.2
					c-0.1,0.3-0.1,0.5-0.2,0.8c-0.1,0.3-0.1,0.7-0.3,1h0l0,0c0,0.1-0.2,0.1,0,0.2h0l0,0c-0.1,0.3-0.1,0.6-0.2,0.9l0,0
					c0,0.1-0.2,0.1,0,0.2c-0.1,0.3-0.1,0.6-0.2,0.9l0,0c0,0.1-0.2,0.1,0,0.2h0l0,0c-0.2,0.6-0.3,1.3-0.5,1.9c-0.1,0.3-0.1,0.7-0.3,1
					l0,0c0,0.1-0.2,0.1,0,0.2c-0.1,0.3-0.1,0.6-0.2,0.9l0,0c0,0.1-0.2,0.1,0,0.2l0,0c-0.2,0.6-0.3,1.3-0.5,1.9
					c-0.1,0.3-0.1,0.7-0.3,1c0,0.1-0.2,0.1,0,0.2l0,0c-0.2,1-0.5,1.9-0.7,2.8c0,0.2,0,0.2,0.2,0.2c1.1,0,2.1,0,3.2,0
					c0.1,0,0.2,0,0.2-0.2c0.1-0.6,0.3-1.1,0.4-1.7c0.1-0.5,0.3-1,0.4-1.6l0,0l0,0c0.1-0.1,0.1-0.1,0.2-0.1c0.4,0.2,0.8,0.4,1.1,0.8
					c0.4,0.5,0.4,1.1,0.4,1.8c-0.1,0.1,0,0.3,0,0.4l0,0l0,0c0,0.1,0,0.2,0,0.3v0c-0.1,0.1,0,0.2,0,0.3c0,0,0,0,0,0
					c0,0.1,0.1,0.1,0.1,0.2c0,0.1,0,0.3,0,0.4c0,0.2,0,0.4,0,0.5c0,0.1-0.1,0.2,0,0.3c0.1,0.7,0.4,1.3,1,1.8c0.5,0.3,1,0.5,1.6,0.5
					C90,33.2,90.3,33.2,90.5,33.1z M86.7,23.6C86.7,23.6,86.6,23.6,86.7,23.6c-0.6,0-0.6,0-0.4-0.5c0.4-1.1,1-2,2-2.7
					c0.3-0.2,0.6-0.3,1-0.3c0.5,0,0.8,0.3,0.8,1c0,0.3-0.2,0.7-0.5,1.1C88.8,23,87.8,23.4,86.7,23.6z"/>
				<path class="st8" d="M89.5,20.7c0-0.2-0.1-0.2-0.3-0.2c-0.2,0.1-0.5,0.2-0.7,0.3c-0.8,0.5-1.4,1.3-1.8,2.2c0.1,0,0.2,0,0.2,0
					c0.3,0,0.6-0.2,0.8-0.5c0.4-0.6,0.9-1.1,1.7-1.4C89.6,21,89.6,20.9,89.5,20.7z"/>
				<path class="st8" d="M34.7,27.8c0.6,0.9,1.4,1.5,2.5,1.5c0.1,0,0.3,0,0.4,0c0.7-0.1,1.3-0.3,1.8-0.7c0.1-0.1,0.2-0.2,0.3-0.2
					c0,0,0,0,0,0c0,0,0,0,0,0c0.2,0.1,0.3,0,0.2-0.2c0,0,0,0,0,0l0,0c0-0.1,0.1-0.2,0.2-0.2c0,0,0,0,0,0c0.1,0,0.1,0.1,0.1,0.2
					c0,0,0,0,0,0c-0.1,0.3-0.2,0.7-0.3,1c0.9,0,1.9,0,2.8,0c0.1,0,0.2,0,0.2-0.2c0.3-1.2,0.6-2.4,1-3.7c0.4-1.6,0.8-3.2,1.3-4.8
					c0.1,0,0.1-0.1,0.1-0.2c0,0,0,0,0,0c0,0,0,0,0,0c0,0,0-0.1,0-0.1c0.3-1.1,0.6-2.1,0.8-3.2c0.4-1.7,0.9-3.4,1.3-5.1
					c0-0.1,0-0.2-0.1-0.2c-0.2,0-0.4-0.1-0.7-0.1c-0.8,0-1.7,0-2.5,0c-0.1,0-0.2,0.1-0.2,0.2c-0.1,0.4-0.2,0.8-0.3,1.2
					c-0.3,1.1-0.5,2.1-0.8,3.2c-0.1,0.4-0.1,0.7-0.3,1.1c0,0,0,0,0,0c-0.2,0-0.2,0.1,0,0.2c-0.1,0.3-0.1,0.6-0.2,0.9c0,0,0,0,0,0
					c-0.1,0-0.1,0-0.1,0.1c0,0,0,0,0,0c-0.1-0.1-0.2-0.2-0.2-0.3c0-0.3,0-0.3-0.2-0.2h0c-0.4-0.3-0.9-0.5-1.5-0.5c0,0,0,0,0,0
					c-0.1-0.1-0.3-0.1-0.4,0l0,0c-0.7,0-1.3,0.2-1.9,0.5h0l0,0c-0.2-0.1-0.2,0-0.2,0.1h0l0,0c-0.4,0.3-0.8,0.6-1.2,1l0,0
					c-0.2,0-0.2,0.1-0.2,0.2h0c0,0-0.1,0.1-0.1,0.1l0,0c-0.2,0-0.2,0.1-0.2,0.2c-0.3,0.4-0.5,0.9-0.8,1.3l0,0
					c-0.2,0-0.2,0.1-0.1,0.2l0,0v0c-0.1,0.2-0.2,0.4-0.3,0.7h0c-0.2,0-0.2,0.1-0.1,0.3c-0.1,0.6-0.4,1.2-0.4,1.8v0
					c-0.1,0.1,0,0.2,0,0.2v0c0,0.1-0.2,0.1-0.2,0.2c0,0.1-0.1,0.3-0.1,0.4c0,0.3,0,0.5,0,0.8c0,0.1,0.1,0.2,0.2,0.3
					C34,26.7,34.3,27.3,34.7,27.8z M40.2,28.1C40.2,28.1,40.2,28.2,40.2,28.1C40.2,28.2,40.2,28.1,40.2,28.1z M38.3,21.8
					c0.2-0.4,0.5-0.8,0.9-1.1c0.2-0.1,0.4-0.2,0.6-0.3c0.5-0.1,0.8,0,1.1,0.5c0.3,0.4,0.3,0.9,0.3,1.4c0,1.2-0.4,2.3-1,3.3
					c-0.3,0.4-0.6,0.8-1.1,1c-0.6,0.2-1.1,0-1.3-0.6c-0.2-0.4-0.2-0.9-0.2-1.4C37.6,23.6,37.8,22.7,38.3,21.8z M34.1,24.1
					c0,0.1,0,0.2,0,0.2C34.1,24.3,34.1,24.2,34.1,24.1z"/>
				<path class="st8" d="M38.4,25.7c0-0.8,0.2-1.6,0.5-2.4c0.3-0.8,0.8-1.6,1.7-1.9c0.1,0,0.1-0.1,0-0.1c-0.1-0.3-0.3-0.4-0.7-0.3
					c-0.4,0.1-0.6,0.4-0.8,0.7c-0.7,1.1-1,2.3-0.9,3.6c0,0.2,0.1,0.5,0.2,0.7C38.4,25.8,38.4,25.8,38.4,25.7z"/>
				<path class="st8" d="M17.1,29.4c0.6,0,1.1-0.2,1.6-0.5c0,0,0,0,0,0c0,0,0,0,0,0c0,0.1,0.1,0.1,0.2,0.1c0.1-0.1,0.3-0.2,0.2-0.4
					c0,0,0,0,0,0c0,0,0,0,0,0c0.1-0.1,0.3-0.3,0.4-0.4c0,0,0,0,0,0l0,0c0,0.1,0.1,0.1,0.2,0c0.1-0.1,0-0.2,0-0.3l0,0c0,0,0,0,0,0
					c0-0.1,0.1-0.2,0.2-0.2c0.1,0,0,0.1,0,0.2l0,0c-0.1,0.1-0.1,0.2,0.1,0.2c0.3,0.6,0.7,1,1.4,1.2c0.4,0.1,0.7,0.1,1.1,0.1
					c0.1,0,0.2,0,0.2,0c-0.1,0-0.2,0-0.2,0c0.1,0,0.2,0,0.3,0c0,0,0,0,0,0c0.3,0,0.5-0.1,0.8-0.2c0.1-0.1,0.2-0.1,0.2-0.3
					c0.1-0.4,0.2-0.7,0.3-1.1l0,0l0,0c0.1,0,0.1,0,0.2-0.1c0-0.1,0-0.1-0.1-0.2h0l0,0c0.1-0.3,0.1-0.6,0.2-0.9l0,0l0,0
					c0.1,0,0.2,0,0.2-0.1c0-0.1-0.1,0-0.1,0c-0.1-0.1-0.1,0-0.2,0c-0.6,0-1,0-0.9-0.8h0h0c0.1,0,0.1,0,0.2-0.1c0-0.1,0-0.1-0.1-0.2
					l0,0c0-0.1,0-0.1,0-0.2c0.2-0.9,0.5-1.8,0.7-2.7c0.1,0,0.1,0,0.2-0.1c0-0.1,0-0.1-0.1-0.2c0-0.1,0-0.1,0-0.2
					c0.2-0.9,0.5-1.8,0.7-2.7h0h0c0.1,0,0.1,0,0.2-0.1c0-0.1,0-0.1-0.1-0.2c0-0.1,0-0.2,0-0.2c0.1-0.5,0.2-1.7,0.4-1.7
					c-1.1,0-2.2,0-3.4,0c-0.1,0-0.1,0.3-0.1,0.4c-0.1,0.3-0.2,0.8-0.3,1.2c-0.5-0.9-1.2-1.2-2.2-1.3c-0.1,0-0.1,0-0.2,0
					c-0.1-0.1-0.2-0.1-0.2,0.1c0,0,0,0,0,0c-1.3,0.1-2.3,0.7-3.2,1.6c-0.8,0.9-1.4,1.9-1.8,3c-0.3,0.8-0.5,1.5-0.6,2.4
					c0,0.1-0.1,0.3-0.1,0.4c0,0.3,0,0.5,0,0.8c0,0.1,0.1,0.2,0.1,0.3c0,0.6,0.3,1.2,0.6,1.7c0.6,1,1.4,1.6,2.6,1.7
					C16.8,29.4,17,29.4,17.1,29.4z M18,21.5c0.2-0.3,0.4-0.6,0.7-0.8c0.9-0.7,1.8-0.4,2,0.8c0,0.2,0.1,0.5,0.1,0.7
					c-0.1,1.3-0.4,2.5-1.2,3.6c-0.2,0.3-0.5,0.6-0.9,0.7c-0.6,0.2-1.1,0-1.3-0.6c-0.2-0.4-0.2-0.9-0.2-1.4
					C17.1,23.5,17.4,22.5,18,21.5z"/>
				<path class="st8" d="M17.9,26c0-0.9,0.1-1.8,0.5-2.6c0.3-0.8,0.8-1.6,1.7-1.9c0.1,0,0.1-0.1,0-0.2c-0.1-0.3-0.3-0.4-0.7-0.3
					c-0.4,0.1-0.6,0.4-0.8,0.7c-0.7,1.1-1,2.3-0.9,3.6C17.7,25.5,17.7,25.7,17.9,26z"/>
				<path class="st8" d="M65.7,29.4c0.2,0.1,0.3,0.1,0.5,0h0c0.3,0,0.7,0,1-0.1c1.1-0.3,2-0.7,2.8-1.5c0.7-0.7,1.3-1.4,1.7-2.3
					c0.3-0.7,0.3-1.5,0.4-2.3c0-0.1-0.2-0.3-0.2-0.4c0-0.2,0-0.4,0-0.6c0-0.1,0.3-0.2,0.2-0.4c-0.1-0.3,0-0.6,0-0.9
					c-0.2-0.9-0.6-1.7-1.3-2.3c-0.7-0.6-1.5-0.8-2.4-0.9c-0.2,0-0.3,0-0.4,0c0,0,0,0,0,0c-0.8,0.1-1.6,0.2-2.3,0.6
					c-0.6,0.3-1.2,0.8-1.6,1.3c-0.6,0.6-1,1.3-1.3,2c-0.3,0.7-0.5,1.4-0.6,2.1l0,0c-0.1,0.1,0,0.2,0,0.2l0,0c0,0.1-0.3,0.1-0.3,0.2
					c0,0.1-0.4,0.3-0.4,0.4c0,0.2,0,0.4,0,0.7c0,0.1,0.3,0.2,0.4,0.3c0.1,1,0.6,1.8,1.2,2.6c0,0,0.1,0.1,0.2,0.1
					c0.1,0,0.2,0.1,0.2,0.2c0,0,0,0,0.1,0.1c0,0,0,0,0.1,0c0,0,0,0,0,0c0.1,0.1,0.3,0.2,0.4,0.3C64.3,29.1,65,29.3,65.7,29.4
					C65.7,29.4,65.7,29.4,65.7,29.4z M61.9,23.7c0,0.1,0,0.1,0,0.2C61.9,23.8,61.9,23.8,61.9,23.7z M65.2,24.3
					c0.1-1,0.3-1.9,0.7-2.7c0.2-0.4,0.4-0.7,0.8-1c0.1-0.1,0.2-0.2,0.3-0.2c0.7-0.4,1.3-0.2,1.6,0.6c0.2,0.4,0.2,0.8,0.2,1.3
					c0,1.2-0.3,2.3-0.9,3.3c-0.2,0.4-0.5,0.7-0.9,1c-0.7,0.4-1.3,0.3-1.6-0.5C65.2,25.5,65.2,24.9,65.2,24.3z"/>
				<path class="st8" d="M66,25.6c0-1,0.2-1.9,0.6-2.8c0.3-0.7,0.7-1.3,1.5-1.6c0.1,0,0.1-0.1,0.1-0.1c-0.1-0.3-0.3-0.4-0.6-0.3
					c-0.5,0.2-0.8,0.5-1,1c-0.6,1-0.8,2.1-0.7,3.3c0,0.3,0.1,0.6,0.2,0.9C66,25.8,66,25.7,66,25.6z"/>
			</g>
		</g>
	</g>
</g>
</svg>
