<?xml version="1.0" encoding="utf-8"?>
<!-- Generator: Adobe Illustrator 22.1.0, SVG Export Plug-In . SVG Version: 6.00 Build 0)  -->
<svg version="1.1" id="Layer_1" xmlns="http://www.w3.org/2000/svg" xmlns:xlink="http://www.w3.org/1999/xlink" x="0px" y="0px"
	 viewBox="0 0 164.9 47.5" style="enable-background:new 0 0 164.9 47.5;" xml:space="preserve">
<style type="text/css">
	.st0{fill:#F2F2F2;}
	.st1{fill:#333333;}
	.st2{fill:#D78021;}
	.st3{fill:#B4C580;}
	.st4{fill:#D78D8E;}
	.st5{fill:#E0AB08;}
	.st6{fill:#030708;}
	.st7{fill:#DFDFDF;}
	.st8{fill:#606060;}
	.st9{opacity:0.2;clip-path:url(#SVGID_8_);fill:url(#SVGID_9_);}
	.st10{fill:#FFFFFF;}
	.st11{clip-path:url(#SVGID_11_);}
	.st12{clip-path:url(#SVGID_15_);}
	.st13{clip-path:url(#SVGID_19_);}
	.st14{opacity:0.38;}
	.st15{clip-path:url(#SVGID_23_);}
	.st16{clip-path:url(#SVGID_27_);}
	.st17{clip-path:url(#SVGID_31_);}
	.st18{clip-path:url(#SVGID_35_);}
	.st19{clip-path:url(#SVGID_39_);}
	.st20{opacity:0.72;}
	.st21{opacity:0.2;clip-path:url(#SVGID_45_);fill:url(#SVGID_46_);}
	.st22{opacity:0.4;clip-path:url(#SVGID_48_);fill:url(#SVGID_49_);}
	.st23{clip-path:url(#SVGID_55_);}
	.st24{clip-path:url(#SVGID_65_);}
	.st25{clip-path:url(#SVGID_69_);}
	.st26{clip-path:url(#SVGID_71_);}
	.st27{clip-path:url(#SVGID_75_);}
	.st28{clip-path:url(#SVGID_77_);}
	.st29{clip-path:url(#SVGID_79_);}
	.st30{clip-path:url(#SVGID_85_);}
	.st31{clip-path:url(#SVGID_89_);}
	.st32{clip-path:url(#SVGID_91_);}
</style>
<g>
	<g>
		<g>
			<g>
				<path class="st8" d="M89.4,1.1c-1.8,0-3.6,0.1-5.4,0.1c-0.7,0-0.8,0.1-0.8,0.8c0,0.1,0,0.2,0,0.4c0,5,0,9.9,0,14.9
					c0,0.2,0,0.4-0.1,0.6c-0.1,0.3-0.2,0.5-0.5,0.5c-0.8,0.2-1.7,0.3-2.5,0.2c-0.8-0.1-0.9-0.2-0.9-1c0-2-0.1-4,0-6
					c0.1-3.2,0-6.3,0-9.5c0-0.8-0.3-1-1-1c-1.9,0-3.8,0-5.8,0c-0.6,0-0.7,0.1-0.8,0.7c0,0.6,0,1.1,0,1.7c0,3.5-0.1,6.9-0.1,10.4
					c0,3.3,0,6.6,0,9.9c0,5.1,0,10.3,0.1,15.4c0,2.1,0.1,4.3,0.2,6.4c0,0.9,0.4,1.2,1.3,1.3c0.6,0,1.2,0.1,1.9,0.1
					c1,0,1.9-0.1,2.9-0.3c0.8-0.2,1.2-0.6,1.2-1.3c0-1.7,0.1-3.3,0.1-5c0-4,0-8.1,0.1-12.1c0-0.2,0-0.4,0-0.5c0-0.3,0.2-0.5,0.6-0.5
					c0.8,0,1.6,0,2.4,0c1,0,1.2,0.3,1.2,1.2c0,5.7,0,11.3,0,17c0,0.3,0,0.6,0.1,0.8c0.1,0.4,0.3,0.7,0.8,0.6c0.4,0,0.8,0,1.1,0
					c1.2,0.1,2.5,0.1,3.7-0.1c0.7-0.1,1-0.5,1-1.2c0-4.4,0.1-8.9,0.1-13.3c0-3.2,0.1-6.3,0.1-9.5c0-6.4,0-12.7,0-19.1
					c0-0.6,0-1.1,0-1.7C90.2,1.2,90,1.1,89.4,1.1z"/>
				<path class="st8" d="M40.3,29.5c-1.8,0-3.7,0-5.5-0.1c-0.6,0-0.8,0.2-0.9,0.8c0,0.2,0,0.4,0,0.6c0.1,1.4,0.1,2.9,0,4.3
					c-0.1,1-0.2,2.1-0.7,3c-0.7,1.2-1.9,1.2-2.7,0.1c-0.1-0.2-0.2-0.3-0.3-0.5c-0.5-1.1-0.7-2.2-0.7-3.4c0-5.9,0-11.9,0-17.8
					c0-1.8,0.1-3.5,0.4-5.2c0.2-0.9,0.3-1.8,0.8-2.6c0.5-0.9,1.6-0.9,2.3-0.2c0.2,0.2,0.3,0.4,0.4,0.6c0.3,0.6,0.4,1.3,0.4,2
					c0,1.2,0,2.4,0,3.6c0,0.8,0.2,1.1,0.9,1.1c1.8,0.1,3.5,0.2,5.3,0.1c0.8-0.1,1.1-0.3,1.1-1.1c0.1-1.6,0.1-3.1,0-4.7
					c-0.1-1.3-0.3-2.6-0.7-3.8C39.7,4,38.4,2,36,0.8C34.6,0.2,33,0,31.4,0c-2.4,0.1-4.5,1-6,2.9c-1.8,2.2-2.7,4.8-2.8,7.6
					c0,4,0,8,0,11.9c0,0,0,0,0,0c0,3.9,0,7.8,0,11.7c0,2.3,0.3,4.7,0.9,6.9c0.7,2.2,1.8,4,3.9,5.1c1.2,0.7,2.6,0.9,3.9,1
					c2.9,0.1,5.4-0.8,7.2-3.2c1.4-1.8,2.1-3.9,2.5-6.2c0.3-2.5,0.2-4.9,0.2-7.4C41.2,29.7,41,29.5,40.3,29.5z"/>
				<path class="st8" d="M145.5,38.7c-1.3,0-2.5,0-3.8,0c-0.8,0-1.6,0-2.4,0c-0.7,0-1-0.3-1-1c0-0.7,0-1.3-0.1-2
					c0-2.2-0.1-4.4,0.2-6.7c0.1-0.7,0.3-0.8,0.9-0.8c1.6,0,3.1,0,4.7,0c0.5,0,0.7-0.2,0.7-0.6c0.1-2.5,0.2-4.9,0.2-7.4
					c0-0.9-0.2-1.1-1.1-1.1c-1.6,0-3.1,0.1-4.7-0.1c-0.7-0.1-0.8-0.3-0.8-0.9c-0.1-1.5,0-3,0-4.5c0-1.3,0-2.5,0-3.8
					c0-0.8,0.1-0.9,1-0.9c2,0,4,0,6.1,0c0.7,0,0.8-0.2,0.8-0.8c0-2.1,0-4.1,0.1-6.2c0-0.7-0.2-0.9-0.8-0.9c-1.1,0-2.3-0.1-3.4-0.1
					c-3.5,0-6.9,0-10.4,0c-0.9,0-1,0.1-1,1c0,7.3,0,14.5,0,21.8c0,7.2,0,14.4,0,21.7c0,0.3,0,0.5,0.1,0.8c0.1,0.4,0.3,0.6,0.7,0.6
					c1.5,0.1,3,0.2,4.4,0.2c3.2,0.1,6.4,0.1,9.6-0.1c0.8,0,1-0.2,1-1.1c0-2.1,0-4.2,0-6.3C146.5,38.9,146.3,38.7,145.5,38.7z"/>
				<path class="st8" d="M58.1,38.7c-1.9,0-3.9,0-5.8,0c-0.9,0-1.2-0.3-1.2-1.2c0-1.7,0-3.5,0-5.2c0-1.1,0-2.2,0.2-3.3
					c0.1-0.6,0.3-0.8,0.9-0.8c1.5,0,3,0,4.5,0c0.8,0,0.9-0.1,0.9-0.9c0-2.4,0.2-4.7,0.2-7.1c0-0.9-0.2-1.1-1.1-1.1
					c-1.6,0-3.1,0.1-4.7,0c-0.7-0.1-0.9-0.3-0.9-1c-0.1-2.7,0.1-5.4,0.1-8.1c0-0.9,0.1-1,1-1c2,0,4,0,6.1,0c0.6,0,0.8-0.2,0.8-0.7
					c0-2.2,0-4.3,0.1-6.5c0-0.5-0.2-0.7-0.7-0.7c-0.3,0-0.7,0-1,0c-4.4,0-8.7,0-13.1,0c-0.7,0-0.8,0.1-0.8,0.9c0,7.3,0,14.6,0,21.9
					c0,7.3,0,14.6,0,21.9c0,0.1,0,0.3,0,0.4c0,0.6,0.2,0.8,0.8,0.8c1.9,0.2,3.8,0.2,5.6,0.3c2.8,0,5.6,0,8.5-0.2
					c0.7,0,0.9-0.2,0.9-0.9c0-2.1,0-4.1,0-6.2C59.3,38.9,59.1,38.7,58.1,38.7z"/>
				<path class="st8" d="M130.1,1.8c0-0.6-0.3-0.9-0.9-0.9c-5.7,0-11.5,0-17.2,0c-0.4,0-0.7,0.2-0.9,0.6c-0.1,0.2-0.2,0.5-0.2,0.8
					c-0.4,1.7-0.1,3.5-0.1,5.2c0,0.9,0.3,1.1,1.2,1.1c1.2,0,2.4,0,3.6,0c0.9,0,1,0.1,1,1c0,6,0,12,0,18c0,0,0,0,0.1,0
					c0,6,0,12.1,0,18.1c0,0.1,0,0.2,0,0.4c0,0.4,0.3,0.7,0.7,0.7c2,0.1,4,0.3,6,0.1c0.9-0.1,1.1-0.3,1.1-1.2c0-1.1,0-2.3,0-3.4
					c0-2.7,0-5.3,0-8c0-8.2,0-16.3-0.1-24.5c0-1,0.2-1.2,1.2-1.2c1.2,0,2.5,0,3.7,0c0.7,0,0.9-0.2,1-1c0-0.9,0-1.7,0-2.6
					C130.2,4,130.2,2.9,130.1,1.8z"/>
				<path class="st8" d="M164.1,38.5c-0.2-0.1-0.5-0.1-0.7-0.1c-1.8,0-3.7,0-5.5,0c-1.1,0-1.5-0.4-1.5-1.5c0-1.6-0.1-3.2-0.1-4.9
					c0-7.3,0-14.5,0.1-21.8c0-2.9-0.1-5.7-0.1-8.6c0-0.8-0.2-1-1-0.9c-1.9,0.1-3.8,0.2-5.7,0c-0.8-0.1-1.3,0.2-1.3,1.2
					c0,0.9,0,1.7,0,2.6c0,6.4,0,12.7,0,19.1c0,0,0.1,0,0.1,0c0,3.5,0,6.9,0,10.4c0,2.7,0,5.4,0.1,8.1c0,1.1,0,2.3,0.1,3.4
					c0,0.8,0.3,1.1,1.1,1.2c0.6,0,1.2,0.1,1.7,0.1c3.2,0.1,6.3-0.1,9.5-0.1c1,0,2,0,3.1-0.1c0.6-0.1,1-0.4,1-1c0-2.1,0-4.2,0-6.3
					C164.9,38.9,164.6,38.6,164.1,38.5z"/>
				<path class="st8" d="M104.6,1.2c-1.5-0.3-3.1-0.4-4.6-0.2c-3.3,0.3-5.5,2-6.5,5.2c-0.6,1.9-0.7,3.9-0.7,5.8c0,4.2,0,8.5,0,12.7
					c0,4.3,0,8.6,0,12.9c0,1.3,0.1,2.7,0.3,4c0.6,2.9,2.2,4.8,5.2,5.5c2.3,0.5,4.5,0.5,6.7-0.1c2.3-0.7,3.9-2.1,4.7-4.4
					c0.5-1.3,0.7-2.7,0.7-4.1c0-9.3,0-18.7,0-28c0-1.4-0.2-2.7-0.5-4C109.3,3.6,107.6,1.8,104.6,1.2z M103.4,35.1
					c0,0.6,0,1.3-0.2,1.9c-0.2,0.9-0.8,1.3-1.7,1.3c-0.8,0-1.2-0.4-1.3-1.1c-0.1-0.7-0.1-1.4-0.1-2c0-7.4,0-14.7,0-22.1
					c0-0.8,0-1.6,0.2-2.4c0.1-0.3,0.2-0.6,0.4-0.9c0.6-0.8,1.8-0.7,2.2,0.2c0.3,0.6,0.4,1.3,0.4,2c0,3.3,0,6.6,0,9.9
					c0,0.7,0,1.3,0,2C103.4,27.6,103.4,31.4,103.4,35.1z"/>
				<path class="st8" d="M21.5,41.7c-0.9-6.1-1.8-12.1-2.8-18.2c-0.9-5.9-1.9-11.9-3-17.8c-0.3-1.4-0.6-2.8-0.9-4.2
					c-0.1-0.4-0.3-0.6-0.8-0.7c-1.7,0-3.5,0-5.2,0C8.4,0.9,8.2,1,8.1,1.3C8,1.8,7.8,2.3,7.7,2.7C6.9,6.3,6.2,9.9,5.6,13.5
					c-0.9,5.4-1.8,10.7-2.8,16.1C2.1,33.7,1.4,37.9,0.7,42c-0.2,1.4-0.5,2.9-0.7,4.3c-0.1,0.5,0,0.7,0.6,0.7c0.1,0,0.3,0,0.4,0
					c2.1,0,4.3,0,6.4,0c0.5,0,0.8-0.2,0.9-0.7c0.1-0.7,0.3-1.3,0.4-2c0.3-1.9,0.6-3.8,0.9-5.6c0.1-0.3,0.2-0.6,0.5-0.6
					c0.8,0,1.5,0,2.3,0c0.3,0,0.5,0.2,0.6,0.5c0.2,1.2,0.4,2.4,0.6,3.6c0.3,1.4,0.5,2.7,1,4.1c0.2,0.4,0.4,0.7,0.9,0.6
					c1-0.1,2,0,3,0c0,0,0,0,0,0.1c1.1,0,2.2,0,3.3,0c0.4,0,0.5-0.2,0.5-0.6C22,44.9,21.7,43.3,21.5,41.7z"/>
			</g>
		</g>
	</g>
</g>
</svg>
