<svg version="1.1" xmlns="http://www.w3.org/2000/svg" xmlns:xlink="http://www.w3.org/1999/xlink" x="0px" y="0px"
	 viewBox="0 0 36.22 30.01" width="100%" height="100%" style="enable-background:new 0 0 36.22 30.01;" xml:space="preserve">
<g>
	<path d="M13.41,0.01c-0.15,0.02-0.29,0.1-0.37,0.23L7.12,8.82h-6.6c-0.03,0-0.06,0-0.1,0C0.18,8.86,0.01,9.08,0.01,9.33v6.2
		c0,0.29,0.23,0.52,0.52,0.52h1.6l2.55,13.54c0.05,0.24,0.26,0.42,0.5,0.42h25.87c0.25,0,0.46-0.18,0.5-0.42l2.55-13.54h1.6
		c0.29,0,0.52-0.23,0.52-0.52v-6.2c0-0.29-0.23-0.52-0.52-0.52h-6.6l-5.92-8.58C23.06,0.07,22.88-0.02,22.68,0
		c-0.28,0.03-0.49,0.29-0.46,0.57c0.01,0.09,0.04,0.18,0.1,0.25l5.5,7.98H8.39l5.5-7.98c0.17-0.23,0.12-0.55-0.1-0.72
		C13.67,0.03,13.54-0.01,13.41,0.01L13.41,0.01z M1.04,9.85h34.15v5.17H1.04V9.85z M3.16,16.05h29.91l-2.44,12.93H5.6L3.16,16.05z"
		/>
</g>
</svg>
